<svg width="50" height="49" viewBox="0 0 50 49" fill="none" xmlns="http://www.w3.org/2000/svg">
<path d="M8.8542 0H41.1459C46.0417 0 50 3.9583 50 8.8542V39.8959C50 44.7917 46.0417 48.7501 41.1458 48.7501H8.8542C3.9583 48.75 0 44.7917 0 39.8958V8.8542C0 3.9583 3.9583 0 8.8542 0Z" fill="#390000"/>
<path d="M24.2289 29.2504H16.4789L14.8956 34.1462C14.8539 34.3337 14.6873 34.4587 14.4998 34.4379H10.5831C10.3539 34.4379 10.2914 34.3129 10.3539 34.0629L17.0622 14.7504C17.1247 14.5421 17.1872 14.3129 17.2705 14.0629C17.3538 13.6254 17.3955 13.1671 17.3955 12.7087C17.3747 12.6045 17.458 12.5004 17.5622 12.4795H17.6247H22.958C23.1247 12.4795 23.208 12.542 23.2288 12.6462L30.833 34.1045C30.8955 34.3337 30.833 34.4378 30.6247 34.4378H26.2705C26.1247 34.4586 25.9788 34.3545 25.9372 34.2086L24.2289 29.2504ZM17.6872 25.0212H22.9789L20.3122 16.3337L17.6872 25.0212Z" fill="#FF9A00"/>
<path d="M35.3743 16.0418C34.6868 16.0626 34.0201 15.7918 33.5201 15.3126C33.0409 14.7918 32.7909 14.1043 32.8118 13.3959C32.791 12.6876 33.0618 12.0209 33.5618 11.5417C34.0618 11.0625 34.7285 10.8125 35.416 10.8125C36.2285 10.8125 36.8535 11.0625 37.3118 11.5417C37.7701 12.0417 38.0201 12.7084 37.9993 13.3959C38.0201 14.1042 37.7701 14.7917 37.2701 15.3126C36.791 15.8126 36.0826 16.0834 35.3743 16.0418Z" fill="#FF9A00"/>
<path d="M33.041 34.1254V18.0837C33.041 17.8754 33.1243 17.792 33.3118 17.792H37.4368C37.6243 17.792 37.7076 17.8962 37.7076 18.0837V34.1254C37.7076 34.3546 37.6243 34.4587 37.4368 34.4587H33.3535C33.1451 34.4587 33.041 34.3337 33.041 34.1254Z" fill="#FF9A00"/>
</svg>
