<svg width="100" height="100" viewBox="0 0 100 100" fill="none" xmlns="http://www.w3.org/2000/svg">
<path d="M100 50C100 77.6146 77.6146 100 50 100C22.3854 100 0 77.6146 0 50C0 22.3854 22.3854 0 50 0C77.6146 0 100 22.3854 100 50Z" fill="#87C7FF"/>
<path d="M100 49.9997C100 47.8055 99.8577 45.6448 99.5838 43.5261L73.1235 17.0659L70.0534 20.7043L64.6862 15.3363L63.1527 19.917L56.1519 12.917L52.692 16.0542L54.507 17.87L53.8967 19.7079L47.1057 12.917L43.6435 16.0542L45.6455 18.0569L44.6186 21.674L38.2892 15.3439L34.0503 22.5911L21.9806 30.8568L37.582 46.4581L36.372 50.7214L20.9072 35.2566L17.8737 38.8218L34.9124 55.8606L34.1114 58.6827L19.8406 44.4119L16.8193 47.9733L32.6557 63.8104L32.407 64.6847L21.2711 53.5489L18.1896 57.005L23.9627 62.7781L21.5831 64.9556L29.9541 73.3265L27.8423 80.7652L46.9829 99.9066C47.9816 99.9661 48.9872 99.9997 50.0003 99.9997C77.6149 99.9997 100 77.6143 100 49.9997Z" fill="#4A98F7"/>
<path d="M52.1538 77.9362C51.9722 76.6529 52.8648 75.4673 54.1473 75.2873C55.4291 75.108 56.6147 76.0006 56.794 77.2816C56.9756 78.5626 56.0814 79.7482 54.7997 79.9282C54.689 79.9435 54.5792 79.9519 54.4701 79.9519C53.3218 79.9519 52.3178 79.1058 52.1538 77.9362ZM45.0874 79.9122C43.8057 79.7291 42.9169 78.5397 43.1007 77.2602C43.2861 75.9792 44.474 75.0881 45.755 75.2735C47.036 75.4597 47.9248 76.6468 47.7417 77.9278C47.5731 79.0958 46.5714 79.9381 45.4247 79.9381C45.314 79.9381 45.2004 79.9297 45.0874 79.9122ZM61.0321 76.0471C60.495 74.8692 61.0146 73.4791 62.1948 72.9435C63.372 72.4064 64.7606 72.9282 65.2977 74.1062C65.8348 75.2834 65.3137 76.6743 64.1357 77.2091C63.8214 77.3541 63.4911 77.4204 63.1676 77.4204C62.2765 77.4204 61.425 76.9108 61.0321 76.0471ZM35.7613 77.1641C34.5848 76.6232 34.0698 75.2331 34.6108 74.0551C35.1494 72.8794 36.5425 72.3637 37.7182 72.9046C38.8939 73.444 39.4096 74.8364 38.8702 76.012C38.4758 76.8711 37.6259 77.3792 36.7378 77.3777C36.4113 77.3777 36.0794 77.309 35.7613 77.1641ZM69.0132 71.7228C68.1656 70.7424 68.2747 69.2623 69.2528 68.4162C70.2339 67.5709 71.714 67.6785 72.5601 68.6588C73.4055 69.6369 73.2979 71.1178 72.3175 71.9631C71.8742 72.3461 71.3295 72.5338 70.7863 72.5338C70.1302 72.5338 69.4756 72.2584 69.0132 71.7228ZM27.597 71.8906C26.6205 71.0415 26.5167 69.5606 27.3666 68.5841C28.2158 67.6075 29.6967 67.5045 30.6732 68.3537C31.6498 69.2036 31.7528 70.6837 30.9036 71.6602C30.4405 72.1935 29.7882 72.4674 29.1344 72.4674C28.5889 72.4674 28.0403 72.2775 27.597 71.8906ZM75.4585 65.3286C74.3706 64.6275 74.0601 63.1763 74.7627 62.0884C75.4639 61.002 76.915 60.6899 78.0029 61.3926C79.0894 62.096 79.4014 63.5471 78.6987 64.6336C78.2494 65.3286 77.4971 65.7055 76.7281 65.7055C76.2924 65.7055 75.8507 65.5842 75.4585 65.3286ZM21.2418 64.5412C20.5406 63.4518 20.8565 62.0022 21.9467 61.3033C23.0362 60.6037 24.4858 60.9203 25.1846 62.0083C25.8842 63.0978 25.5676 64.5474 24.4797 65.2462C24.0868 65.4987 23.6473 65.6193 23.214 65.6193C22.4449 65.6193 21.6888 65.2386 21.2418 64.5412ZM79.847 57.3849C78.6049 57.0179 77.8954 55.7133 78.2631 54.4727C78.6301 53.2307 79.9332 52.5219 81.1752 52.8889C82.415 53.2566 83.1245 54.5589 82.7591 55.801C82.4562 56.8211 81.5247 57.481 80.5107 57.481C80.2925 57.481 80.0674 57.4497 79.847 57.3849ZM17.2081 55.6934C16.8472 54.4514 17.5598 53.1506 18.8019 52.7874C20.0439 52.4242 21.347 53.1391 21.7079 54.3812C22.0718 55.6232 21.3585 56.9241 20.1141 57.2872C19.8959 57.3521 19.6747 57.3811 19.458 57.3811C18.4425 57.3811 17.5072 56.7173 17.2081 55.6934ZM81.8039 48.5218C80.5092 48.5203 79.4624 47.4674 79.4662 46.1742C79.4662 46.1643 79.4662 46.1529 79.4662 46.143C79.4662 46.133 79.4662 46.1216 79.4662 46.1094C79.4662 44.817 80.5145 43.7656 81.81 43.7656C83.1047 43.7656 84.1537 44.817 84.1537 46.1094V46.1567V46.1842C84.1499 47.4766 83.1009 48.5218 81.81 48.5218C81.8077 48.5218 81.8062 48.5218 81.8039 48.5218ZM18.187 48.4203C16.8915 48.418 15.8432 47.3675 15.8447 46.0728C15.847 44.7796 16.8976 43.7305 18.1908 43.7328C19.4855 43.7328 20.5345 44.7834 20.5322 46.0789C20.5307 47.3713 19.4817 48.4203 18.1885 48.4203H18.187ZM78.2806 37.8086C77.9175 36.5665 78.6278 35.2642 79.8706 34.901C81.1127 34.5371 82.415 35.2482 82.7782 36.4903C83.1436 37.7331 82.431 39.0354 81.189 39.3986C80.9677 39.4634 80.7472 39.4947 80.5283 39.4947C79.5151 39.4947 78.5812 38.8302 78.2806 37.8086ZM18.8156 39.3658C17.5751 39.0003 16.8648 37.698 17.2295 36.4552C17.5949 35.2131 18.898 34.502 20.1401 34.8675C21.3821 35.2329 22.0909 36.5376 21.7255 37.7781C21.4272 38.7989 20.4918 39.4611 19.4794 39.4611C19.2612 39.4611 19.0361 39.4299 18.8156 39.3658ZM74.7963 30.1838C74.0952 29.0958 74.4095 27.647 75.499 26.9459C76.5869 26.2447 78.0365 26.5591 78.7376 27.6485C79.4388 28.7365 79.1245 30.1861 78.0365 30.8872C77.6436 31.1413 77.2041 31.2603 76.7685 31.2603C75.9995 31.2603 75.2457 30.8811 74.7963 30.1838ZM21.9795 30.8575C20.8916 30.1548 20.5795 28.7052 21.2807 27.6173C21.9818 26.5293 23.4329 26.2173 24.5209 26.9184C25.6088 27.6196 25.9209 29.0707 25.2197 30.1586C24.7704 30.8537 24.0166 31.2328 23.2475 31.2328C22.8119 31.2328 22.3724 31.1115 21.9795 30.8575ZM69.3016 23.8461C68.3235 22.9961 68.2198 21.516 69.0674 20.5395C69.915 19.5606 71.3959 19.4576 72.374 20.3053C73.3505 21.1529 73.4566 22.633 72.6089 23.6118C72.1436 24.1451 71.4912 24.4183 70.8374 24.4183C70.2919 24.4183 69.7456 24.2306 69.3016 23.8461ZM27.4155 23.5867C26.5678 22.6078 26.6731 21.1292 27.6512 20.2816C28.6301 19.434 30.1109 19.5393 30.9586 20.5181C31.8062 21.4962 31.6986 22.9771 30.7198 23.8247C30.2765 24.2092 29.7318 24.3969 29.187 24.3969C28.5301 24.3969 27.8778 24.1215 27.4155 23.5867ZM62.2513 19.3027C61.0756 18.7641 60.5576 17.3733 61.097 16.1961C61.6356 15.0196 63.0264 14.5023 64.2021 15.0417C65.3801 15.5804 65.8974 16.9712 65.3587 18.1492C64.9643 19.0083 64.1144 19.5164 63.2256 19.5164C62.8998 19.5164 62.5679 19.4477 62.2513 19.3027ZM34.671 18.1309C34.1324 16.9537 34.6519 15.5628 35.8292 15.0257C37.0071 14.4886 38.3957 15.0059 38.9351 16.1839C39.4722 17.3618 38.9526 18.7527 37.7769 19.2898C37.4603 19.434 37.13 19.5026 36.8042 19.5026C35.9154 19.5026 35.0639 18.9922 34.671 18.1309ZM54.2122 16.9415C52.9289 16.7583 52.0401 15.5704 52.2217 14.2895C52.4056 13.0085 53.5927 12.1197 54.8744 12.3013C56.1554 12.4851 57.0457 13.6723 56.8626 14.9532C56.6963 16.1236 55.6923 16.9651 54.5464 16.9651C54.435 16.9651 54.3236 16.9575 54.2122 16.9415ZM43.1709 14.9456C42.9894 13.6646 43.8805 12.479 45.1614 12.2974C46.4424 12.1136 47.6303 13.0062 47.8119 14.2872C47.9935 15.5689 47.1031 16.7561 45.8199 16.9376C45.7085 16.9537 45.5971 16.9613 45.4872 16.9613C44.339 16.9613 43.3373 16.116 43.1709 14.9456Z" fill="white"/>
<path d="M30.673 68.3535C29.6965 67.5043 28.2156 67.6073 27.3665 68.5839C26.5166 69.5604 26.6203 71.0413 27.5969 71.8904C28.0401 72.2773 28.5887 72.4672 29.1342 72.4672C29.788 72.4672 30.4403 72.1933 30.9035 71.66C31.7526 70.6835 31.6496 69.2034 30.673 68.3535Z" fill="white"/>
<path d="M27.6522 20.2816C26.6741 21.1293 26.5689 22.6078 27.4165 23.5867C27.8788 24.1215 28.5311 24.3969 29.188 24.3969C29.7328 24.3969 30.2775 24.2093 30.7208 23.8247C31.6996 22.9771 31.8072 21.4962 30.9596 20.5182C30.1119 19.5393 28.6311 19.434 27.6522 20.2816Z" fill="white"/>
<path d="M37.7189 72.9043C36.5432 72.3634 35.1501 72.8791 34.6115 74.0548C34.0705 75.2328 34.5855 76.6229 35.762 77.1638C36.0801 77.3088 36.412 77.3774 36.7385 77.3774C37.6266 77.379 38.4765 76.8708 38.871 76.0118C39.4104 74.8361 38.8946 73.4437 37.7189 72.9043Z" fill="white"/>
<path d="M76.7687 31.2603C77.2043 31.2603 77.6438 31.1413 78.0367 30.8872C79.1246 30.1861 79.439 28.7365 78.7378 27.6486C78.0367 26.5591 76.5871 26.2448 75.4991 26.9459C74.4097 27.647 74.0953 29.0959 74.7965 30.1838C75.2459 30.8811 75.9996 31.2603 76.7687 31.2603Z" fill="#E9EDF5"/>
<path d="M78.2824 37.8085C78.583 38.83 79.5169 39.4945 80.5301 39.4945C80.749 39.4945 80.9695 39.4633 81.1908 39.3984C82.4328 39.0353 83.1454 37.7329 82.78 36.4901C82.4168 35.248 81.1145 34.537 79.8724 34.9009C78.6296 35.264 77.9193 36.5664 78.2824 37.8085Z" fill="#E9EDF5"/>
<path d="M72.3751 20.3051C71.397 19.4575 69.9161 19.5605 69.0685 20.5393C68.2209 21.5159 68.3246 22.996 69.3027 23.8459C69.7468 24.2304 70.293 24.4181 70.8385 24.4181C71.4924 24.4181 72.1447 24.145 72.6101 23.6117C73.4577 22.6328 73.3516 21.1527 72.3751 20.3051Z" fill="white"/>
<path d="M78.0039 61.3922C76.9159 60.6895 75.4648 61.0016 74.7637 62.088C74.061 63.1759 74.3715 64.627 75.4595 65.3282C75.8516 65.5838 76.2934 65.7051 76.729 65.7051C77.498 65.7051 78.2503 65.3282 78.6997 64.6332C79.4023 63.5467 79.0903 62.0956 78.0039 61.3922Z" fill="#E9EDF5"/>
<path d="M69.253 68.4153C68.275 69.2614 68.1659 70.7415 69.0135 71.7219C69.4758 72.2575 70.1304 72.5329 70.7865 72.5329C71.3298 72.5329 71.8745 72.3452 72.3178 71.9622C73.2981 71.1169 73.4057 69.636 72.5604 68.6579C71.7143 67.6776 70.2342 67.57 69.253 68.4153Z" fill="white"/>
<path d="M81.1762 52.8888C79.9341 52.5218 78.631 53.2306 78.264 54.4726C77.8963 55.7132 78.6058 57.0178 79.8479 57.3848C80.0684 57.4496 80.2935 57.4809 80.5117 57.4809C81.5256 57.4809 82.4572 56.821 82.76 55.8009C83.1255 54.5588 82.416 53.2565 81.1762 52.8888Z" fill="#E9EDF5"/>
<path d="M64.2025 15.0418C63.0268 14.5024 61.6359 15.0196 61.0973 16.1961C60.5579 17.3733 61.076 18.7642 62.2516 19.3028C62.5683 19.4477 62.9001 19.5164 63.2259 19.5164C64.1147 19.5164 64.9647 19.0083 65.3591 18.1492C65.8977 16.9712 65.3805 15.5804 64.2025 15.0418Z" fill="#E9EDF5"/>
<path d="M81.8106 43.7656C80.5151 43.7656 79.4668 44.817 79.4668 46.1094V46.1429V46.1742C79.463 47.4674 80.5097 48.5203 81.8045 48.5218H81.8106C83.1015 48.5218 84.1505 47.4766 84.1543 46.1841C84.1543 46.1742 84.1543 46.1666 84.1543 46.1567C84.1543 46.1407 84.1543 46.1254 84.1543 46.1094C84.1543 44.817 83.1053 43.7656 81.8106 43.7656Z" fill="#E9EDF5"/>
<path d="M54.1488 75.2866C52.8663 75.4666 51.9737 76.6522 52.1553 77.9355C52.3193 79.1051 53.3233 79.9512 54.4716 79.9512C54.5807 79.9512 54.6905 79.9428 54.8012 79.9275C56.0829 79.7475 56.9771 78.5619 56.7955 77.2809C56.6162 75.9999 55.4306 75.1073 54.1488 75.2866Z" fill="white"/>
<path d="M62.1958 72.9429C61.0155 73.4784 60.496 74.8685 61.0331 76.0465C61.426 76.9101 62.2774 77.4198 63.1685 77.4198C63.492 77.4198 63.8224 77.3534 64.1367 77.2085C65.3147 76.6736 65.8358 75.2828 65.2987 74.1056C64.7615 72.9276 63.373 72.4058 62.1958 72.9429Z" fill="white"/>
<path d="M45.7555 75.2734C44.4745 75.088 43.2866 75.9791 43.1012 77.2601C42.9174 78.5396 43.8062 79.729 45.0879 79.9121C45.2008 79.9296 45.3145 79.938 45.4251 79.938C46.5718 79.938 47.5736 79.0958 47.7422 77.9277C47.9253 76.6467 47.0365 75.4596 45.7555 75.2734Z" fill="white"/>
<path d="M54.8745 12.3009C53.5928 12.1193 52.4056 13.0081 52.2218 14.2891C52.0402 15.5701 52.929 16.758 54.2123 16.9411C54.3237 16.9571 54.4351 16.9647 54.5465 16.9647C55.6924 16.9647 56.6964 16.1232 56.8627 14.9529C57.0458 13.6719 56.1555 12.4847 54.8745 12.3009Z" fill="#E9EDF5"/>
<path d="M73.1232 81.9277H33.3153C28.9795 81.9277 25.4639 78.4121 25.4639 74.0755V26.401C25.4639 21.2458 29.6432 17.0664 34.7992 17.0664H73.1232V81.9277Z" fill="#4A7AFF"/>
<path d="M49.9209 17.0664H73.1234V81.9277H49.9209V17.0664Z" fill="#0053BF"/>
<path d="M73.1232 83.9952H34.9831C29.7256 83.9952 25.4639 79.7334 25.4639 74.476C25.4639 69.2186 29.7256 64.9561 34.9831 64.9561H73.1232V83.9952Z" fill="#0053BF"/>
<path d="M49.9209 64.9561H73.1234V83.9952H49.9209V64.9561Z" fill="#1B3B6B"/>
<path d="M73.1231 79.6776H35.1722C32.299 79.6776 29.9697 77.3484 29.9697 74.4759C29.9697 71.6027 32.299 69.2734 35.1722 69.2734H73.1231V79.6776Z" fill="white"/>
<path d="M49.9209 69.2734H73.1234V79.6776H49.9209V69.2734Z" fill="#E9EDF5"/>
<path d="M34.6602 25.2334H67.6107V36.6599H34.6602V25.2334Z" fill="#FFCE00"/>
<path d="M49.9209 25.2334H67.6104V36.6599H49.9209V25.2334Z" fill="#FDBA12"/>
<path d="M66.8791 83.9947L61.5148 80.5302L56.1514 83.9947V71.4375H66.8791V83.9947Z" fill="#FE6A16"/>
<path d="M61.5117 71.4375V80.5333L61.5155 80.5302L66.8798 83.9947V71.4375H61.5117Z" fill="#F24500"/>
</svg>
