<svg width="24" height="24" viewBox="0 0 24 24" fill="none" xmlns="http://www.w3.org/2000/svg">
<path fill-rule="evenodd" clip-rule="evenodd" d="M12 0C18.6274 0 24 5.37258 24 12C24 18.6274 18.6274 24 12 24C5.37258 24 0 18.6274 0 12C0 5.37258 5.37258 0 12 0ZM16.3708 13.6876L18.1414 15.1594C19.5233 16.7464 15.7662 21.695 9.13913 15.065L9.03856 14.9639L8.938 14.8639C2.30806 8.23169 7.25777 4.47689 8.84365 5.85881L10.3126 7.62943C11.4232 8.74006 8.98137 10.7029 8.88924 10.777C8.88759 10.7783 8.8867 10.779 8.88659 10.7791C8.73009 10.9362 9.73743 12.1989 10.7696 13.2306C11.8018 14.2622 13.064 15.2701 13.2211 15.1136C13.2212 15.1135 13.2223 15.1121 13.2245 15.1094C13.3169 14.995 15.2663 12.5831 16.3708 13.6876Z" fill="#F1F1BB"/>
</svg>
