<svg width="52" height="52" viewBox="0 0 52 52" fill="none" xmlns="http://www.w3.org/2000/svg">
<path d="M26 52C40.3594 52 52 40.3594 52 26C52 11.6406 40.3594 0 26 0C11.6406 0 0 11.6406 0 26C0 40.3594 11.6406 52 26 52Z" fill="#7584F2"/>
<path d="M51.9996 26.0002C51.9996 24.4259 51.8596 22.8845 51.5916 21.3874L43.0352 12.8311L8.96387 39.1693L21.3868 51.5922C22.8839 51.8602 24.4253 52.0002 25.9996 52.0002C40.359 52.0002 51.9996 40.3596 51.9996 26.0002Z" fill="#4253CE"/>
<path d="M8.96387 12.8311H43.0352V39.1693H8.96387V12.8311Z" fill="#E9EDF5"/>
<path d="M26.0117 12.8311H43.0352V39.1693H26.0117V12.8311Z" fill="#CDD2E1"/>
<path d="M12.6113 16.6421H39.388V35.358H12.6113V16.6421Z" fill="#FDFDFD"/>
<path d="M26.0117 16.6421H39.3878V35.358H26.0117V16.6421Z" fill="#E9EDF5"/>
<path d="M36.2761 44.3109L32.91 42.094L29.5439 44.3109V34.0269H36.2761V44.3109Z" fill="#FF6C52"/>
<path d="M32.9053 34.0269L32.9109 42.094L36.2769 44.3109V34.0269H32.9053Z" fill="#FF432E"/>
<path d="M15.4971 19.2979H24.3184V22.3447H15.4971V19.2979Z" fill="#CDD2E1"/>
<path d="M15.4971 29.6553H24.3184V32.7021H15.4971V29.6553Z" fill="#CDD2E1"/>
<path d="M15.4971 24.4766H37.1367V27.5234H15.4971V24.4766Z" fill="#CDD2E1"/>
<path d="M26.0117 24.4766H37.1363V27.5234H26.0117V24.4766Z" fill="#AFB4C8"/>
<path d="M32.9102 38.5391C35.7293 38.5391 38.0147 36.2538 38.0147 33.4346C38.0147 30.6155 35.7293 28.3301 32.9102 28.3301C30.091 28.3301 27.8057 30.6155 27.8057 33.4346C27.8057 36.2538 30.091 38.5391 32.9102 38.5391Z" fill="#FFCE00"/>
<path d="M32.9109 28.3301C32.909 28.3301 32.9072 28.3302 32.9053 28.3302V38.5388C32.9071 38.5388 32.9089 38.5389 32.9109 38.5389C35.73 38.5389 38.0153 36.2536 38.0153 33.4344C38.0153 30.6154 35.7299 28.3301 32.9109 28.3301Z" fill="#FDBA12"/>
</svg>
