<svg width="60" height="60" viewBox="0 0 60 60" fill="none" xmlns="http://www.w3.org/2000/svg">
<mask id="mask0_1_1265" style="mask-type:alpha" maskUnits="userSpaceOnUse" x="0" y="0" width="60" height="60">
<rect width="60" height="60" fill="#D9D9D9"/>
</mask>
<g mask="url(#mask0_1_1265)">
<path d="M54.4962 2L50.0781 51.4942L30.2184 57L10.4134 51.502L6 2H54.4962Z" fill="#264DE4"/>
<path d="M46.2956 48.343L50.0712 6.04785H30.248V52.792L46.2956 48.343Z" fill="#2965F1"/>
<path d="M16.1172 24.4072L16.6613 30.4784H30.2476V24.4072H16.1172Z" fill="#EBEBEB"/>
<path d="M30.2472 12.1191H30.2262H15.0234L15.5753 18.1904H30.2472V12.1191Z" fill="#EBEBEB"/>
<path d="M30.2485 46.491V40.1744L30.2219 40.1815L23.4604 38.3557L23.0281 33.5137H19.7426H16.9336L17.7842 43.0464L30.2206 46.4988L30.2485 46.491Z" fill="#EBEBEB"/>
<path d="M37.7026 30.4786L36.9979 38.3525L30.2266 40.1801V46.4965L42.6729 43.047L42.7642 42.0213L44.1909 26.0377L44.339 24.4074L45.4351 12.1191H30.2266V18.1904H38.7815L38.2291 24.4074H30.2266V30.4786H37.7026Z" fill="white"/>
</g>
</svg>
