<svg width="50" height="52" viewBox="0 0 50 52" fill="none" xmlns="http://www.w3.org/2000/svg">
<path d="M29.2808 0.387695L19.7073 0.540648C8.44919 2.92259 0 12.9153 0 24.8828C0 38.6252 11.1404 49.7656 24.8827 49.7656C38.625 49.7656 49.7654 38.6252 49.7654 24.8828C49.7654 12.6413 40.9254 2.46445 29.2808 0.387695Z" fill="#746BF9"/>
<path d="M7.5293 38.9497V48.9297C7.5293 50.6184 8.91095 52 10.5995 52H39.1656C40.8543 52 42.2358 50.6183 42.2358 48.9297V38.9497H7.5293Z" fill="#5F5F9B"/>
<path d="M15.724 49.1525L15.3556 38.9497H7.5293V48.9297C7.5293 50.6184 8.91085 52 10.5995 52H15.724C14.2351 50.5112 15.724 49.1525 15.724 49.1525Z" fill="#47477F"/>
<path d="M39.3885 38.9497H10.377V48.2697C10.377 48.7573 10.7721 49.1525 11.2597 49.1525H38.5056C38.9932 49.1525 39.3885 48.7572 39.3885 48.2697V38.9497Z" fill="#3B3868"/>
<path d="M14.4468 47.8752V42.5165C14.4468 42.0909 14.6585 41.7131 14.981 41.4807V38.9497H10.377V48.2697C10.377 48.7573 10.7721 49.1525 11.2597 49.1525H15.724C15.0215 49.1524 14.4468 48.5776 14.4468 47.8752Z" fill="#2D2D59"/>
<path d="M26.5281 21.1592C25.823 21.1592 25.2461 20.5823 25.2461 19.8771C25.2461 20.5823 24.6692 21.1592 23.9641 21.1592C23.283 21.1592 22.7216 20.6209 22.6842 19.9486V19.8476C22.6842 20.5123 22.1899 21.0889 21.5283 21.1531C20.7672 21.2269 20.1201 20.6239 20.1201 19.8771C20.1201 19.5463 20.1201 10.696 20.1201 10.4431V7.26318H28.8364V8.23016C28.8364 8.67978 29.0022 9.11132 29.294 9.45328C29.9738 10.25 30.3719 11.2785 30.3719 12.3767V19.877C30.3719 20.6237 29.725 21.2267 28.9638 21.153C28.3022 21.0888 27.8079 20.5122 27.8079 19.8475V19.9485C27.7705 20.6209 27.2092 21.1592 26.5281 21.1592Z" fill="#FCAD6D"/>
<path d="M34.94 24.5707C34.5652 24.5707 34.2368 24.2965 34.18 23.9147C33.8858 21.9416 32.863 20.1607 31.3001 18.9001C31.1084 18.7455 30.8964 18.6094 30.6699 18.4954C30.2903 18.3045 30.1374 17.842 30.3283 17.4623C30.5194 17.0828 30.9818 16.9299 31.3614 17.1208C31.6852 17.2837 31.9896 17.4793 32.266 17.7023C34.1305 19.206 35.3507 21.3317 35.702 23.6877C35.7646 24.108 35.4747 24.4994 35.0545 24.5621C35.0159 24.568 34.9776 24.5707 34.94 24.5707Z" fill="#E9EFFF"/>
<path d="M33.966 19.4817C33.4828 18.8248 32.9145 18.2253 32.266 17.7023C31.9896 17.4794 31.6852 17.2837 31.3614 17.1208C30.9818 16.9299 30.5194 17.0828 30.3283 17.4623C30.1374 17.842 30.2903 18.3044 30.6699 18.4954C30.8964 18.6094 31.1084 18.7455 31.3001 18.9001C31.8729 19.3621 32.3723 19.8945 32.7907 20.48C32.6993 19.81 33.3336 19.2867 33.966 19.4817Z" fill="#BEC9F7"/>
<path d="M14.825 24.5706C14.7873 24.5706 14.7491 24.5678 14.7107 24.5621C14.2904 24.4994 14.0005 24.108 14.0632 23.6877C14.4144 21.3316 15.6346 19.206 17.4991 17.7023C17.7755 17.4793 18.0799 17.2837 18.4037 17.1209C18.7832 16.9297 19.2457 17.0829 19.4367 17.4625C19.6276 17.8422 19.4747 18.3046 19.095 18.4955C18.8686 18.6094 18.6566 18.7456 18.4649 18.9001C16.9019 20.1606 15.8791 21.9415 15.585 23.9147C15.5281 24.2964 15.1998 24.5706 14.825 24.5706Z" fill="#BEC9F7"/>
<path d="M30.4211 18.1182H19.3437C18.6804 18.1182 18.1371 17.6075 18.0834 16.958H18.0781V18.8494C18.0781 19.5484 18.6447 20.115 19.3437 20.115H30.4211C31.1201 20.115 31.6867 19.5484 31.6867 18.8494V16.958H31.6814C31.6276 17.6075 31.0844 18.1182 30.4211 18.1182Z" fill="#47477F"/>
<path d="M30.4211 18.2235H19.3437C18.6447 18.2235 18.0781 17.6569 18.0781 16.958C18.0781 16.259 18.6447 15.6924 19.3437 15.6924H30.4211C31.1201 15.6924 31.6867 16.259 31.6867 16.958C31.6867 17.6569 31.1201 18.2235 30.4211 18.2235Z" fill="#5F5F9B"/>
<path d="M23.9646 21.2708C24.6697 21.2708 25.2467 20.694 25.2467 19.9888V16.3797C25.2467 15.6745 24.6698 15.0977 23.9646 15.0977C23.2595 15.0977 22.6826 15.6745 22.6826 16.3797V19.9888C22.6826 20.6939 23.2595 21.2708 23.9646 21.2708Z" fill="#FCAD6D"/>
<path d="M26.5281 21.2708C27.2333 21.2708 27.8101 20.694 27.8101 19.9888V16.3797C27.8101 15.6745 27.2333 15.0977 26.5281 15.0977C25.8231 15.0977 25.2461 15.6745 25.2461 16.3797V19.9888C25.2461 20.6939 25.823 21.2708 26.5281 21.2708Z" fill="#FCAD6D"/>
<path d="M21.4021 21.2708C22.1073 21.2708 22.6842 20.694 22.6842 19.9888V16.3797C22.6842 15.6745 22.1073 15.0977 21.4021 15.0977C20.697 15.0977 20.1201 15.6745 20.1201 16.3797V19.9888C20.1201 20.6939 20.697 21.2708 21.4021 21.2708Z" fill="#FCAD6D"/>
<path d="M20.1201 16.3797V18.4635C20.3225 17.953 20.8218 17.5894 21.4021 17.5894C21.9825 17.5894 22.4818 17.9531 22.6842 18.4635V16.3797C22.6842 15.6745 22.1073 15.0977 21.4021 15.0977C20.697 15.0977 20.1201 15.6746 20.1201 16.3797Z" fill="#FD995B"/>
<path d="M29.0906 21.2708C29.7958 21.2708 30.3726 20.694 30.3726 19.9888V16.3797C30.3726 15.6745 29.7958 15.0977 29.0906 15.0977C28.3855 15.0977 27.8086 15.6745 27.8086 16.3797V19.9888C27.8086 20.6939 28.3855 21.2708 29.0906 21.2708Z" fill="#FCAD6D"/>
<path d="M22.6826 16.3797V18.4635C22.885 17.953 23.3843 17.5894 23.9646 17.5894C24.545 17.5894 25.0442 17.9531 25.2467 18.4635V16.3797C25.2467 15.6745 24.6698 15.0977 23.9646 15.0977C23.2595 15.0977 22.6826 15.6746 22.6826 16.3797Z" fill="#FD995B"/>
<path d="M25.2461 16.3797V18.4635C25.4485 17.953 25.9478 17.5894 26.5281 17.5894C27.1084 17.5894 27.6077 17.9531 27.8101 18.4635V16.3797C27.8101 15.6745 27.2333 15.0977 26.5281 15.0977C25.823 15.0977 25.2461 15.6746 25.2461 16.3797Z" fill="#FD995B"/>
<path d="M27.8086 16.3797V18.4635C28.011 17.953 28.5103 17.5894 29.0906 17.5894C29.6709 17.5894 30.1702 17.953 30.3726 18.4635V16.3797C30.3726 15.6745 29.7958 15.0977 29.0906 15.0977C28.3855 15.0977 27.8086 15.6746 27.8086 16.3797Z" fill="#FD995B"/>
<path d="M22.6979 17.7578L19.037 16.6214C18.631 16.4954 18.3061 16.1895 18.1563 15.7918C17.7544 14.7249 17.3686 12.4106 19.5491 9.22159C19.8847 8.73064 20.0671 8.15082 20.0671 7.55607V7.26367H23.8181V9.7747C23.8181 13.3793 20.9218 14.3825 20.9218 14.3825C23.9488 14.9537 23.9281 16.4904 23.7563 17.1713C23.6427 17.6216 23.1601 17.9013 22.6979 17.7578Z" fill="#FCAD6D"/>
<path d="M19.6357 16.8062L21.1005 17.2609C21.9271 15.8342 23.1404 16.5014 23.7916 17.0282C23.9223 16.2946 23.7562 14.9168 20.9262 14.3828L20.5312 14.5196C21.5057 16.2506 19.6357 16.8062 19.6357 16.8062Z" fill="#FD995B"/>
<path d="M23.7614 17.1716C23.774 17.1218 23.7857 17.0674 23.7954 17.0092C23.154 16.4744 21.9116 15.7522 21.0811 17.2546L22.7029 17.758C23.1652 17.9016 23.6478 17.6219 23.7614 17.1716Z" fill="#FCD7C3"/>
<path d="M23.6525 11.1401C23.442 11.0883 23.2256 11.2062 23.158 11.4122C22.5232 13.3469 20.8783 13.9566 20.789 13.9884C20.5715 14.0644 20.4565 14.3021 20.5319 14.5199C20.6075 14.738 20.8456 14.8536 21.0638 14.7781C21.0969 14.7666 21.8843 14.4882 22.6659 13.7311C23.1233 13.2881 23.6361 12.62 23.9488 11.6754C24.0252 11.445 23.8882 11.1981 23.6525 11.1401Z" fill="#FD995B"/>
<path d="M26.9716 8.88747C25.855 8.89326 25.2129 9.22882 24.8563 9.54184C24.578 9.786 24.1748 9.82236 23.861 9.62593C22.9628 9.06368 21.1368 8.3824 19.0838 10.2292C18.9971 10.3071 18.8885 10.3927 18.8027 10.4605C19.0095 10.0637 19.2552 9.65061 19.5489 9.22111C19.8846 8.73015 20.067 8.15033 20.067 7.55558V7.26318H28.8367V8.23016C28.8367 8.67978 29.0025 9.11132 29.2942 9.45328C29.5589 9.76345 29.7802 10.1092 29.9527 10.4801C29.5606 9.95632 28.5614 8.87925 26.9716 8.88747Z" fill="#FD995B"/>
<path d="M29.2805 0.387563C27.853 0.132945 26.3832 0 24.8825 0C23.1076 0 21.3767 0.187281 19.707 0.540516V3.62659H29.2805V0.387563Z" fill="#47477F"/>
<path d="M29.2621 3.15674H19.7256C19.4672 3.15674 19.2559 3.36809 19.2559 3.62646V6.92268C19.2559 7.18105 19.4672 7.3924 19.7256 7.3924H29.2621C29.5205 7.3924 29.7318 7.18105 29.7318 6.92268V3.62657C29.7319 3.36819 29.5205 3.15674 29.2621 3.15674Z" fill="#E9EFFF"/>
<path d="M24.4938 6.92268V3.62646C24.4938 3.36809 24.7052 3.15674 24.9636 3.15674H19.7256C19.4672 3.15674 19.2559 3.36809 19.2559 3.62646V6.92268C19.2559 7.18105 19.4672 7.3924 19.7256 7.3924H24.9636C24.7053 7.3924 24.4938 7.18105 24.4938 6.92268Z" fill="#BEC8F7"/>
<path d="M42.252 39.0551H7.51385C7.01 39.0551 6.59766 38.6429 6.59766 38.1389V26.0354C6.59766 24.8066 7.60302 23.8013 8.83183 23.8013H40.934C42.1628 23.8013 43.1682 24.8066 43.1682 26.0354V38.1389C43.1682 38.6429 42.7559 39.0551 42.252 39.0551Z" fill="#47477F"/>
<path d="M14.9813 30.3698C14.4486 30.2182 14.0551 29.727 14.0551 29.1474V25.0729C14.0551 24.3736 14.6273 23.8013 15.3268 23.8013H8.83183C7.60302 23.8013 6.59766 24.8066 6.59766 26.0354V38.1389C6.59766 38.6428 7.0099 39.0551 7.51385 39.0551H14.9812V30.3698H14.9813Z" fill="#3B3868"/>
<path d="M13.3164 36.3984V40.3007C13.3164 41.019 13.8988 41.6014 14.6171 41.6014C15.3355 41.6014 15.9178 41.019 15.9178 40.3007V36.3984H13.3164Z" fill="#7272AF"/>
<path d="M15.9178 33.8325H13.3164V30.4409C13.3164 30.277 13.4493 30.144 13.6133 30.144H15.6211C15.785 30.144 15.9179 30.277 15.9179 30.4409V33.8325H15.9178Z" fill="#5F5F9B"/>
<path d="M33.8477 36.3984V40.3007C33.8477 41.019 34.43 41.6014 35.1484 41.6014C35.8667 41.6014 36.4491 41.019 36.4491 40.3007V36.3984H33.8477Z" fill="#7272AF"/>
<path d="M13.3164 36.3989V39.8663C13.3164 39.1479 13.8988 38.5656 14.6171 38.5656C15.3355 38.5656 15.9178 39.1479 15.9178 39.8663V36.3989H13.3164Z" fill="#5F5F9B"/>
<path d="M33.8467 36.3989V39.8663C33.8467 39.1479 34.429 38.5656 35.1474 38.5656C35.8657 38.5656 36.4481 39.1479 36.4481 39.8663V36.3989H33.8467Z" fill="#5F5F9B"/>
<path d="M36.4481 33.8325H33.8467V30.4409C33.8467 30.277 33.9796 30.144 34.1435 30.144H36.1513C36.3153 30.144 36.4482 30.277 36.4482 30.4409V33.8325H36.4481Z" fill="#5F5F9B"/>
<path d="M18.3566 26.8716H31.4086C31.9082 26.8716 32.317 26.4628 32.317 25.9632V23.8013H17.4482V25.9632C17.4482 26.4628 17.857 26.8716 18.3566 26.8716Z" fill="#3B3868"/>
<path d="M27.9426 23.8013V25.9632C27.9426 26.4628 27.5339 26.8716 27.0342 26.8716H31.4084C31.908 26.8716 32.3168 26.4628 32.3168 25.9632V23.8013H27.9426Z" fill="#2D2D59"/>
<path d="M31.7158 35.1155C31.7158 33.9838 32.6366 33.063 33.7683 33.063H36.528C37.6597 33.063 38.5804 33.9838 38.5804 35.1155C38.5804 36.2472 37.6597 37.1679 36.528 37.1679H33.7683C32.6366 37.1679 31.7158 36.2472 31.7158 35.1155ZM33.7683 34.6017C33.4898 34.6017 33.2545 34.837 33.2545 35.1155C33.2545 35.394 33.4898 35.6293 33.7683 35.6293H36.528C36.8064 35.6293 37.0418 35.394 37.0418 35.1155C37.0418 34.837 36.8064 34.6017 36.528 34.6017H33.7683Z" fill="#BEC8F7"/>
<path d="M35.2078 35.6293H36.501C36.7419 35.6293 36.965 35.4746 37.0251 35.2412C37.1098 34.9116 36.847 34.6017 36.5273 34.6017H35.2078C34.7829 34.6017 34.4385 34.2573 34.4385 33.8323C34.4385 33.4074 34.783 33.063 35.2078 33.063H36.4768C37.5883 33.063 38.5363 33.9257 38.5783 35.0363C38.6224 36.204 37.6852 37.1679 36.5273 37.1679H35.2078C34.7829 37.1679 34.4385 36.8234 34.4385 36.3986C34.4385 35.9738 34.783 35.6293 35.2078 35.6293Z" fill="#E9EFFF"/>
<path d="M11.1855 35.1155C11.1855 33.9838 12.1063 33.063 13.238 33.063H15.9977C17.1294 33.063 18.0502 33.9838 18.0502 35.1155C18.0502 36.2472 17.1294 37.1679 15.9977 37.1679H13.238C12.1063 37.1679 11.1855 36.2472 11.1855 35.1155ZM13.2381 34.6017C12.9596 34.6017 12.7243 34.837 12.7243 35.1155C12.7243 35.394 12.9596 35.6293 13.2381 35.6293H15.9978C16.2763 35.6293 16.5116 35.394 16.5116 35.1155C16.5116 34.837 16.2763 34.6017 15.9978 34.6017H13.2381Z" fill="#BEC8F7"/>
<path d="M14.6776 35.6293H15.9708C16.2117 35.6293 16.4349 35.4746 16.4949 35.2412C16.5796 34.9116 16.3169 34.6017 15.9971 34.6017H14.6776C14.2527 34.6017 13.9083 34.2573 13.9083 33.8323C13.9083 33.4074 14.2528 33.063 14.6776 33.063H15.9467C17.0582 33.063 18.006 33.9257 18.0481 35.0363C18.0923 36.204 17.1551 37.1679 15.997 37.1679H14.6775C14.2526 37.1679 13.9082 36.8234 13.9082 36.3986C13.9083 35.9738 14.2527 35.6293 14.6776 35.6293Z" fill="#E9EFFF"/>
</svg>
