<svg width="100" height="100" viewBox="0 0 100 100" fill="none" xmlns="http://www.w3.org/2000/svg">
<circle cx="50" cy="50" r="50" fill="#FFA5A5"/>
<path d="M51.6948 83.9385C33.9762 85.0533 20.0757 70.7927 16.1754 56.0724C15.8017 54.6619 11.9726 39.291 20.5248 26.5322C22.0869 24.2017 26.3119 18.0855 33.9351 15.8785C41.846 13.5883 52.2111 15.8567 54.5944 21.7404C56.2695 25.8763 53.1128 29.6063 54.836 31.324C57.7949 34.2735 67.0904 23.2654 74.5287 25.7664C81.6677 28.167 85.276 42.3995 83.5898 53.3757C81.3445 67.9905 68.7859 82.8633 51.6948 83.9385Z" fill="#E6EDFF"/>
<mask id="mask0_1_6523" style="mask-type:luminance" maskUnits="userSpaceOnUse" x="15" y="15" width="69" height="69">
<path d="M51.6948 83.9385C33.9762 85.0533 20.0757 70.7927 16.1754 56.0724C15.8017 54.6619 11.9726 39.291 20.5248 26.5322C22.0869 24.2017 26.3119 18.0855 33.9351 15.8785C41.846 13.5883 52.2111 15.8567 54.5944 21.7404C56.2695 25.8763 53.1128 29.6063 54.836 31.324C57.7949 34.2735 67.0904 23.2654 74.5287 25.7664C81.6677 28.167 85.276 42.3995 83.5898 53.3757C81.3445 67.9905 68.7859 82.8633 51.6948 83.9385Z" fill="white"/>
</mask>
<g mask="url(#mask0_1_6523)">
<path d="M15.0293 48.2221L32.2649 48.1041C43.7534 48.0451 55.2479 47.8794 66.7359 47.9567C72.481 48.0105 78.2263 48.0531 83.9715 48.2221C83.9877 48.2225 84.0005 48.2361 84.0001 48.2524C83.9996 48.2681 83.9869 48.2806 83.9715 48.281C78.2263 48.45 72.481 48.4926 66.7359 48.5464C55.2479 48.6237 43.7534 48.458 32.2649 48.399L15.0293 48.281C15.0131 48.2809 15 48.2676 15 48.2514C15.0001 48.2352 15.0133 48.2222 15.0293 48.2221Z" fill="white"/>
<path d="M15.0293 49.8031L32.2649 49.6852C43.7534 49.6262 55.2479 49.4605 66.7359 49.5377C72.481 49.5915 78.2263 49.6341 83.9715 49.8031C83.9877 49.8036 84.0005 49.8171 84.0001 49.8335C83.9996 49.8491 83.9869 49.8616 83.9715 49.8621C78.2263 50.031 72.481 50.0737 66.7359 50.1275C55.2479 50.2047 43.7534 50.039 32.2649 49.98L15.0293 49.8621C15.0131 49.8619 15 49.8487 15 49.8324C15.0001 49.8162 15.0133 49.8033 15.0293 49.8031Z" fill="white"/>
<path d="M15.0293 51.3842L32.2649 51.2662C43.7534 51.2072 55.2479 51.0415 66.7359 51.1188C72.481 51.1726 78.2263 51.2152 83.9715 51.3842C83.9877 51.3846 84.0005 51.3982 84.0001 51.4145C83.9996 51.4302 83.9869 51.4427 83.9715 51.4431C78.2263 51.6121 72.481 51.6547 66.7359 51.7085C55.2479 51.7858 43.7534 51.6201 32.2649 51.5611L15.0293 51.4431C15.0131 51.443 15 51.4297 15 51.4135C15.0001 51.3973 15.0133 51.3842 15.0293 51.3842Z" fill="white"/>
<path d="M15.0293 52.9642L32.2649 52.8463C43.7534 52.7873 55.2479 52.6216 66.7359 52.6989C72.481 52.7527 78.2263 52.7953 83.9715 52.9642C83.9877 52.9647 84.0005 52.9782 84.0001 52.9946C83.9996 53.0102 83.9869 53.0228 83.9715 53.0232C78.2263 53.1922 72.481 53.2348 66.7359 53.2886C55.2479 53.3659 43.7534 53.2001 32.2649 53.1412L15.0293 53.0232C15.0131 53.0231 15 53.0098 15 52.9936C15.0001 52.9775 15.0133 52.9644 15.0293 52.9642Z" fill="white"/>
<path d="M15.0293 54.5453L32.2649 54.4273C43.7534 54.3684 55.2479 54.2027 66.7359 54.2799C72.481 54.3337 78.2263 54.3763 83.9715 54.5453C83.9877 54.5457 84.0005 54.5593 84.0001 54.5757C83.9996 54.5913 83.9869 54.6038 83.9715 54.6043C78.2263 54.7732 72.481 54.8158 66.7359 54.8697C55.2479 54.9469 43.7534 54.7812 32.2649 54.7222L15.0293 54.6043C15.0131 54.6041 15 54.5909 15 54.5746C15.0001 54.5584 15.0133 54.5454 15.0293 54.5453Z" fill="white"/>
<path d="M15.0293 56.1263L32.2649 56.0084C43.7534 55.9494 55.2479 55.7837 66.7359 55.861C72.481 55.9148 78.2263 55.9574 83.9715 56.1263C83.9877 56.1268 84.0005 56.1404 84.0001 56.1567C83.9996 56.1723 83.9869 56.1849 83.9715 56.1853C78.2263 56.3543 72.481 56.3969 66.7359 56.4507C55.2479 56.528 43.7534 56.3622 32.2649 56.3033L15.0293 56.1853C15.0131 56.1852 15 56.1719 15 56.1557C15.0001 56.1395 15.0133 56.1265 15.0293 56.1263Z" fill="white"/>
<path d="M15.0293 57.7074L32.2649 57.5895C43.7534 57.5305 55.2479 57.3648 66.7359 57.442C72.481 57.4958 78.2263 57.5384 83.9715 57.7074C83.9877 57.7079 84.0005 57.7214 84.0001 57.7378C83.9996 57.7534 83.9869 57.7659 83.9715 57.7664C78.2263 57.9353 72.481 57.9779 66.7359 58.0318C55.2479 58.109 43.7534 57.9433 32.2649 57.8843L15.0293 57.7664C15.0131 57.7662 15 57.753 15 57.7367C15.0001 57.7207 15.0133 57.7076 15.0293 57.7074Z" fill="white"/>
<path d="M15.0293 59.2885L32.2649 59.1705C43.7534 59.1115 55.2479 58.9458 66.7359 59.0231C72.481 59.0769 78.2263 59.1195 83.9715 59.2885C83.9877 59.2889 84.0005 59.3025 84.0001 59.3188C83.9996 59.3345 83.9869 59.347 83.9715 59.3474C78.2263 59.5164 72.481 59.559 66.7359 59.6128C55.2479 59.6901 43.7534 59.5244 32.2649 59.4654L15.0293 59.3474C15.0131 59.3473 15 59.334 15 59.3178C15.0001 59.3016 15.0133 59.2886 15.0293 59.2885Z" fill="white"/>
<path d="M15.0293 60.8695L32.2649 60.7516C43.7534 60.6926 55.2479 60.5269 66.7359 60.6041C72.481 60.6579 78.2263 60.7006 83.9715 60.8695C83.9877 60.87 84.0005 60.8835 84.0001 60.8999C83.9996 60.9155 83.9869 60.928 83.9715 60.9285C78.2263 61.0974 72.481 61.1401 66.7359 61.1939C55.2479 61.2711 43.7534 61.1054 32.2649 61.0464L15.0293 60.9285C15.0131 60.9283 15 60.9151 15 60.8989C15.0001 60.8826 15.0133 60.8697 15.0293 60.8695Z" fill="white"/>
<path d="M15.0293 62.4506L32.2649 62.3326C43.7534 62.2736 55.2479 62.1079 66.7359 62.1852C72.481 62.239 78.2263 62.2816 83.9715 62.4506C83.9877 62.451 84.0005 62.4646 84.0001 62.4809C83.9996 62.4966 83.9869 62.5091 83.9715 62.5095C78.2263 62.6785 72.481 62.7211 66.7359 62.7749C55.2479 62.8522 43.7534 62.6865 32.2649 62.6275L15.0293 62.5095C15.0131 62.5094 15 62.4961 15 62.4799C15.0001 62.4637 15.0133 62.4506 15.0293 62.4506Z" fill="white"/>
<path d="M15.0293 64.0316L32.2649 63.9137C43.7534 63.8547 55.2479 63.689 66.7359 63.7662C72.481 63.8201 78.2263 63.8627 83.9715 64.0316C83.9877 64.0321 84.0005 64.0456 84.0001 64.062C83.9996 64.0776 83.9869 64.0902 83.9715 64.0906C78.2263 64.2596 72.481 64.3022 66.7359 64.356C55.2479 64.4332 43.7534 64.2675 32.2649 64.2085L15.0293 64.0906C15.0131 64.0905 15 64.0772 15 64.061C15.0001 64.0447 15.0133 64.0318 15.0293 64.0316Z" fill="white"/>
<path d="M15.0293 65.6117L32.2649 65.4938C43.7534 65.4348 55.2479 65.2691 66.7359 65.3463C72.481 65.4001 78.2263 65.4427 83.9715 65.6117C83.9877 65.6121 84.0005 65.6257 84.0001 65.6421C83.9996 65.6577 83.9869 65.6702 83.9715 65.6707C78.2263 65.8396 72.481 65.8822 66.7359 65.9361C55.2479 66.0133 43.7534 65.8476 32.2649 65.7886L15.0293 65.6707C15.0131 65.6705 15 65.6573 15 65.641C15.0001 65.6248 15.0133 65.6118 15.0293 65.6117Z" fill="white"/>
<path d="M15.0293 67.1928L32.2649 67.0748C43.7534 67.0158 55.2479 66.8501 66.7359 66.9274C72.481 66.9812 78.2263 67.0238 83.9715 67.1928C83.9877 67.1932 84.0005 67.2068 84.0001 67.2231C83.9996 67.2388 83.9869 67.2513 83.9715 67.2517C78.2263 67.4207 72.481 67.4633 66.7359 67.5171C55.2479 67.5944 43.7534 67.4287 32.2649 67.3697L15.0293 67.2517C15.0131 67.2516 15 67.2383 15 67.2221C15.0001 67.2059 15.0133 67.1928 15.0293 67.1928Z" fill="white"/>
<path d="M15.0293 68.7738L32.2649 68.6559C43.7534 68.5969 55.2479 68.4312 66.7359 68.5084C72.481 68.5622 78.2263 68.6049 83.9715 68.7738C83.9877 68.7743 84.0005 68.7878 84.0001 68.8042C83.9996 68.8198 83.9869 68.8323 83.9715 68.8328C78.2263 69.0017 72.481 69.0444 66.7359 69.0982C55.2479 69.1754 43.7534 69.0097 32.2649 68.9507L15.0293 68.8328C15.0131 68.8326 15 68.8194 15 68.8032C15.0001 68.7869 15.0133 68.774 15.0293 68.7738Z" fill="white"/>
<path d="M15.0293 70.3549L32.2649 70.2369C43.7534 70.1779 55.2479 70.0122 66.7359 70.0895C72.481 70.1433 78.2263 70.1859 83.9715 70.3549C83.9877 70.3553 84.0005 70.3689 84.0001 70.3852C83.9996 70.4009 83.9869 70.4134 83.9715 70.4138C78.2263 70.5828 72.481 70.6254 66.7359 70.6792C55.2479 70.7565 43.7534 70.5908 32.2649 70.5318L15.0293 70.4138C15.0131 70.4137 15 70.4004 15 70.3842C15.0001 70.368 15.0133 70.355 15.0293 70.3549Z" fill="white"/>
<path d="M15.0293 71.9359L32.2649 71.818C43.7534 71.759 55.2479 71.5933 66.7359 71.6705C72.481 71.7244 78.2263 71.767 83.9715 71.9359C83.9877 71.9364 84.0005 71.9499 84.0001 71.9663C83.9996 71.9819 83.9869 71.9945 83.9715 71.9949C78.2263 72.1639 72.481 72.2065 66.7359 72.2603C55.2479 72.3375 43.7534 72.1718 32.2649 72.1128L15.0293 71.9949C15.0131 71.9947 15 71.9815 15 71.9653C15.0001 71.949 15.0133 71.9361 15.0293 71.9359Z" fill="white"/>
<path d="M15.0293 73.4428L32.2649 73.3248C43.7534 73.2658 55.2479 73.1001 66.7359 73.1774C72.481 73.2312 78.2263 73.2738 83.9715 73.4428C83.9877 73.4432 84.0005 73.4568 84.0001 73.4731C83.9996 73.4888 83.9869 73.5013 83.9715 73.5017C78.2263 73.6707 72.481 73.7133 66.7359 73.7671C55.2479 73.8444 43.7534 73.6787 32.2649 73.6197L15.0293 73.5017C15.0131 73.5016 15 73.4883 15 73.4721C15.0001 73.4559 15.0133 73.4429 15.0293 73.4428Z" fill="white"/>
<path d="M15.0293 74.9506L32.2649 74.8326C43.7534 74.7736 55.2479 74.6079 66.7359 74.6852C72.481 74.739 78.2263 74.7816 83.9715 74.9506C83.9877 74.951 84.0005 74.9646 84.0001 74.9809C83.9996 74.9966 83.9869 75.0091 83.9715 75.0095C78.2263 75.1785 72.481 75.2211 66.7359 75.2749C55.2479 75.3522 43.7534 75.1865 32.2649 75.1275L15.0293 75.0095C15.0131 75.0094 15 74.9961 15 74.9799C15.0001 74.9637 15.0133 74.9506 15.0293 74.9506Z" fill="white"/>
<path d="M15.0293 76.4574L32.2649 76.3395C43.7534 76.2805 55.2479 76.1148 66.7359 76.192C72.481 76.2458 78.2263 76.2884 83.9715 76.4574C83.9877 76.4578 84.0005 76.4714 84.0001 76.4878C83.9996 76.5034 83.9869 76.5159 83.9715 76.5164C78.2263 76.6853 72.481 76.7279 66.7359 76.7818C55.2479 76.859 43.7534 76.6933 32.2649 76.6343L15.0293 76.5164C15.0131 76.5162 15 76.503 15 76.4867C15.0001 76.4705 15.0133 76.4574 15.0293 76.4574Z" fill="white"/>
<path d="M15.0293 77.9652L32.2649 77.8473C43.7534 77.7883 55.2479 77.6226 66.7359 77.6998C72.481 77.7536 78.2263 77.7963 83.9715 77.9652C83.9877 77.9657 84.0005 77.9792 84.0001 77.9956C83.9996 78.0112 83.9869 78.0238 83.9715 78.0242C78.2263 78.1932 72.481 78.2358 66.7359 78.2896C55.2479 78.3668 43.7534 78.2011 32.2649 78.1421L15.0293 78.0242C15.0131 78.024 15 78.0108 15 77.9946C15.0001 77.9783 15.0133 77.9652 15.0293 77.9652Z" fill="white"/>
<path d="M15.0293 79.473L32.2649 79.3551C43.7534 79.2961 55.2479 79.1304 66.7359 79.2076C72.481 79.2615 78.2263 79.3041 83.9715 79.473C83.9877 79.4735 84.0005 79.487 84.0001 79.5034C83.9996 79.519 83.9869 79.5316 83.9715 79.532C78.2263 79.701 72.481 79.7436 66.7359 79.7974C55.2479 79.8746 43.7534 79.7089 32.2649 79.65L15.0293 79.532C15.0131 79.5319 15 79.5186 15 79.5024C15.0001 79.4862 15.0133 79.473 15.0293 79.473Z" fill="white"/>
<path d="M15.0293 80.8295L32.2649 80.7115C43.7534 80.6526 55.2479 80.4868 66.7359 80.5641C72.481 80.6179 78.2263 80.6605 83.9715 80.8295C83.9877 80.8299 84.0005 80.8435 84.0001 80.8598C83.9996 80.8755 83.9869 80.888 83.9715 80.8884C78.2263 81.0574 72.481 81.1 66.7359 81.1538C55.2479 81.2311 43.7534 81.0654 32.2649 81.0064L15.0293 80.8884C15.0131 80.8883 15 80.875 15 80.8588C15.0001 80.8426 15.0133 80.8296 15.0293 80.8295Z" fill="white"/>
<path d="M15.0293 82.3363L32.2649 82.2184C43.7534 82.1594 55.2479 81.9937 66.7359 82.0709C72.481 82.1247 78.2263 82.1673 83.9715 82.3363C83.9877 82.3368 84.0005 82.3503 84.0001 82.3667C83.9996 82.3823 83.9869 82.3948 83.9715 82.3953C78.2263 82.5642 72.481 82.6069 66.7359 82.6607C60.9908 82.6993 55.2455 82.6335 49.5004 82.6017L32.2649 82.5132L15.0293 82.3953C15.0131 82.3951 15 82.3819 15 82.3657C15.0001 82.3494 15.0133 82.3365 15.0293 82.3363Z" fill="white"/>
<path d="M15.0293 46.641L32.2649 46.5231C43.7534 46.4641 55.2479 46.2984 66.7359 46.3756C72.481 46.4294 78.2263 46.472 83.9715 46.641C83.9877 46.6414 84.0005 46.655 84.0001 46.6714C83.9996 46.687 83.9869 46.6995 83.9715 46.7C78.2263 46.8689 72.481 46.9115 66.7359 46.9654C55.2479 47.0426 43.7534 46.8769 32.2649 46.8179L15.0293 46.7C15.0131 46.6998 15 46.6866 15 46.6703C15.0001 46.6541 15.0133 46.641 15.0293 46.641Z" fill="white"/>
<path d="M15.0293 45.0599L32.2649 44.942C43.7534 44.883 55.2479 44.7173 66.7359 44.7946C72.481 44.8484 78.2263 44.891 83.9715 45.0599C83.9877 45.0604 84.0005 45.074 84.0001 45.0903C83.9996 45.1059 83.9869 45.1185 83.9715 45.1189C78.2263 45.2879 72.481 45.3305 66.7359 45.3843C55.2479 45.4616 43.7534 45.2958 32.2649 45.2369L15.0293 45.1189C15.0131 45.1188 15 45.1055 15 45.0893C15.0001 45.0731 15.0133 45.0601 15.0293 45.0599Z" fill="white"/>
<path d="M15.0293 43.4789L32.2649 43.3609C43.7534 43.302 55.2479 43.1362 66.7359 43.2135C72.481 43.2673 78.2263 43.3099 83.9715 43.4789C83.9877 43.4793 84.0005 43.4929 84.0001 43.5093C83.9996 43.5249 83.9869 43.5374 83.9715 43.5379C78.2263 43.7068 72.481 43.7494 66.7359 43.8032C55.2479 43.8805 43.7534 43.7148 32.2649 43.6558L15.0293 43.5379C15.0131 43.5377 15 43.5244 15 43.5082C15.0001 43.492 15.0133 43.479 15.0293 43.4789Z" fill="white"/>
<path d="M15.0293 41.8988L32.2649 41.7809C43.7534 41.7219 55.2479 41.5562 66.7359 41.6334C72.481 41.6872 78.2263 41.7299 83.9715 41.8988C83.9877 41.8993 84.0005 41.9128 84.0001 41.9292C83.9996 41.9448 83.9869 41.9573 83.9715 41.9578C78.2263 42.1267 72.481 42.1694 66.7359 42.2232C55.2479 42.3004 43.7534 42.1347 32.2649 42.0757L15.0293 41.9578C15.0131 41.9576 15 41.9444 15 41.9282C15.0001 41.9119 15.0133 41.8988 15.0293 41.8988Z" fill="white"/>
<path d="M15.0293 40.3178L32.2649 40.1998C43.7534 40.1408 55.2479 39.9751 66.7359 40.0524C72.481 40.1062 78.2263 40.1488 83.9715 40.3178C83.9877 40.3182 84.0005 40.3318 84.0001 40.3481C83.9996 40.3638 83.9869 40.3763 83.9715 40.3767C78.2263 40.5457 72.481 40.5883 66.7359 40.6421C55.2479 40.7194 43.7534 40.5537 32.2649 40.4947L15.0293 40.3767C15.0131 40.3766 15 40.3633 15 40.3471C15.0001 40.3309 15.0133 40.3179 15.0293 40.3178Z" fill="white"/>
<path d="M15.0293 38.7367L32.2649 38.6188C43.7534 38.5598 55.2479 38.3941 66.7359 38.4713C72.481 38.5251 78.2263 38.5677 83.9715 38.7367C83.9877 38.7371 84.0005 38.7507 84.0001 38.7671C83.9996 38.7827 83.9869 38.7952 83.9715 38.7957C78.2263 38.9646 72.481 39.0072 66.7359 39.0611C55.2479 39.1383 43.7534 38.9726 32.2649 38.9136L15.0293 38.7957C15.0131 38.7955 15 38.7823 15 38.766C15.0001 38.7498 15.0133 38.7369 15.0293 38.7367Z" fill="white"/>
<path d="M15.0293 37.1556L32.2649 37.0377C43.7534 36.9787 55.2479 36.813 66.7359 36.8903C72.481 36.9441 78.2263 36.9867 83.9715 37.1556C83.9877 37.1561 84.0005 37.1697 84.0001 37.186C83.9996 37.2016 83.9869 37.2142 83.9715 37.2146C78.2263 37.3836 72.481 37.4262 66.7359 37.48C55.2479 37.5573 43.7534 37.3915 32.2649 37.3326L15.0293 37.2146C15.0131 37.2145 15 37.2012 15 37.185C15.0001 37.1689 15.0133 37.1558 15.0293 37.1556Z" fill="white"/>
<path d="M15.0293 35.5746L32.2649 35.4566C43.7534 35.3977 55.2479 35.232 66.7359 35.3092C72.481 35.363 78.2263 35.4056 83.9715 35.5746C83.9877 35.575 84.0005 35.5886 84.0001 35.605C83.9996 35.6206 83.9869 35.6331 83.9715 35.6336C78.2263 35.8025 72.481 35.8451 66.7359 35.899C55.2479 35.9762 43.7534 35.8105 32.2649 35.7515L15.0293 35.6336C15.0131 35.6334 15 35.6201 15 35.6039C15.0001 35.5877 15.0133 35.5747 15.0293 35.5746Z" fill="white"/>
<path d="M15.0293 33.9935L32.2649 33.8756C43.7534 33.8166 55.2479 33.6509 66.7359 33.7282C72.481 33.782 78.2263 33.8246 83.9715 33.9935C83.9877 33.994 84.0005 34.0075 84.0001 34.0239C83.9996 34.0395 83.9869 34.0521 83.9715 34.0525C78.2263 34.2215 72.481 34.2641 66.7359 34.3179C55.2479 34.3952 43.7534 34.2294 32.2649 34.1705L15.0293 34.0525C15.0131 34.0524 15 34.0391 15 34.0229C15.0001 34.0067 15.0133 33.9937 15.0293 33.9935Z" fill="white"/>
<path d="M15.0293 32.4125L32.2649 32.2945C43.7534 32.2356 55.2479 32.0698 66.7359 32.1471C72.481 32.2009 78.2263 32.2435 83.9715 32.4125C83.9877 32.4129 84.0005 32.4265 84.0001 32.4429C83.9996 32.4585 83.9869 32.471 83.9715 32.4715C78.2263 32.6404 72.481 32.683 66.7359 32.7368C55.2479 32.8141 43.7534 32.6484 32.2649 32.5894L15.0293 32.4715C15.0131 32.4713 15 32.458 15 32.4418C15.0001 32.4258 15.0133 32.4126 15.0293 32.4125Z" fill="white"/>
<path d="M15.0293 30.8324L32.2649 30.7145C43.7534 30.6555 55.2479 30.4898 66.7359 30.567C72.481 30.6208 78.2263 30.6634 83.9715 30.8324C83.9877 30.8328 84.0005 30.8464 84.0001 30.8628C83.9996 30.8784 83.9869 30.8909 83.9715 30.8914C78.2263 31.0603 72.481 31.1029 66.7359 31.1568C55.2479 31.234 43.7534 31.0683 32.2649 31.0093L15.0293 30.8914C15.0131 30.8912 15 30.878 15 30.8617C15.0001 30.8455 15.0133 30.8324 15.0293 30.8324Z" fill="white"/>
<path d="M15.0293 29.2514L32.2649 29.1334C43.7533 29.0744 55.2479 28.9087 66.7359 28.986C72.481 29.0398 78.2263 29.0824 83.9714 29.2514C83.9877 29.2518 84.0005 29.2654 84 29.2817C83.9996 29.2974 83.9869 29.3099 83.9714 29.3103C78.2263 29.4793 72.481 29.5219 66.7359 29.5757C55.2479 29.653 43.7533 29.4872 32.2649 29.4283L15.0293 29.3103C15.013 29.3102 14.9999 29.2969 15 29.2807C15.0001 29.2645 15.0133 29.2515 15.0293 29.2514Z" fill="white"/>
<path d="M15.0293 27.6703L32.2649 27.5523C43.7533 27.4934 55.2479 27.3277 66.7359 27.4049C72.481 27.4587 78.2263 27.5013 83.9714 27.6703C83.9877 27.6707 84.0005 27.6843 84 27.7007C83.9996 27.7163 83.9869 27.7288 83.9714 27.7293C78.2263 27.8982 72.481 27.9408 66.7359 27.9947C55.2479 28.0719 43.7533 27.9062 32.2649 27.8472L15.0293 27.7293C15.013 27.7293 14.9999 27.7159 15 27.6996C15.0001 27.6834 15.0133 27.6704 15.0293 27.6703Z" fill="white"/>
<path d="M15.0293 26.0892L32.2649 25.9713C43.7533 25.9123 55.2479 25.7466 66.7359 25.8239C72.481 25.8777 78.2263 25.9203 83.9714 26.0892C83.9877 26.0897 84.0005 26.1032 84 26.1196C83.9996 26.1352 83.9869 26.1478 83.9714 26.1482C78.2263 26.3172 72.481 26.3598 66.7359 26.4136C55.2479 26.4909 43.7533 26.3251 32.2649 26.2662L15.0293 26.1482C15.013 26.1481 14.9999 26.1348 15 26.1184C15.0001 26.1024 15.0133 26.0892 15.0293 26.0892Z" fill="white"/>
<path d="M15.0293 24.5082L32.2649 24.3902C43.7533 24.3313 55.2479 24.1655 66.7359 24.2428C72.481 24.2966 78.2263 24.3392 83.9714 24.5082C83.9877 24.5086 84.0005 24.5222 84 24.5386C83.9996 24.5542 83.9869 24.5667 83.9714 24.5672C78.2263 24.7361 72.481 24.7787 66.7359 24.8325C55.2479 24.9098 43.7533 24.7441 32.2649 24.6851L15.0293 24.5672C15.013 24.567 14.9999 24.5537 15 24.5375C15.0001 24.5213 15.0133 24.5083 15.0293 24.5082Z" fill="white"/>
<path d="M15.0293 22.9281L32.2649 22.8102C43.7533 22.7512 55.2479 22.5855 66.7359 22.6627C72.481 22.7165 78.2263 22.7591 83.9714 22.9281C83.9877 22.9286 84.0005 22.9421 84 22.9585C83.9996 22.9741 83.9869 22.9866 83.9714 22.9871C78.2263 23.156 72.481 23.1987 66.7359 23.2525C55.2479 23.3297 43.7533 23.164 32.2649 23.105L15.0293 22.9871C15.013 22.9869 14.9999 22.9737 15 22.9574C15.0001 22.9412 15.0133 22.9283 15.0293 22.9281Z" fill="white"/>
<path d="M15.0293 21.3471L32.2649 21.2291C43.7533 21.1701 55.2479 21.0044 66.7359 21.0817C72.481 21.1355 78.2263 21.1781 83.9714 21.3471C83.9877 21.3475 84.0005 21.3611 84 21.3774C83.9996 21.3931 83.9869 21.4056 83.9714 21.406C78.2263 21.575 72.481 21.6176 66.7359 21.6714C55.2479 21.7487 43.7533 21.583 32.2649 21.524L15.0293 21.406C15.013 21.406 14.9999 21.3928 15 21.3764C15.0001 21.3603 15.0133 21.3472 15.0293 21.3471Z" fill="white"/>
<path d="M15.0293 19.766L32.2649 19.6481C43.7533 19.5891 55.2479 19.4234 66.7359 19.5006C72.481 19.5544 78.2263 19.597 83.9714 19.766C83.9877 19.7664 84.0005 19.78 84 19.7964C83.9996 19.812 83.9869 19.8245 83.9714 19.825C78.2263 19.9939 72.481 20.0365 66.7359 20.0904C55.2479 20.1676 43.7533 20.0019 32.2649 19.9429L15.0293 19.825C15.013 19.8248 14.9999 19.8116 15 19.7952C15.0001 19.7791 15.0133 19.7661 15.0293 19.766Z" fill="white"/>
<path d="M15.0293 18.1849L32.2649 18.067C43.7533 18.008 55.2479 17.8423 66.7359 17.9196C72.481 17.9734 78.2263 18.016 83.9714 18.1849C83.9877 18.1854 84.0005 18.199 84 18.2153C83.9996 18.2309 83.9869 18.2435 83.9714 18.2439C78.2263 18.4129 72.481 18.4555 66.7359 18.5093C55.2479 18.5866 43.7533 18.4208 32.2649 18.3619L15.0293 18.2439C15.013 18.2438 14.9999 18.2305 15 18.2143C15.0001 18.1981 15.0133 18.1851 15.0293 18.1849Z" fill="white"/>
<path d="M15.0293 16.6039L32.2649 16.4859C43.7533 16.427 55.2479 16.2612 66.7359 16.3385C72.481 16.3923 78.2263 16.4349 83.9714 16.6039C83.9877 16.6043 84.0005 16.6179 84 16.6343C83.9996 16.6499 83.9869 16.6624 83.9714 16.6629C78.2263 16.8318 72.481 16.8744 66.7359 16.9282C55.2479 17.0055 43.7533 16.8398 32.2649 16.7808L15.0293 16.6629C15.013 16.6629 14.9999 16.6494 15 16.6332C15.0001 16.6172 15.0133 16.604 15.0293 16.6039Z" fill="white"/>
</g>
<path d="M15.5761 35.1798C15.4415 35.1798 15.32 35.0871 15.2889 34.9503C15.2004 34.5612 15.1313 34.16 15.0835 33.7578C15.0643 33.5961 15.1798 33.4495 15.3415 33.4302C15.5037 33.4137 15.6499 33.5265 15.6691 33.6884C15.7145 34.07 15.78 34.4505 15.8639 34.8195C15.9 34.9783 15.8005 35.1362 15.6418 35.1725C15.6197 35.1776 15.5978 35.1798 15.5761 35.1798ZM15.2968 32.8418C15.1364 32.8418 15.0051 32.7132 15.0021 32.5522C14.9946 32.15 15.0073 31.7472 15.0376 31.3461C15.0499 31.1836 15.1895 31.0624 15.354 31.0744C15.5165 31.0866 15.638 31.2283 15.6258 31.3907C15.5967 31.7736 15.5851 32.1577 15.5919 32.5416C15.5948 32.7044 15.4652 32.8389 15.3024 32.8418C15.3004 32.8418 15.2985 32.8418 15.2968 32.8418ZM15.4727 30.4926C15.2936 30.4926 15.1524 30.327 15.1814 30.1501C15.2448 29.7623 15.3259 29.3662 15.4226 28.9724C15.4614 28.8142 15.6212 28.7179 15.7792 28.7562C15.9374 28.795 16.0342 28.9547 15.9954 29.1129C15.9025 29.4916 15.8244 29.8728 15.7635 30.2455C15.7397 30.39 15.6146 30.4926 15.4727 30.4926ZM16.0309 28.2035C15.8339 28.2035 15.6899 28.0055 15.7502 27.8182C15.8698 27.4466 16.0056 27.0669 16.1539 26.6904C16.2134 26.5389 16.3848 26.464 16.5362 26.5239C16.6877 26.5836 16.7622 26.7548 16.7025 26.9063C16.5587 27.2715 16.4272 27.6391 16.3115 27.9988C16.2714 28.1237 16.1555 28.2035 16.0309 28.2035ZM16.8918 26.0089C16.6798 26.0089 16.5357 25.7824 16.6242 25.5905C16.7874 25.2366 16.9652 24.8762 17.1525 24.5192C17.2282 24.375 17.4066 24.3194 17.5507 24.3952C17.6949 24.4709 17.7503 24.6491 17.6747 24.7933C17.492 25.1412 17.3188 25.4926 17.1598 25.8374C17.11 25.9455 17.0033 26.0089 16.8918 26.0089Z" fill="#EDEDED"/>
<path d="M18.3867 20.3725V23.3773L21.3794 23.3891L26.4193 15.2949L18.3867 20.3725Z" fill="#6262EF"/>
<path d="M21.3799 23.3891L26.4198 15.2949L23.6289 25.5778L21.3799 23.3891Z" fill="#6184F2"/>
<path d="M18.3873 20.3725L26.4199 15.2949L16.2725 18.0007L18.3873 20.3725Z" fill="#6184F2"/>
<path d="M83.4243 35.1797C83.2379 35.1797 83.095 35.0016 83.1365 34.8195C83.2205 34.4501 83.2861 34.0695 83.3314 33.6884C83.3506 33.5265 83.497 33.4128 83.659 33.4302C83.8207 33.4496 83.9362 33.5961 83.917 33.7578C83.8694 34.1596 83.8002 34.5608 83.7116 34.9503C83.6805 35.087 83.5589 35.1797 83.4243 35.1797ZM83.7037 32.8417C83.7019 32.8417 83.7001 32.8417 83.6982 32.8417C83.5354 32.8386 83.4058 32.7043 83.4088 32.5415C83.4154 32.1576 83.4038 31.7735 83.3747 31.3906C83.3625 31.2281 83.484 31.0866 83.6465 31.0742C83.808 31.0624 83.9505 31.1835 83.9629 31.3459C83.9934 31.7471 84.0059 32.1498 83.9985 32.5521C83.9956 32.7131 83.8641 32.8417 83.7037 32.8417ZM83.5276 30.4924C83.3858 30.4924 83.2606 30.3898 83.237 30.2452C83.176 29.8726 83.098 29.4915 83.0051 29.1126C82.9663 28.9544 83.0631 28.7947 83.2213 28.7559C83.3797 28.7176 83.5393 28.8139 83.5779 28.9721C83.6745 29.3659 83.7557 29.762 83.8191 30.1498C83.848 30.3269 83.7069 30.4924 83.5276 30.4924ZM82.9694 28.2033C82.8448 28.2033 82.7291 28.1237 82.6889 27.9986C82.573 27.6388 82.4415 27.2711 82.2979 26.9061C82.2382 26.7546 82.3128 26.5835 82.4642 26.5236C82.6156 26.4638 82.7869 26.5387 82.8465 26.6901C82.9948 27.0668 83.1306 27.4463 83.2502 27.818C83.3105 28.0052 83.1666 28.2033 82.9694 28.2033ZM82.1087 26.0089C81.9972 26.0089 81.8905 25.9454 81.8408 25.8376C81.6814 25.4923 81.5083 25.141 81.3258 24.7935C81.2502 24.6491 81.3056 24.4709 81.4498 24.3954C81.5939 24.3193 81.7721 24.375 81.848 24.5194C82.0351 24.8759 82.2129 25.2362 82.3763 25.5906C82.4649 25.7826 82.3207 26.0089 82.1087 26.0089Z" fill="#EDEDED"/>
<path d="M80.6136 20.3725V23.3773L77.621 23.3891L72.5811 15.2949L80.6136 20.3725Z" fill="#16DBA2"/>
<path d="M77.621 23.3891L72.5811 15.2949L75.372 25.5778L77.621 23.3891Z" fill="#14C679"/>
<path d="M80.6136 20.3725L72.5811 15.2949L82.7285 18.0007L80.6136 20.3725Z" fill="#14C679"/>
<path d="M52.4761 52.7438H46.5242C45.7099 52.7438 45.0498 52.0838 45.0498 51.2695V46.9033H53.9505V51.2695C53.9505 52.0838 53.2904 52.7438 52.4761 52.7438Z" fill="#78909C"/>
<path d="M46.5242 51.2695V46.9033H45.0498V51.2695C45.0498 52.0838 45.7099 52.7438 46.5242 52.7438H47.9985C47.1842 52.7438 46.5242 52.0838 46.5242 51.2695Z" fill="#65818C"/>
<path d="M49.5004 19.2891C42.9962 19.2891 37.7236 24.6233 37.7236 31.2035C37.7236 34.748 39.254 37.9302 41.6824 40.1123C43.5997 41.8349 44.8122 44.23 44.9694 46.823H54.0316C54.1888 44.2299 55.4013 41.8349 57.3184 40.1123C59.7468 37.9302 61.2772 34.748 61.2772 31.2035C61.2771 24.6233 56.0045 19.2891 49.5004 19.2891Z" fill="#FFD54F"/>
<path d="M43.3042 40.1123C40.8758 37.9302 39.3454 34.748 39.3454 31.2035C39.3454 24.8994 44.1859 19.7423 50.3114 19.3203C50.0432 19.3019 49.7734 19.2891 49.5005 19.2891C42.9964 19.2891 37.7236 24.6233 37.7236 31.2035C37.7236 34.748 39.254 37.9302 41.6824 40.1123C43.5997 41.8351 44.8122 44.23 44.9694 46.8231H46.5912C46.4338 44.23 45.2215 41.8351 43.3042 40.1123Z" fill="#FF9852"/>
<path d="M49.4697 17.0103C49.3069 17.0103 49.1748 16.8782 49.1748 16.7154V15.2949C49.1748 15.1321 49.3069 15 49.4697 15C49.6324 15 49.7645 15.1321 49.7645 15.2949V16.7154C49.7645 16.8783 49.6326 17.0103 49.4697 17.0103Z" fill="#FF9852"/>
<path d="M37.7254 21.9116C37.6498 21.9116 37.5743 21.8827 37.5166 21.8249L36.5148 20.8204C36.3998 20.7052 36.4001 20.5184 36.5152 20.4034C36.6305 20.2884 36.8172 20.2887 36.9323 20.404L37.9342 21.4085C38.1149 21.5896 37.9827 21.9116 37.7254 21.9116Z" fill="#FF9852"/>
<path d="M34.8455 29.9511H33.4287C33.2659 29.9511 33.1338 29.819 33.1338 29.6562C33.1338 29.4934 33.2659 29.3613 33.4287 29.3613H34.8455C35.0083 29.3613 35.1404 29.4934 35.1404 29.6562C35.1404 29.819 35.0083 29.9511 34.8455 29.9511Z" fill="#FF9852"/>
<path d="M65.5701 29.8925H64.1533C63.9905 29.8925 63.8584 29.7604 63.8584 29.5976C63.8584 29.4348 63.9905 29.3027 64.1533 29.3027H65.5701C65.7329 29.3027 65.865 29.4348 65.865 29.5976C65.865 29.7604 65.7329 29.8925 65.5701 29.8925Z" fill="#FF9852"/>
<path d="M61.2317 21.8706C60.9744 21.8706 60.8423 21.5486 61.0229 21.3675L62.0247 20.363C62.1397 20.2479 62.3265 20.2473 62.4417 20.3624C62.557 20.4774 62.5573 20.6641 62.4423 20.7794L61.4405 21.7839C61.383 21.8417 61.3073 21.8706 61.2317 21.8706Z" fill="#FF9852"/>
<path d="M51.0855 45.5252C50.9227 45.5252 50.7906 45.3931 50.7906 45.2304V34.0683H48.1844V45.2304C48.1844 45.3931 48.0523 45.5252 47.8895 45.5252C47.7268 45.5252 47.5947 45.3931 47.5947 45.2304V34.0683H46.079C44.9181 34.0683 43.9736 33.124 43.9736 31.9631V31.9345C43.9736 30.7736 44.9181 29.8291 46.079 29.8291C47.2399 29.8291 48.1844 30.7736 48.1844 31.9345V33.4787H50.7906V31.9466C50.7906 30.779 51.7405 29.8291 52.9082 29.8291C54.0756 29.8291 55.0256 30.7787 55.0259 31.9463C55.0261 33.1023 54.0658 34.0685 52.9082 34.0685H51.3804V45.2305C51.3804 45.3933 51.2483 45.5252 51.0855 45.5252ZM51.3804 33.4786H52.9082C53.7412 33.4786 54.4363 32.7834 54.4361 31.9504C54.436 31.104 53.7505 30.4187 52.9082 30.4187C52.0658 30.4187 51.3804 31.104 51.3804 31.9464V33.4786ZM46.079 30.4187C45.2433 30.4187 44.5634 31.0985 44.5634 31.9343V31.9629C44.5634 32.7986 45.2433 33.4784 46.079 33.4784H47.5947V31.9342C47.5947 31.0987 46.9147 30.4187 46.079 30.4187Z" fill="white"/>
<path d="M54.0293 45.2295H44.9719C43.8693 45.2295 42.9756 46.1232 42.9756 47.2258C42.9756 48.3283 43.8693 49.2221 44.9719 49.2221H54.0293C55.1318 49.2221 56.0256 48.3283 56.0256 47.2258C56.0256 46.1232 55.1318 45.2295 54.0293 45.2295Z" fill="#B0BEC5"/>
<path d="M44.5964 47.2259C44.5964 46.1234 45.4902 45.2295 46.5927 45.2295H44.9709C43.8684 45.2295 42.9746 46.1232 42.9746 47.2258C42.9746 48.3283 43.8684 49.2221 44.9709 49.2221H46.5927C45.4902 49.2222 44.5964 48.3284 44.5964 47.2259Z" fill="#65818C"/>
<path d="M57.9729 74.6633C57.9729 74.6633 58.7574 67.6093 52.8966 67.0849C52.8966 67.0849 43.7909 66.0762 41.8392 69.0923C40.4692 71.2092 40.9848 76.8214 41.8392 77.8251L57.1688 77.7692L57.9729 74.6633Z" fill="#16DBA2"/>
<path d="M49.2787 66.9238C46.5066 66.9477 42.9708 67.3436 41.8392 69.0922C40.4692 71.209 40.9848 76.8212 41.8392 77.8249L42.6614 77.8218C42.0519 75.9467 41.8548 71.6276 43.0187 69.8292C43.9946 68.3212 46.7584 67.8194 49.2787 67.6945V66.9238Z" fill="#14C679"/>
<path d="M52.989 56.8877H45.6865C44.7203 57.8333 44.1201 59.1504 44.1201 60.6082C44.1201 63.4857 46.4561 65.8183 49.3377 65.8183C52.2194 65.8183 54.5553 63.4856 54.5553 60.6082C54.5555 59.1505 53.9553 57.8333 52.989 56.8877Z" fill="#4C4C4C"/>
<path d="M44.2988 74.9473C44.136 74.9473 44.0039 74.8152 44.0039 74.6525V70.3652C44.0039 70.2024 44.136 70.0703 44.2988 70.0703C44.4615 70.0703 44.5936 70.2024 44.5936 70.3652V74.6525C44.5936 74.8152 44.4615 74.9473 44.2988 74.9473Z" fill="#14C679"/>
<path d="M54.7021 74.9473C54.5393 74.9473 54.4072 74.8152 54.4072 74.6525V70.3652C54.4072 70.2024 54.5393 70.0703 54.7021 70.0703C54.8649 70.0703 54.997 70.2024 54.997 70.3652V74.6525C54.997 74.8152 54.865 74.9473 54.7021 74.9473Z" fill="#14C679"/>
<path d="M49.5009 70.6199C48.3338 70.6199 47.3877 69.6738 47.3877 68.5067V63.9766H51.6142V68.5067C51.6141 69.6738 50.668 70.6199 49.5009 70.6199Z" fill="#FFC1B0"/>
<path d="M48.7146 68.5067V63.9766H47.3877V68.5067C47.3877 69.6738 48.3338 70.6199 49.5009 70.6199C49.733 70.6199 49.9556 70.5811 50.1644 70.5121C49.3226 70.2337 48.7146 69.4419 48.7146 68.5067Z" fill="#FFAC99"/>
<path d="M49.5003 67.3035C51.832 67.3035 53.7223 65.171 53.7223 62.5404C53.7223 59.9098 51.832 57.7773 49.5003 57.7773C47.1686 57.7773 45.2783 59.9098 45.2783 62.5404C45.2783 65.171 47.1686 67.3035 49.5003 67.3035Z" fill="#FFD7CC"/>
<path d="M45.2222 55.8948C43.7879 57.8157 44.2202 59.2347 45.2982 60.8669C46.1879 62.2139 48.4545 61.926 49.7079 61.2436C51.433 60.3045 52.369 58.3055 52.369 58.3055C52.3726 58.3082 53.1897 58.8928 53.5855 61.0929L54.0214 58.3574C54.4796 55.4821 50.9609 53.6302 48.8665 55.6713C48.8174 55.7191 48.7684 55.7686 48.7196 55.8196C47.0455 57.5704 45.2222 55.8948 45.2222 55.8948Z" fill="#4C4C4C"/>
<path d="M48.8667 55.6713C48.8176 55.719 48.7686 55.7684 48.7198 55.8196C47.0457 57.5705 45.2225 55.8949 45.2225 55.8949C44.3532 57.0592 44.1704 58.0389 44.4005 58.9937C44.5266 58.4849 44.7887 57.9502 45.2225 57.3693C45.2225 57.3693 47.0458 59.0449 48.7198 57.2939C48.7686 57.2428 48.8177 57.1934 48.8667 57.1456C50.65 55.4078 53.464 56.4929 53.9784 58.6282L54.0216 58.3574C54.4797 55.4823 50.9611 53.6302 48.8667 55.6713Z" fill="#3F3F3F"/>
<path d="M41.0868 83.7052H58.0012C58.4898 83.7052 58.8858 83.3092 58.8858 82.8206V72.7831C58.8858 72.2939 58.4886 71.8974 57.9994 71.8984L41.085 71.9323C40.5971 71.9334 40.2021 72.3291 40.2021 72.817V82.8206C40.2021 83.3092 40.5982 83.7052 41.0868 83.7052Z" fill="#EDEDED"/>
<path d="M41.6765 82.8205V72.817C41.6765 72.3291 42.0715 71.9334 42.5594 71.9324L58.0579 71.9012C58.0385 71.9001 58.0192 71.8983 57.9994 71.8984L41.085 71.9324C40.5971 71.9334 40.2021 72.3291 40.2021 72.817V82.8205C40.2021 83.3091 40.5982 83.7051 41.0868 83.7051H42.5611C42.0725 83.7051 41.6765 83.3091 41.6765 82.8205Z" fill="#D6D6D6"/>
<path d="M49.4998 79.3071C50.3313 79.3071 51.0054 78.633 51.0054 77.8015C51.0054 76.97 50.3313 76.2959 49.4998 76.2959C48.6682 76.2959 47.9941 76.97 47.9941 77.8015C47.9941 78.633 48.6682 79.3071 49.4998 79.3071Z" fill="#AAAAAA"/>
<path d="M82.7254 51.2282C82.7254 51.2282 83.5678 43.6851 77.274 43.1244C77.274 43.1244 67.4957 42.0459 65.3996 45.2711C63.9285 47.5348 64.4821 53.5359 65.3996 54.6092L81.8617 54.5495L82.7254 51.2282Z" fill="#6184F2"/>
<path d="M72.5006 42.9727C69.698 43.0744 66.4967 43.5833 65.3996 45.2713C63.9285 47.5351 64.4821 53.5361 65.3996 54.6095L66.392 54.6059C65.5941 53.004 65.2114 47.6708 66.5791 45.5662C67.5243 44.1117 70.0319 43.5328 72.5006 43.3351V42.9727Z" fill="#6262EF"/>
<path d="M68.0937 51.8271C67.9309 51.8271 67.7988 51.695 67.7988 51.5322V47.8935C67.7988 47.7307 67.9309 47.5986 68.0937 47.5986C68.2565 47.5986 68.3886 47.7307 68.3886 47.8935V51.5322C68.3886 51.6951 68.2566 51.8271 68.0937 51.8271Z" fill="#6262EF"/>
<path d="M79.2666 51.8271C79.1038 51.8271 78.9717 51.695 78.9717 51.5322V47.8935C78.9717 47.7307 79.1038 47.5986 79.2666 47.5986C79.4293 47.5986 79.5614 47.7307 79.5614 47.8935V51.5322C79.5614 51.6951 79.4293 51.8271 79.2666 51.8271Z" fill="#6262EF"/>
<path d="M72.5744 37.2527C72.5744 35.945 71.5062 34.8848 70.1886 34.8848C68.8709 34.8848 67.8027 35.945 67.8027 37.2527C67.8027 37.7879 67.9838 38.2801 68.2855 38.6767C67.5797 39.0879 67.1045 39.847 67.1045 40.7181C67.1045 41.4032 67.3994 42.0183 67.8678 42.4507C67.3992 42.8832 67.1045 43.4984 67.1045 44.1834C67.1045 45.4911 68.1727 46.5514 69.4903 46.5514C70.8079 46.5514 71.8761 45.4911 71.8761 44.1834C71.8761 44.1548 71.8748 44.1257 71.8723 44.096C71.7785 42.999 71.7784 41.9024 71.8723 40.8055C71.8748 40.7757 71.8761 40.7465 71.8761 40.7181C71.8761 40.6586 71.8702 40.5948 71.8596 40.5283C71.7322 39.7286 71.8336 38.9021 72.2468 38.2058C72.4324 37.8929 72.5744 37.5547 72.5744 37.2527Z" fill="#4C4C4C"/>
<path d="M68.5788 44.1826C68.5788 43.4976 68.8737 42.8823 69.3421 42.4499C68.8736 42.0175 68.5788 41.4024 68.5788 40.7172C68.5788 39.8462 69.054 39.087 69.7598 38.6758C69.4582 38.2792 69.2771 37.7872 69.2771 37.2519C69.2771 36.1997 69.9692 35.3088 70.9257 35.0004C70.6934 34.9255 70.446 34.8838 70.1886 34.8838C68.8709 34.8838 67.8027 35.944 67.8027 37.2518C67.8027 37.7869 67.9838 38.2791 68.2854 38.6757C67.5797 39.087 67.1045 39.846 67.1045 40.7171C67.1045 41.4021 67.3994 42.0173 67.8678 42.4497C67.3992 42.8822 67.1045 43.4974 67.1045 44.1824C67.1045 45.4902 68.1727 46.5504 69.4903 46.5504C69.7477 46.5504 69.9951 46.5088 70.2275 46.4338C69.2709 46.1256 68.5788 45.2348 68.5788 44.1826Z" fill="#3F3F3F"/>
<path d="M74.7861 37.2527C74.7861 35.945 75.8543 34.8848 77.1719 34.8848C78.4896 34.8848 79.5577 35.945 79.5577 37.2527C79.5577 37.7879 79.3767 38.2801 79.075 38.6767C79.7808 39.0879 80.256 39.847 80.256 40.7181C80.256 41.4032 79.9611 42.0183 79.4927 42.4507C79.9613 42.8832 80.256 43.4984 80.256 44.1834C80.256 45.4911 79.1878 46.5514 77.8702 46.5514C76.5526 46.5514 75.4844 45.4911 75.4844 44.1834C75.4844 43.9877 75.5084 43.7977 75.5538 43.6159C75.744 42.8535 75.744 42.0479 75.5538 41.2855C75.5086 41.1039 75.4844 40.9139 75.4844 40.7181C75.4844 40.6762 75.4856 40.6345 75.4876 40.5932C75.5313 39.7687 75.3227 38.9587 74.9872 38.2043C74.8579 37.9132 74.7861 37.5914 74.7861 37.2527Z" fill="#4C4C4C"/>
<path d="M73.631 47.8887L73.6239 47.8938C72.2305 46.8586 71.4102 45.2321 71.4102 43.5046V41.3096H75.9488V43.4239C75.9488 45.1967 75.0853 46.8599 73.631 47.8887Z" fill="#FFC1B0"/>
<path d="M72.7371 43.5046V41.3096H71.4102V43.5046C71.4102 45.2321 72.2305 46.8585 73.6239 47.8938L73.631 47.8887C73.872 47.7182 74.0953 47.5288 74.3026 47.3258C73.3075 46.3104 72.7371 44.9433 72.7371 43.5046Z" fill="#FFAC99"/>
<path d="M73.6264 30.6279C72.6637 30.6279 71.7577 30.8696 70.9664 31.2951C70.2721 31.6684 69.8387 32.3888 69.8387 33.1725C69.5733 32.8684 69.0882 32.9085 68.8734 33.2496C68.335 34.1049 68.0234 35.1157 68.0234 36.1992C68.0234 39.2762 70.5321 41.7705 73.6264 41.7705C76.7208 41.7705 79.2294 39.2762 79.2294 36.1992C79.2294 33.1222 76.721 30.6279 73.6264 30.6279Z" fill="#4C4C4C"/>
<path d="M64.5399 62.474H82.8219C83.3105 62.474 83.7065 62.078 83.7065 61.5894V50.7332C83.7065 50.2441 83.3093 49.8476 82.8201 49.8486L64.5381 49.8852C64.0503 49.8862 63.6553 50.2819 63.6553 50.7698V61.5894C63.6553 62.078 64.0513 62.474 64.5399 62.474Z" fill="#EDEDED"/>
<path d="M65.1296 61.5894V50.7698C65.1296 50.2819 65.5246 49.8862 66.0125 49.8852L82.8784 49.8514C82.8591 49.8503 82.8398 49.8486 82.8201 49.8486L64.5381 49.8852C64.0503 49.8862 63.6553 50.2819 63.6553 50.7698V61.5894C63.6553 62.078 64.0513 62.474 64.5399 62.474H66.0142C65.5256 62.474 65.1296 62.078 65.1296 61.5894Z" fill="#D6D6D6"/>
<path d="M73.6808 57.7718C74.5751 57.7718 75.3001 57.0509 75.3001 56.1618C75.3001 55.2726 74.5751 54.5518 73.6808 54.5518C72.7865 54.5518 72.0615 55.2726 72.0615 56.1618C72.0615 57.0509 72.7865 57.7718 73.6808 57.7718Z" fill="#AAAAAA"/>
<path d="M73.6275 43.0128C76.1315 43.0128 78.1613 40.7324 78.1613 37.9195C78.1613 35.1065 76.1315 32.8262 73.6275 32.8262C71.1236 32.8262 69.0938 35.1065 69.0938 37.9195C69.0938 40.7324 71.1236 43.0128 73.6275 43.0128Z" fill="#FFD7CC"/>
<path d="M70.2598 32.4027C69.5676 33.5656 70.9445 35.619 72.1999 36.6907C74.2154 38.411 77.7033 39.125 78.7848 37.8192C79.7081 36.7044 78.7742 34.2424 77.2562 32.9104C75.0571 30.9809 71.1133 30.9687 70.2598 32.4027Z" fill="#4C4C4C"/>
<path d="M30.841 35.6353C30.7247 34.4872 30.258 33.442 29.5484 32.607L29.0548 33.1725V32.0946C28.0572 31.1842 26.7272 30.6279 25.2661 30.6279C22.3625 30.6279 19.9748 32.8232 19.6906 35.6353L19.6621 50.1318H30.8703L30.841 35.6353Z" fill="#4C4C4C"/>
<path d="M34.3656 51.2292C34.3656 51.2292 35.2082 43.6861 28.9131 43.1254C28.9131 43.1254 19.133 42.0469 17.0366 45.272C15.5652 47.5358 16.1188 53.5368 17.0366 54.6102L33.5017 54.5505L34.3656 51.2292Z" fill="#FF6666"/>
<path d="M23.4511 43.0059C20.8308 43.1648 18.0449 43.7202 17.0366 45.2714C15.5652 47.5351 16.1188 53.5362 17.0366 54.6095L17.6073 54.6074C16.8993 52.7273 16.6279 47.8509 17.9212 45.8611C18.8164 44.4838 21.1132 43.8917 23.4511 43.6649V43.0059Z" fill="#E55C5C"/>
<path d="M19.7324 51.8271C19.5696 51.8271 19.4375 51.695 19.4375 51.5322V47.8935C19.4375 47.7307 19.5696 47.5986 19.7324 47.5986C19.8951 47.5986 20.0272 47.7307 20.0272 47.8935V51.5322C20.0272 51.6951 19.8953 51.8271 19.7324 51.8271Z" fill="#E55C5C"/>
<path d="M30.9052 51.8271C30.7425 51.8271 30.6104 51.695 30.6104 51.5322V47.8935C30.6104 47.7307 30.7425 47.5986 30.9052 47.5986C31.068 47.5986 31.2001 47.7307 31.2001 47.8935V51.5322C31.2001 51.6951 31.068 51.8271 30.9052 51.8271Z" fill="#E55C5C"/>
<path d="M23.0488 44.125H27.5884V50.1315H23.0488V44.125Z" fill="white"/>
<path d="M25.3186 46.249C24.065 46.249 23.0488 45.2305 23.0488 43.974V41.3096H27.5884V43.974C27.5884 45.2305 26.5721 46.249 25.3186 46.249Z" fill="#FFC1B0"/>
<path d="M24.3757 43.974V41.3096H23.0488V43.974C23.0488 45.2305 24.0651 46.249 25.3186 46.249C25.5495 46.249 25.7721 46.2139 25.9821 46.1496C25.0523 45.8652 24.3757 44.999 24.3757 43.974Z" fill="#FFAC99"/>
<path d="M16.1766 62.474H34.4586C34.9472 62.474 35.3432 62.078 35.3432 61.5894V50.7332C35.3432 50.2441 34.9461 49.8476 34.4569 49.8486L16.1748 49.8852C15.687 49.8862 15.292 50.2819 15.292 50.7698V61.5894C15.292 62.078 15.688 62.474 16.1766 62.474Z" fill="#EDEDED"/>
<path d="M16.7663 61.5894V50.7698C16.7663 50.2819 17.1613 49.8862 17.6492 49.8852L34.5151 49.8514C34.4958 49.8503 34.4765 49.8486 34.4569 49.8486L16.1748 49.8852C15.687 49.8862 15.292 50.2819 15.292 50.7698V61.5894C15.292 62.078 15.688 62.474 16.1766 62.474H17.651C17.1624 62.474 16.7663 62.078 16.7663 61.5894Z" fill="#D6D6D6"/>
<path d="M25.2667 57.7718C26.1611 57.7718 26.886 57.0509 26.886 56.1618C26.886 55.2726 26.1611 54.5518 25.2667 54.5518C24.3724 54.5518 23.6475 55.2726 23.6475 56.1618C23.6475 57.0509 24.3724 57.7718 25.2667 57.7718Z" fill="#AAAAAA"/>
<path d="M25.2661 43.0128C27.7706 43.0128 29.8008 40.7324 29.8008 37.9195C29.8008 35.1065 27.7706 32.8262 25.2661 32.8262C22.7617 32.8262 20.7314 35.1065 20.7314 37.9195C20.7314 40.7324 22.7617 43.0128 25.2661 43.0128Z" fill="#FFD7CC"/>
<path d="M27.9007 32.6863C28.4754 33.6519 27.3322 35.3565 26.2897 36.2462C24.6161 37.6744 21.7201 38.2671 20.8222 37.183C20.0555 36.2575 20.831 34.2136 22.0915 33.1078C23.9174 31.5061 27.1921 31.4959 27.9007 32.6863Z" fill="#4C4C4C"/>
<path d="M74.3736 77.8657L77.8396 81.2563L76.6363 76.5593C75.645 72.6906 73.6439 69.1455 70.7997 66.342C69.7338 65.2914 68.7847 64.5784 68.3542 64.827C67.9235 65.0756 68.0666 66.2539 68.4434 67.7024C69.4491 71.5674 71.5186 75.073 74.3736 77.8657Z" fill="#BCBCBC"/>
<path d="M76.7617 79.685C76.6598 79.685 76.5606 79.6323 76.506 79.5376L70.0015 68.2714C69.9201 68.1304 69.9683 67.95 70.1094 67.8687C70.2505 67.7873 70.4308 67.8355 70.5122 67.9766L77.0167 79.2427C77.0981 79.3838 77.0499 79.5641 76.9088 79.6455C76.8625 79.6724 76.8118 79.685 76.7617 79.685Z" fill="#AAAAAA"/>
<path d="M77.7151 77.8657L74.249 81.2563L75.4524 76.5593C76.4435 72.6906 78.4447 69.1455 81.2889 66.342C82.3549 65.2914 83.3039 64.5784 83.7346 64.827C84.1653 65.0756 84.0222 66.2539 83.6454 67.7024C82.6396 71.5674 80.57 75.073 77.7151 77.8657Z" fill="#BCBCBC"/>
<path d="M75.3278 79.685C75.2778 79.685 75.2271 79.6724 75.1807 79.6455C75.0396 79.564 74.9914 79.3838 75.0728 79.2427L81.5773 67.9766C81.6587 67.8355 81.839 67.7873 81.9801 67.8687C82.1212 67.9502 82.1694 68.1304 82.088 68.2714L75.5835 79.5376C75.5289 79.6321 75.4297 79.685 75.3278 79.685Z" fill="#AAAAAA"/>
<path d="M74.7372 76.3837L76.0437 81.0532L77.3501 76.3837C78.4261 72.5377 78.4656 68.467 77.4042 64.6169C77.0064 63.1739 76.541 62.082 76.0438 62.082C75.5465 62.082 75.0812 63.1739 74.6834 64.6169C73.6216 68.467 73.6611 72.5377 74.7372 76.3837Z" fill="#D6D6D6"/>
<path d="M76.0439 79.1935C75.8811 79.1935 75.749 79.0614 75.749 78.8986V65.8896C75.749 65.7268 75.8811 65.5947 76.0439 65.5947C76.2067 65.5947 76.3388 65.7268 76.3388 65.8896V78.8986C76.3388 79.0614 76.2067 79.1935 76.0439 79.1935Z" fill="#BCBCBC"/>
<path d="M74.1565 83.9991H77.9318C78.6344 83.9991 79.2395 83.5032 79.3775 82.8142L80.6146 76.6328H71.4736L72.7108 82.8142C72.8488 83.5032 73.4538 83.9991 74.1565 83.9991Z" fill="#FF669D"/>
<path d="M74.1851 82.8142L72.948 76.6328H71.4736L72.7108 82.8142C72.8486 83.5033 73.4537 83.9991 74.1564 83.9991H75.6307C74.928 83.9991 74.323 83.5032 74.1851 82.8142Z" fill="#EF508D"/>
<path d="M81.3516 76.9276H70.7363C70.5735 76.9276 70.4414 76.7955 70.4414 76.6328C70.4414 76.47 70.5735 76.3379 70.7363 76.3379H81.3516C81.5144 76.3379 81.6465 76.47 81.6465 76.6328C81.6465 76.7955 81.5144 76.9276 81.3516 76.9276Z" fill="#F47DB3"/>
<path d="M36.0411 83.1155H17.9481C17.4595 83.1155 17.0635 82.7194 17.0635 82.2308V79.577C17.0635 79.0884 17.4595 78.6924 17.9481 78.6924H36.0411V83.1155Z" fill="#16DBA2"/>
<path d="M18.5378 82.2308V79.577C18.5378 79.0884 18.9338 78.6924 19.4224 78.6924H17.9481C17.4595 78.6924 17.0635 79.0884 17.0635 79.577V82.2308C17.0635 82.7194 17.4595 83.1155 17.9481 83.1155H19.4224C18.9338 83.1155 18.5378 82.7194 18.5378 82.2308Z" fill="#14C679"/>
<path d="M24.0469 79.8633H32.893V81.9448H24.0469V79.8633Z" fill="white"/>
<path d="M20.8026 81.8405C21.2911 81.8405 21.6872 81.4445 21.6872 80.9559C21.6872 80.4673 21.2911 80.0713 20.8026 80.0713C20.314 80.0713 19.918 80.4673 19.918 80.9559C19.918 81.4445 20.314 81.8405 20.8026 81.8405Z" fill="white"/>
<path d="M35.9333 74.2688H17.9461C17.4575 74.2688 17.0615 73.8728 17.0615 73.3842V70.7303C17.0615 70.2417 17.4575 69.8457 17.9461 69.8457H35.9333V74.2688Z" fill="#6184F2"/>
<path d="M18.5359 73.3842V70.7303C18.5359 70.2417 18.9319 69.8457 19.4205 69.8457H17.9461C17.4575 69.8457 17.0615 70.2417 17.0615 70.7303V73.3842C17.0615 73.8728 17.4575 74.2688 17.9461 74.2688H19.4205C18.9319 74.2688 18.5359 73.8728 18.5359 73.3842Z" fill="#6262EF"/>
<path d="M24.0078 71.0166H32.8006V73.0981H24.0078V71.0166Z" fill="white"/>
<path d="M20.784 72.9938C21.2726 72.9938 21.6686 72.5978 21.6686 72.1092C21.6686 71.6207 21.2726 71.2246 20.784 71.2246C20.2955 71.2246 19.8994 71.6207 19.8994 72.1092C19.8994 72.5978 20.2955 72.9938 20.784 72.9938Z" fill="white"/>
<path d="M34.1667 78.6916H16.1795C15.6909 78.6916 15.2949 78.2956 15.2949 77.807V75.1532C15.2949 74.6646 15.6909 74.2686 16.1795 74.2686H34.1667V78.6916Z" fill="#FF669D"/>
<path d="M16.7693 77.807V75.1532C16.7693 74.6646 17.1653 74.2686 17.6539 74.2686H16.1795C15.6909 74.2686 15.2949 74.6646 15.2949 75.1532V77.807C15.2949 78.2956 15.6909 78.6916 16.1795 78.6916H17.6539C17.1653 78.6916 16.7693 78.2956 16.7693 77.807Z" fill="#EF508D"/>
<path d="M22.2412 75.4395H31.034V77.5209H22.2412V75.4395Z" fill="white"/>
<path d="M19.0174 77.4167C19.506 77.4167 19.902 77.0206 19.902 76.5321C19.902 76.0435 19.506 75.6475 19.0174 75.6475C18.5289 75.6475 18.1328 76.0435 18.1328 76.5321C18.1328 77.0206 18.5289 77.4167 19.0174 77.4167Z" fill="white"/>
</svg>
