<svg width="39" height="57" viewBox="0 0 39 57" fill="none" xmlns="http://www.w3.org/2000/svg">
<path d="M19.1338 28.5C19.1338 23.2533 23.3871 19 28.6337 19C33.8804 19 38.1337 23.2534 38.1337 28.5C38.1337 33.7467 33.8803 37.9999 28.6337 37.9999C23.387 37.9999 19.1338 33.7466 19.1338 28.5Z" fill="#00BCFF"/>
<path d="M0.133789 47.5C0.133789 42.2533 4.38708 38 9.63375 38L14.6964 35.3271L19.1337 38V47.5C19.1337 52.7468 14.8804 56.9999 9.63375 56.9999C4.38708 56.9999 0.133789 52.7466 0.133789 47.5Z" fill="#00CF7F"/>
<path d="M19.1343 0L13.9648 8.98083L19.1343 18.9999H28.5009C33.7477 18.9999 38.0009 14.7466 38.0009 9.49996C38.0009 4.25329 33.7476 0 28.5009 0H19.1343Z" fill="#FF7361"/>
<path d="M0 9.49996C0 14.7466 4.25329 18.9999 9.49996 18.9999L14.5394 20.9464L19.1332 18.9999V0H9.49984C4.25329 0 0 4.25329 0 9.49996Z" fill="#FF4D12"/>
<path d="M0.133789 28.5001C0.133789 33.7468 4.38708 38 9.63375 38H19.1337V19H9.63375C4.38708 19 0.133789 23.2534 0.133789 28.5001Z" fill="#B659FF"/>
</svg>
