<svg width="187" height="31" viewBox="0 0 187 31" fill="none" xmlns="http://www.w3.org/2000/svg">
<g clip-path="url(#clip0_177_4094)">
<path d="M14.5265 13.8496V22.1276C14.5265 23.3102 13.5489 24.271 12.3415 24.271C11.1341 24.271 10.1565 23.312 10.1565 22.1276V13.8496C10.1565 12.2845 8.85866 11.0096 7.26135 11.0096C5.66404 11.0096 4.36623 12.2827 4.36623 13.8496V22.1276C4.36623 23.3102 3.38863 24.271 2.18123 24.271C0.973831 24.271 0 23.3102 0 22.1276V13.8496C0 9.92125 3.25866 6.72461 7.26323 6.72461C11.2678 6.72461 14.5265 9.92125 14.5265 13.8496Z" fill="#FDFDFD"/>
<path d="M18.041 29.4544C16.9692 29.4544 16.0877 28.6173 16.0557 27.5604C16.0237 26.485 16.8882 25.587 17.9845 25.5574C22.0607 25.4447 25.0142 23.8575 26.7622 20.8438C28.0298 18.6578 28.2483 16.4239 28.2766 16.0525C28.1711 12.5491 27.0353 9.8828 24.903 8.12742C22.6822 6.29998 19.7005 5.69945 17.5908 5.51652C15.2683 5.31512 13.4638 5.56641 13.445 5.57011C12.36 5.73271 11.3485 4.9973 11.1846 3.93299C11.0208 2.86867 11.7686 1.87642 12.8535 1.71567C13.2152 1.66208 21.7706 0.461032 27.4572 5.14143C30.5181 7.65993 32.1305 11.3259 32.251 16.0359C32.251 16.0784 32.251 16.1209 32.251 16.1634C32.2454 16.2946 32.0966 19.4339 30.3053 22.6139C28.6081 25.6258 25.114 29.2566 18.0975 29.4525C18.0787 29.4525 18.0598 29.4525 18.041 29.4525V29.4544Z" fill="#FDFDFD"/>
<path d="M14.5263 27.535C14.5263 26.4743 13.6486 25.6133 12.5674 25.6133C11.4862 25.6133 10.6084 26.4743 10.6084 27.535C10.6084 28.5956 11.4862 29.4566 12.5674 29.4566C13.6486 29.4566 14.5263 28.5956 14.5263 27.535Z" fill="#FDFDFD"/>
<path d="M9.64058 3.46269C9.64058 2.40208 8.76282 1.54102 7.68162 1.54102C6.60042 1.54102 5.72266 2.40208 5.72266 3.46269C5.72266 4.52331 6.60042 5.38437 7.68162 5.38437C8.76282 5.38437 9.64058 4.52331 9.64058 3.46269Z" fill="#FDFDFD"/>
<path d="M89.2685 13.3329L97.4321 0.845703H93.1506C92.1523 0.845703 91.4384 1.26515 91.0108 2.10588L86.5674 9.46184L89.2685 13.3329Z" fill="#FDFDFD"/>
<path d="M85.145 10.8561L81.8016 5.86901C81.6999 5.71749 81.5285 5.62695 81.3439 5.62695H77.1453C76.712 5.62695 76.4502 6.09629 76.6819 6.45475L81.9975 14.657L75.7891 24.2469H81.5699L85.0659 18.3673L88.4206 24.2469H94.1299L85.1488 10.8561H85.145Z" fill="#FDFDFD"/>
<path d="M54.1503 24.2498H51.6432C50.9274 24.2498 50.3416 24.0281 49.8877 23.5828C49.4337 23.1375 49.2077 22.5628 49.2077 21.8607V12.3022C49.2077 11.1769 48.8611 10.3583 48.1679 9.84277C47.4747 9.32725 46.6987 9.07041 45.8398 9.07041C44.9808 9.07041 44.2161 9.32909 43.5474 9.84277C42.8787 10.3583 42.5434 11.1787 42.5434 12.3022V24.2517H37.5273V13.287C37.5273 10.1015 38.375 7.96914 40.0702 6.89004C41.7655 5.81279 43.6397 5.22705 45.6947 5.13281C47.7968 5.13281 49.7313 5.67236 51.4981 6.74961C53.265 7.82871 54.1484 10.0072 54.1484 13.287V24.2517L54.1503 24.2498Z" fill="#FDFDFD"/>
<path d="M71.1297 18.4848H74.7124C74.1868 20.4527 73.1829 21.953 71.7024 22.9841C70.2218 24.0632 68.3589 24.6009 66.1137 24.6009C63.3899 24.6009 61.2652 23.7343 59.7357 22.0011C58.2062 20.3141 57.4434 17.9009 57.4434 14.7615C57.4434 11.6222 58.1836 9.41963 59.6641 7.73262C61.1918 5.99942 63.3184 5.13281 66.0421 5.13281C68.9089 5.13281 71.1297 5.97539 72.7063 7.66241C74.2339 9.39746 74.9987 11.8088 74.9987 14.902V15.6743C74.9987 15.909 74.9742 16.0734 74.9271 16.1658H62.531C62.5781 17.6182 62.936 18.6954 63.6066 19.3994C64.2263 20.1496 65.1587 20.5247 66.4018 20.5247C67.2137 20.5247 67.9069 20.3603 68.4795 20.0332C68.6226 19.987 68.7545 19.9039 68.8732 19.7875C68.9918 19.671 69.1237 19.5417 69.2668 19.4013C69.3139 19.2608 69.4929 19.0742 69.8037 18.8396C70.1145 18.6049 70.5552 18.4885 71.1297 18.4885V18.4848ZM62.531 13.0025H69.8395C69.7434 11.7367 69.41 10.7999 68.8355 10.1902C68.2139 9.5342 67.3305 9.20529 66.1852 9.20529C65.1342 9.20529 64.2734 9.5342 63.6066 10.1902C62.9379 10.8461 62.5781 11.7829 62.531 13.0025Z" fill="#FDFDFD"/>
<path d="M109.336 0H111.772C112.44 0 113.013 0.245753 113.491 0.737259C113.968 1.22877 114.207 1.78125 114.207 2.38916V16.0959C114.207 19.4237 113.228 21.6725 111.269 22.844C109.31 24.0154 107.185 24.6012 104.891 24.6012C103.648 24.6012 102.431 24.4016 101.236 24.0044C100.042 23.6071 99.0873 22.9622 98.3696 22.0716C96.9833 20.3384 96.292 17.9714 96.292 14.9725C96.292 11.9735 96.9833 9.65459 98.3696 7.87334C99.8031 6.0459 101.641 5.13125 103.887 5.13125C105.081 5.13125 106.132 5.36592 107.04 5.8334C107.995 6.39512 108.76 7.12315 109.332 8.01192V0H109.336ZM101.167 14.76C101.167 16.6355 101.525 18.0638 102.242 19.0468C102.96 20.0298 103.985 20.5232 105.324 20.5232C106.663 20.5232 107.616 20.0317 108.334 19.0468C109.003 18.0619 109.338 16.6336 109.338 14.76C109.338 13.073 108.98 11.737 108.262 10.754C107.498 9.81719 106.471 9.34786 105.181 9.34786C103.891 9.34786 102.96 9.83936 102.242 10.8242C101.527 11.7629 101.167 13.073 101.167 14.76Z" fill="#FDFDFD"/>
<path d="M130.525 18.4848H134.108C133.582 20.4527 132.578 21.953 131.098 22.9841C129.617 24.0632 127.754 24.6009 125.509 24.6009C122.785 24.6009 120.661 23.7343 119.131 22.0011C117.602 20.3141 116.839 17.9009 116.839 14.7615C116.839 11.6222 117.579 9.41963 119.06 7.73262C120.587 5.99942 122.714 5.13281 125.438 5.13281C128.304 5.13281 130.525 5.97539 132.102 7.66241C133.629 9.39746 134.394 11.8088 134.394 14.902V15.6743C134.394 15.909 134.37 16.0734 134.323 16.1658H121.927C121.974 17.6182 122.332 18.6954 123.002 19.3994C123.622 20.1496 124.554 20.5247 125.797 20.5247C126.609 20.5247 127.302 20.3603 127.875 20.0332C128.018 19.987 128.15 19.9039 128.269 19.7875C128.387 19.671 128.519 19.5417 128.662 19.4013C128.709 19.2608 128.888 19.0742 129.199 18.8396C129.51 18.6049 129.951 18.4885 130.525 18.4885V18.4848ZM121.927 13.0025H129.235C129.139 11.7367 128.806 10.7999 128.231 10.1902C127.609 9.5342 126.726 9.20529 125.581 9.20529C124.53 9.20529 123.669 9.5342 123.002 10.1902C122.333 10.8461 121.974 11.7829 121.927 13.0025Z" fill="#FDFDFD"/>
<path d="M154.009 24.2497H149.064V12.3002C149.064 11.1749 148.718 10.3563 148.024 9.84082C147.331 9.32529 146.555 9.06845 145.696 9.06845C144.837 9.06845 144.073 9.32714 143.404 9.84082C142.735 10.3563 142.4 11.1768 142.4 12.3002V24.2497H137.384V13.2851C137.384 10.0995 138.231 7.96718 139.927 6.88809C141.622 5.81084 143.496 5.2251 145.551 5.13086C146.649 5.13086 147.725 5.24912 148.776 5.48194C149.825 5.7166 150.782 6.18409 151.643 6.88809C152.359 6.28017 153.206 5.84595 154.186 5.58726C155.163 5.33042 156.18 5.17705 157.231 5.13086C159.334 5.13086 161.268 5.67041 163.035 6.74766C164.802 7.82675 165.685 10.0053 165.685 13.2851V24.2497H163.178C162.462 24.2497 161.876 24.028 161.423 23.5827C160.969 23.1374 160.743 22.5627 160.743 21.8605V12.302C160.743 11.1768 160.396 10.3582 159.703 9.84267C159.01 9.32714 158.234 9.0703 157.375 9.0703C156.516 9.0703 155.738 9.32899 155.046 9.84267C154.353 10.3582 154.007 11.1786 154.007 12.302V24.2516L154.009 24.2497Z" fill="#FDFDFD"/>
<path d="M171.235 30.9991V27.0042H172.597C173.552 27.0042 174.304 26.7806 174.854 26.3372C175.402 25.8918 175.509 25.1768 175.176 24.1938L168.512 5.56641H174.029L177.898 18.7816L181.266 7.25342C181.552 6.12813 182.317 5.56641 183.558 5.56641H186.998L179.689 26.8638C179.116 28.4104 178.399 29.5098 177.54 30.1676C176.681 30.7293 175.27 31.0009 173.313 31.0009C173.17 31.0009 173.002 30.9898 172.812 30.9898C172.622 30.9898 172.454 31.0009 172.311 31.0009H171.235V30.9991Z" fill="#FDFDFD"/>
</g>
<defs>
<clipPath id="clip0_177_4094">
<rect width="187" height="31" fill="white"/>
</clipPath>
</defs>
</svg>
