<svg width="100" height="100" viewBox="0 0 100 100" fill="none" xmlns="http://www.w3.org/2000/svg">
<path d="M50 100C77.6142 100 100 77.6142 100 50C100 22.3858 77.6142 0 50 0C22.3858 0 0 22.3858 0 50C0 77.6142 22.3858 100 50 100Z" fill="#7584F2"/>
<path d="M88.2811 45.8L71.9092 62.2555L37.9193 28.2656H18.4857L10.2549 40.4912L25.3701 73.2459L52.0814 99.9572C76.3684 98.9627 96.1873 80.6436 99.5096 57.0285L88.2811 45.8Z" fill="#4253CE"/>
<path d="M83.5752 55.0479L80.018 50.3918L65.0445 61.832L51.4537 50.3174L22.5811 67.8816L25.6264 72.8875L50.8896 57.5189L64.8547 69.3508L83.5752 55.0479Z" fill="white"/>
<path d="M27.6535 43.7455V40.4912H23.0867V43.7455C23.0867 44.2889 22.8758 44.7969 22.5186 45.1768L25.3701 50.9205L28.2217 45.1768C27.8645 44.7969 27.6535 44.2889 27.6535 43.7455Z" fill="#E09380"/>
<path d="M28.2217 45.177C27.8645 44.7969 27.6535 44.2889 27.6535 43.7455V40.4912H25.3701V50.9061V50.9205L28.2217 45.177Z" fill="#D47F6C"/>
<path d="M35.7883 50.3383C35.4094 48.9896 34.4272 47.8926 33.1283 47.3676L28.9607 45.6834C28.6746 45.5678 28.4248 45.3928 28.2219 45.1768L25.3703 47.768L22.5188 45.1768C22.3158 45.3926 22.066 45.5678 21.7799 45.6834L17.6123 47.3676C16.3135 47.8924 15.3311 48.9895 14.9523 50.3383L13.9336 53.9652L25.3705 57.7193L36.8074 53.9652L35.7883 50.3383Z" fill="#A3D4FF"/>
<path d="M25.3623 57.7166L25.3695 57.7189L36.8064 53.9648L35.7877 50.3381C35.4088 48.9895 34.4266 47.8924 33.1275 47.3676L28.96 45.6834C28.6738 45.5678 28.424 45.3928 28.2211 45.1768L25.3695 47.768L25.3623 57.7166Z" fill="#65B1FC"/>
<path d="M25.3687 44.3324C22.4898 44.3324 20.1562 41.9986 20.1562 39.1199V36.3758C20.1562 33.4969 22.49 31.1631 25.3687 31.1631C28.2477 31.1631 30.5813 33.4969 30.5813 36.3758V39.1199C30.5813 41.9988 28.2477 44.3324 25.3687 44.3324Z" fill="#FAA68E"/>
<path d="M25.3703 44.3332C28.2492 44.3332 30.583 41.9994 30.583 39.1207V36.3766C30.583 33.4977 28.2492 31.1641 25.3705 31.1641C25.3682 31.1641 25.3658 31.1643 25.3633 31.1643L25.3703 44.3332Z" fill="#E09380"/>
<path d="M25.3697 47.7678L23.775 49.7219L21.0029 45.9971L22.5182 45.1768L25.3697 47.7678Z" fill="#DBEEFF"/>
<path d="M25.3701 47.7687L26.9648 49.7229L29.7369 45.998L28.2217 45.1777L25.3701 47.7687Z" fill="#A3D4FF"/>
<path d="M25.3705 23.1025C15.5203 23.1025 7.53516 31.0877 7.53516 40.9379C7.53516 56.2619 25.3705 73.2459 25.3705 73.2459C25.3705 73.2459 43.2059 55.4957 43.2059 40.9379C43.2059 31.0877 35.2207 23.1025 25.3705 23.1025ZM25.3705 53.9973C18.4398 53.9973 12.8213 48.3787 12.8213 41.448C12.8213 34.5174 18.4398 28.8988 25.3705 28.8988C32.3012 28.8988 37.9197 34.5172 37.9197 41.448C37.9197 48.3789 32.3012 53.9973 25.3705 53.9973Z" fill="#FFCE00"/>
<path d="M43.2059 40.9379C43.2059 31.0877 35.2207 23.1025 25.3705 23.1025C25.3682 23.1025 25.3656 23.1025 25.3633 23.1025V28.899C25.3656 28.899 25.368 28.8988 25.3705 28.8988C32.3012 28.8988 37.9197 34.5174 37.9197 41.448C37.9197 48.3787 32.3012 53.9971 25.3705 53.9971C25.3682 53.9971 25.3658 53.9969 25.3633 53.9969V73.2389C25.366 73.2414 25.3705 73.2457 25.3705 73.2457C25.3705 73.2457 43.2059 55.4957 43.2059 40.9379Z" fill="#FDBA12"/>
<path d="M90.143 51.5767C90.7538 48.0583 88.3967 44.711 84.8784 44.1002C81.36 43.4894 78.0127 45.8464 77.4019 49.3648C76.7911 52.8832 79.1481 56.2305 82.6665 56.8413C86.1848 57.4521 89.5322 55.0951 90.143 51.5767Z" fill="#FFCE00"/>
<path d="M64.949 72.0592C68.521 72.0592 71.4166 69.1635 71.4166 65.5916C71.4166 62.0197 68.521 59.124 64.949 59.124C61.3771 59.124 58.4814 62.0197 58.4814 65.5916C58.4814 69.1635 61.3771 72.0592 64.949 72.0592Z" fill="#FFCE00"/>
<path d="M83.7852 43.9795C87.357 43.9795 90.2527 46.8752 90.2527 50.4471C90.2527 54.0191 87.357 56.9147 83.7852 56.9147V43.9795Z" fill="#FDBA12"/>
<path d="M64.9492 59.124C68.5211 59.124 71.4168 62.0197 71.4168 65.5916C71.4168 69.1635 68.5211 72.0592 64.9492 72.0592V59.124Z" fill="#FDBA12"/>
<path d="M50.8328 59.7145C54.4048 59.7145 57.3004 56.8188 57.3004 53.2469C57.3004 49.6749 54.4048 46.7793 50.8328 46.7793C47.2609 46.7793 44.3652 49.6749 44.3652 53.2469C44.3652 56.8188 47.2609 59.7145 50.8328 59.7145Z" fill="#FFCE00"/>
<path d="M50.832 59.7145C54.4039 59.7145 57.2996 56.8187 57.2996 53.2469C57.2996 49.675 54.4039 46.7793 50.832 46.7793V59.7145Z" fill="#FDBA12"/>
</svg>
