<svg width="60" height="60" viewBox="0 0 60 60" fill="none" xmlns="http://www.w3.org/2000/svg">
<mask id="mask0_1_893" style="mask-type:alpha" maskUnits="userSpaceOnUse" x="0" y="0" width="60" height="60">
<rect width="60" height="60" fill="#D9D9D9"/>
</mask>
<g mask="url(#mask0_1_893)">
<path d="M11.9893 2H48.4209C53.9444 2 58.4103 6.46581 58.4103 11.9893V47.0107C58.4103 52.5342 53.9444 57 48.4209 57H11.9893C6.46581 57 2 52.5342 2 47.0107V11.9893C2 6.46581 6.46581 2 11.9893 2Z" fill="#49021F"/>
<path d="M22.4973 16.3853V40.5947C22.4973 40.8532 22.3798 40.9708 22.1683 40.9708H17.5614C17.3499 40.9708 17.2559 40.8532 17.2559 40.5947V16.3853C17.2559 16.1738 17.3734 16.0797 17.5849 16.0797H22.1683C22.3093 16.0562 22.4503 16.1503 22.4738 16.3148C22.4973 16.3383 22.4973 16.3618 22.4973 16.3853Z" fill="#FF3366"/>
<path d="M36.0837 41.2528C34.3444 41.2763 32.605 40.9237 31.0303 40.1951C29.5495 39.5135 28.3273 38.3853 27.4811 36.9985C26.6115 35.5648 26.1884 33.7784 26.1884 31.6395C26.1649 29.9002 26.6115 28.1844 27.4811 26.6801C28.3743 25.1524 29.667 23.8831 31.2183 23.037C32.8636 22.1203 34.838 21.6737 37.1649 21.6737C37.2824 21.6737 37.4469 21.6737 37.6585 21.6972C37.87 21.7207 38.105 21.7207 38.3871 21.7442V14.3169C38.3871 14.1524 38.4576 14.0583 38.6221 14.0583H43.3935C43.511 14.0348 43.605 14.1289 43.6286 14.2229V14.2699V36.6459C43.6286 37.069 43.6521 37.5391 43.6756 38.0562C43.7226 38.5498 43.7461 39.0199 43.7696 39.4195C43.7696 39.584 43.6991 39.725 43.5345 39.7955C42.3123 40.3126 41.0196 40.6887 39.7033 40.9237C38.5281 41.1353 37.3059 41.2528 36.0837 41.2528ZM38.3871 36.5519V26.21C38.1756 26.163 37.964 26.116 37.7525 26.0925C37.4939 26.069 37.2354 26.0455 36.9768 26.0455C36.0602 26.0455 35.1435 26.2336 34.3209 26.6566C33.5217 27.0562 32.8401 27.6438 32.323 28.3959C31.8059 29.1481 31.5474 30.1588 31.5474 31.381C31.5239 32.2036 31.6649 33.0263 31.9469 33.8019C32.182 34.4365 32.5345 35.0006 33.0046 35.4707C33.4512 35.8938 33.9918 36.2229 34.6029 36.4109C35.2375 36.6224 35.8956 36.7165 36.5538 36.7165C36.9063 36.7165 37.2354 36.693 37.5409 36.6695C37.8465 36.693 38.1286 36.6459 38.3871 36.5519Z" fill="#FF3366"/>
</g>
</svg>
