<svg width="52" height="52" viewBox="0 0 52 52" fill="none" xmlns="http://www.w3.org/2000/svg">
<path d="M51.9966 25.9984C51.9966 41.1825 39.0589 53.0699 24.0447 51.9235C10.8079 50.9961 0 39.8482 0 25.9984C-4.0616e-08 11.6406 11.6406 0 25.9983 0C40.3561 0 51.9966 11.6406 51.9966 25.9984Z" fill="#9EE6FF"/>
<path d="M45.6686 26.3559C45.4784 37.0615 36.7467 45.6719 25.9985 45.6719C15.1116 45.6719 6.3252 36.8433 6.3252 25.9985C6.3252 15.1356 15.1323 6.3252 25.9985 6.3252C37.2622 6.3252 45.9641 15.7254 45.6686 26.3559Z" fill="#76D8FF"/>
<path d="M4.10742 40.0049C14.3412 55.9906 37.6587 55.9829 47.8895 40.0049H4.10742Z" fill="#C68142"/>
<path d="M12.0859 41.1837V47.9618C11.3224 47.4785 10.5914 46.9587 9.88477 46.3982V41.1837C9.88477 40.1887 11.0861 39.7249 11.7651 40.4039C11.9641 40.6029 12.0859 40.8791 12.0859 41.1837Z" fill="#AF6223"/>
<path d="M41.1319 43.9615V47.1333C40.4252 47.645 39.6901 48.1161 38.9307 48.5506V43.9615C38.9307 42.9666 40.132 42.5027 40.811 43.1817C41.01 43.3807 41.1319 43.6569 41.1319 43.9615Z" fill="#AF6223"/>
<path d="M34.5976 45.8702V50.5324C33.8788 50.7883 33.1437 51.0117 32.3965 51.1944V45.8702C32.3965 44.8752 33.5978 44.4114 34.2768 45.0904C34.4758 45.2894 34.5976 45.5656 34.5976 45.8702Z" fill="#AF6223"/>
<path d="M14.4609 40.0049V43.7297C14.4609 44.0343 14.5869 44.3104 14.7858 44.5094C15.4716 45.1949 16.6621 44.7111 16.6621 43.7297V40.0049H14.4609Z" fill="#AF6223"/>
<path d="M44.8799 40.0049V43.86C45.6719 43.0233 46.411 42.134 47.081 41.1958V40.0049H44.8799Z" fill="#AF6223"/>
<path d="M21.715 41.7076V51.6413C20.9677 51.5195 20.2327 51.3652 19.5138 51.1783L19.5098 41.7076C19.5098 40.7237 20.7016 40.2435 21.386 40.9278C21.585 41.1268 21.715 41.403 21.715 41.7076Z" fill="#AF6223"/>
<path d="M35.0322 40.0049V41.4635C35.0322 41.7681 35.1542 42.0403 35.3531 42.2392C36.0335 42.9331 37.2334 42.4419 37.2334 41.4635V40.0049H35.0322Z" fill="#AF6223"/>
<path d="M26.5518 40.0049V51.9865C27.295 51.9743 28.0301 51.9256 28.7529 51.8484V40.0049H26.5518Z" fill="#AF6223"/>
<path d="M23.1334 26.7837C23.1629 26.8627 23.1491 26.9491 23.0957 27.0143C22.7325 27.4581 21.0191 29.0577 15.2331 28.9813H15.0301C9.24739 29.0577 7.53266 27.4599 7.16816 27.0151C7.11435 26.9494 7.1008 26.8622 7.13106 26.7829C8.03982 24.4007 7.97976 24.5769 7.97976 24.515V19.8212C7.97976 15.8679 11.1846 12.6631 15.1379 12.6631H15.1442C19.0976 12.6631 22.3024 15.8679 22.3024 19.8213V24.5158C22.3024 24.5438 22.3074 24.5716 22.3172 24.5978L23.1334 26.7837Z" fill="#24272B"/>
<path d="M7.9497 26.7823C7.92158 26.862 7.93565 26.9511 7.9872 27.0167C8.33404 27.4385 9.88544 28.8915 14.9568 28.9805C9.23394 29.0415 7.53258 27.462 7.16697 27.0167C7.11542 26.9511 7.10135 26.862 7.12947 26.7823C7.98959 24.5109 7.97782 24.6042 7.97782 24.5138V19.8221C7.97782 15.8663 11.1838 12.665 15.1349 12.665H15.1443C15.2802 12.665 15.4161 12.6697 15.5521 12.6791C11.7884 12.8853 8.79805 16.0022 8.79805 19.8221C8.79315 24.8038 8.81055 24.5186 8.784 24.5982L7.9497 26.7823Z" fill="#13181E"/>
<path d="M25.3087 40.0832V34.1821C25.3087 31.5929 23.2079 29.4971 20.6212 29.4971H9.57378C6.99197 29.4971 4.88867 31.5954 4.88867 34.1871V40.0832H25.3087Z" fill="#B730AA"/>
<path d="M21.6221 29.6069V40.0835H25.3091V34.1824C25.3091 31.9371 23.7285 30.0653 21.6221 29.6069Z" fill="#A32391"/>
<path d="M8.57574 29.6069V40.0835H4.88867V34.1824C4.88867 31.9371 6.46928 30.0653 8.57574 29.6069Z" fill="#A32391"/>
<path d="M18.9441 31.15V33.7766C18.9441 34.2995 18.4325 34.6692 17.936 34.5051L15.3443 33.6485C15.1882 33.5969 15.0196 33.5969 14.8634 33.6483L12.2604 34.5062C11.764 34.6698 11.2529 34.3001 11.2529 33.7775V31.15C11.2529 27.7198 15.4146 26.0258 17.8213 28.4326C18.5156 29.1268 18.9441 30.0869 18.9441 31.15Z" fill="#FDFDFD"/>
<path d="M17.4463 23.397V30.4508C17.4463 31.7482 16.3948 32.7972 15.0999 32.7972H15.0974C13.8025 32.7972 12.751 31.7482 12.751 30.4508V23.397H17.4463Z" fill="#FFC27C"/>
<path d="M16.9624 31.879C15.6038 33.6518 12.751 32.686 12.751 30.4508V23.397H13.1852V30.0166C13.1852 31.9669 15.4385 33.05 16.9624 31.879Z" fill="#F7B26D"/>
<path d="M17.4463 23.7637V28.8147C16.0266 29.506 14.2686 29.5579 12.751 28.765V23.7637H17.4463Z" fill="#F7B26D"/>
<path d="M19.6849 19.1905C19.8144 19.1905 19.9193 19.2955 19.9193 19.4249V24.0369C19.9193 26.8222 17.537 29.0553 14.6998 28.8036C12.2018 28.5819 10.3438 26.3777 10.3438 23.8699V19.4249C10.3438 19.2955 10.4487 19.1905 10.5781 19.1905C16.3364 19.2136 16.1277 19.1337 16.256 19.2538L17.0801 20.025C17.1869 20.125 17.3581 20.1038 17.4373 19.9808L17.8769 19.298C17.92 19.231 17.9942 19.1905 18.0739 19.1905H19.6849Z" fill="#FFC27C"/>
<path d="M13.9716 21.6845V22.3884C13.9716 22.849 13.5982 23.2223 13.1377 23.2223C12.6771 23.2223 12.3037 22.849 12.3037 22.3884V21.6845C12.3037 21.224 12.6771 20.8506 13.1377 20.8506C13.5982 20.8506 13.9716 21.224 13.9716 21.6845Z" fill="#24272B"/>
<path d="M17.8886 21.6845V22.3884C17.8886 22.849 17.5152 23.2223 17.0547 23.2223C16.5941 23.2223 16.2207 22.849 16.2207 22.3884V21.6845C16.2207 21.224 16.5941 20.8506 17.0547 20.8506C17.5152 20.8506 17.8886 21.224 17.8886 21.6845Z" fill="#24272B"/>
<path d="M15.157 24.7644C14.9368 24.7644 14.7588 24.5863 14.7588 24.3662V23.3084C14.7588 23.0882 14.9368 22.9102 15.157 22.9102C15.3772 22.9102 15.5552 23.0882 15.5552 23.3084V24.3662C15.5552 24.5863 15.3772 24.7644 15.157 24.7644Z" fill="#24272B"/>
<path d="M15.1726 26.9385C14.7854 26.9362 14.4224 26.7842 14.1496 26.5096C13.9949 26.3535 13.9958 26.1013 14.1519 25.9461C14.3075 25.7919 14.5597 25.7914 14.7153 25.9484C14.9697 26.2048 15.3831 26.2061 15.6395 25.9516C15.7946 25.7974 16.0468 25.7969 16.2029 25.9539C16.3576 26.11 16.3567 26.3622 16.2006 26.5174C15.7367 26.9782 15.132 26.9465 15.1726 26.9385Z" fill="#24272B"/>
<g opacity="0.3">
<path d="M14.6125 20.208H12.9182C12.753 20.208 12.6191 20.0741 12.6191 19.9089C12.6191 19.7437 12.753 19.6099 12.9182 19.6099H14.6125C14.7777 19.6099 14.9116 19.7437 14.9116 19.9089C14.9116 20.0741 14.7777 20.208 14.6125 20.208Z" fill="#FDFDFD"/>
</g>
<g opacity="0.3">
<path d="M11.9053 20.208H11.6633C11.4981 20.208 11.3643 20.0741 11.3643 19.9089C11.3643 19.7437 11.4981 19.6099 11.6633 19.6099H11.9053C12.0705 19.6099 12.2044 19.7437 12.2044 19.9089C12.2044 20.0741 12.0705 20.208 11.9053 20.208Z" fill="#FDFDFD"/>
</g>
<path d="M47.109 40.0086V34.2843C47.109 31.639 44.9645 29.4946 42.3192 29.4946H31.3103C28.6634 29.4946 26.5176 31.6404 26.5176 34.2874V40.0086H47.109Z" fill="#43A1FF"/>
<path d="M29.9749 40.0088V29.687C27.9783 30.2656 26.5176 32.1036 26.5176 34.2845V40.0088H29.9749Z" fill="#2C8CFF"/>
<path d="M47.1088 40.0087V34.2844C47.1088 32.1022 45.6489 30.2659 43.6504 29.6875V40.0087H47.1088Z" fill="#2C8CFF"/>
<path d="M30.0127 18.0237V22.1727H43.3571V16.2622C42.7717 17.316 41.6466 18.0237 40.3586 18.0237H30.0127Z" fill="#13181E"/>
<path d="M40.3839 31.2139V33.6519C40.3839 34.1372 39.909 34.4804 39.4482 34.3281C36.8157 33.458 36.8941 33.4347 36.5962 33.5329L34.1802 34.3291C33.7195 34.481 33.2451 34.1378 33.2451 33.6528V31.2139C33.2451 29.2455 34.841 27.6445 36.8145 27.6445C37.8012 27.6445 38.6923 28.0423 39.3417 28.6917C39.9861 29.3361 40.3839 30.2272 40.3839 31.2139Z" fill="#2C8CFF"/>
<path d="M40.3839 30.7178V33.1558C40.3839 33.6411 39.909 33.9843 39.4482 33.832C36.8157 32.9619 36.8941 32.9386 36.5962 33.0368L34.1802 33.833C33.7195 33.9849 33.2451 33.6417 33.2451 33.1567V30.7178C33.2451 28.7494 34.841 27.1484 36.8145 27.1484C37.8012 27.1484 38.6923 27.5462 39.3417 28.1956C39.9861 28.84 40.3839 29.7311 40.3839 30.7178Z" fill="#FDFDFD"/>
<path d="M34.5342 28.4028V30.3013C34.5342 32.1964 36.8421 33.1467 38.1759 31.8132C38.5631 31.426 38.8073 30.8913 38.8073 30.3013V28.4028H34.5342Z" fill="#FFC27C"/>
<path d="M38.8104 28.4004V30.3027C38.8104 30.888 38.5622 31.4287 38.1742 31.8105C38.1551 31.8295 38.1296 31.855 38.1042 31.8741C38.1678 31.6705 38.206 31.4542 38.206 31.2315C38.206 30.1809 37.3543 29.3293 36.3037 29.3293H34.5352V28.4004H38.8104Z" fill="#F7B26D"/>
<path d="M41.6295 17.6758V24.149C41.6295 26.5306 40.021 28.7095 37.6845 29.1706C34.5187 29.7952 31.7412 27.3815 31.7412 24.3296V17.6758H41.6295Z" fill="#FFC27C"/>
<path d="M41.6282 17.6772V24.1495C41.6282 26.5308 40.0197 28.7092 37.684 29.1707C34.5195 29.7966 31.7432 27.3804 31.7432 24.3279V17.6772H41.6282Z" fill="#FFC27C"/>
<path d="M41.6282 17.6772V18.943C41.2296 19.0794 40.803 19.1528 40.3589 19.1528H31.7432V17.6772H41.6282Z" fill="#F7B26D"/>
<path d="M38.2637 21.8988V22.6256C38.2637 23.1012 38.6492 23.4867 39.1248 23.4867C39.6004 23.4867 39.986 23.1012 39.986 22.6256V21.8988C39.986 21.4232 39.6004 21.0376 39.1248 21.0376C38.6492 21.0376 38.2637 21.4232 38.2637 21.8988Z" fill="black"/>
<path d="M33.3848 21.8988V22.6256C33.3848 23.1012 33.7703 23.4867 34.2459 23.4867C34.7215 23.4867 35.1071 23.1012 35.1071 22.6256V21.8988C35.1071 21.4232 34.7215 21.0376 34.2459 21.0376C33.7703 21.0376 33.3848 21.4232 33.3848 21.8988Z" fill="black"/>
<path d="M36.6859 24.3788C36.5078 24.3788 36.3633 24.2343 36.3633 24.0562V23.2855C36.3633 23.1074 36.5078 22.9629 36.6859 22.9629C36.864 22.9629 37.0084 23.1074 37.0084 23.2855V24.0562C37.0084 24.2343 36.864 24.3788 36.6859 24.3788Z" fill="black"/>
<path d="M38.4461 26.4627C38.3687 26.6692 38.2569 26.8584 38.1193 27.0219C37.7752 27.4262 37.2633 27.6799 36.687 27.6799C36.1106 27.6799 35.5988 27.4219 35.2504 27.0176C35.1128 26.8541 35.0009 26.6649 34.9235 26.4627C34.8074 26.153 35.044 25.8262 35.3751 25.8262H37.9945C38.3257 25.8262 38.5622 26.153 38.4461 26.4627Z" fill="black"/>
<path d="M37.6644 26.8911C37.4296 27.1671 37.0801 27.3403 36.6867 27.3403C36.2933 27.3403 35.9439 27.1642 35.7061 26.8882C35.941 26.6122 36.2903 26.436 36.6838 26.436C37.0772 26.436 37.4296 26.6122 37.6644 26.8911Z" fill="#FC545D"/>
<path d="M34.7348 22.0368C34.7348 22.2046 34.5971 22.3422 34.4294 22.3422C34.2573 22.3422 34.124 22.2046 34.124 22.0368C34.124 21.8691 34.2573 21.7314 34.4294 21.7314C34.5971 21.7314 34.7348 21.8691 34.7348 22.0368Z" fill="#FDFDFD"/>
<path d="M39.6479 21.8674C39.6479 22.0351 39.5102 22.1728 39.3425 22.1728C39.1704 22.1728 39.0371 22.0351 39.0371 21.8674C39.0371 21.6997 39.1704 21.562 39.3425 21.562C39.5102 21.562 39.6479 21.6997 39.6479 21.8674Z" fill="#FDFDFD"/>
<path d="M30.0127 15.0232V18.6276H40.3586C42.2524 18.6276 43.7899 17.0952 43.7899 15.2014V14.6974C43.7899 13.72 42.9956 12.9258 42.0182 12.9258H32.1102C30.9546 12.9258 30.0127 13.8676 30.0127 15.0232Z" fill="#24272B"/>
<g opacity="0.3">
<path d="M37.5969 17.6755L33.8507 17.6755C33.6514 17.6755 33.4902 17.5143 33.4902 17.3151C33.4902 17.1158 33.6515 16.9546 33.8507 16.9546L37.5969 16.9546C37.7962 16.9546 37.9574 17.1158 37.9573 17.3151C37.9573 17.5143 37.7961 17.6755 37.5969 17.6755Z" fill="#FDFDFD"/>
</g>
<g opacity="0.3">
<path d="M39.4465 17.6755L38.8028 17.6755C38.6036 17.6755 38.4424 17.5143 38.4424 17.3151C38.4424 17.1158 38.6036 16.9546 38.8029 16.9546L39.4465 16.9546C39.6458 16.9546 39.807 17.1158 39.807 17.3151C39.8069 17.5143 39.6457 17.6755 39.4465 17.6755Z" fill="#FDFDFD"/>
</g>
<path d="M41.6284 20.6143L41.627 20.6144V24.0706L41.6284 24.0708C42.5815 24.0708 43.3566 23.2956 43.3566 22.3425C43.3566 21.3895 42.5815 20.6143 41.6284 20.6143Z" fill="#F7B26D"/>
<path d="M31.7409 20.6143L31.7424 20.6144V24.0706L31.7409 24.0708C30.7879 24.0708 30.0127 23.2956 30.0127 22.3425C30.0127 21.3895 30.7879 20.6143 31.7409 20.6143Z" fill="#F7B26D"/>
<g opacity="0.5">
<g opacity="0.5">
<path d="M5.96973 36.9975L5.96973 34.1497C5.96973 33.939 6.1402 33.7686 6.35087 33.7686C6.56154 33.7686 6.73201 33.939 6.73201 34.1497V36.9975C6.73201 37.2082 6.56154 37.3787 6.35087 37.3787C6.1402 37.3787 5.96973 37.2082 5.96973 36.9975Z" fill="#FDFDFD"/>
</g>
</g>
<g opacity="0.5">
<g opacity="0.5">
<path d="M5.96973 39.2988L5.96973 38.4817C5.96973 38.2711 6.1402 38.1006 6.35087 38.1006C6.56154 38.1006 6.73201 38.2711 6.73201 38.4817V39.2988C6.73201 39.5094 6.56154 39.6799 6.35087 39.6799C6.1402 39.6799 5.96973 39.5094 5.96973 39.2988Z" fill="#FDFDFD"/>
</g>
</g>
<g opacity="0.5">
<g opacity="0.5">
<path d="M27.4834 36.7534V33.9056C27.4834 33.6949 27.6539 33.5244 27.8645 33.5244C28.0752 33.5244 28.2457 33.6949 28.2457 33.9056V36.7534C28.2457 36.9641 28.0752 37.1345 27.8645 37.1345C27.6539 37.1345 27.4834 36.9641 27.4834 36.7534Z" fill="#FDFDFD"/>
</g>
</g>
<g opacity="0.5">
<g opacity="0.5">
<path d="M27.4834 39.0546V38.2376C27.4834 38.0269 27.6539 37.8564 27.8645 37.8564C28.0752 37.8564 28.2457 38.0269 28.2457 38.2376V39.0546C28.2457 39.2653 28.0752 39.4358 27.8645 39.4358C27.6539 39.4358 27.4834 39.2653 27.4834 39.0546Z" fill="#FDFDFD"/>
</g>
</g>
<path d="M28.9628 12.0563C28.9628 12.9116 28.2707 13.6059 27.4153 13.6059H21.7604C21.6093 13.6059 21.6756 13.6285 19.6262 15.1161C19.4568 15.2442 19.2171 15.1223 19.2171 14.9095V13.8641C19.2171 13.7215 19.1014 13.6059 18.9568 13.6059H18.8287C17.994 13.6059 17.3142 12.9406 17.2833 12.1141C17.2813 12.0956 17.2812 12.0769 17.2812 12.0563V5.73201C17.2812 4.87874 17.9754 4.18457 18.8287 4.18457H27.4153C28.2085 4.18457 28.8237 4.77998 28.9318 5.42835C28.9913 5.73951 28.9501 5.4151 28.9628 12.0563Z" fill="#FFBC50"/>
<path d="M18.5694 9.35555V4.21045C17.8396 4.3347 17.2812 4.96706 17.2812 5.73186V12.0573C17.2812 12.0766 17.2812 12.0959 17.284 12.1152C17.3143 12.9413 17.9945 13.605 18.8289 13.605H18.9583C19.1015 13.605 19.2172 13.7206 19.2172 13.8638V14.9103C19.2172 15.1223 19.4568 15.2435 19.6275 15.1168L21.6102 13.6573C21.6543 13.6215 21.7066 13.605 21.7617 13.605H27.4152C28.249 13.605 28.921 12.9457 28.9562 12.1232H21.337C19.8085 12.1232 18.5694 10.8841 18.5694 9.35555Z" fill="#FFB32C"/>
<g opacity="0.3">
<path d="M19.3021 5.21023L22.1883 5.21033C22.3568 5.21033 22.4934 5.07378 22.4934 4.90528C22.4934 4.73677 22.3568 4.60021 22.1883 4.6002L19.3021 4.6001C19.1336 4.60009 18.9971 4.73665 18.9971 4.90515C18.9971 5.07365 19.1336 5.21022 19.3021 5.21023Z" fill="#FDFDFD"/>
<path d="M24.6185 5.21023L24.8654 5.21024C25.0339 5.21024 25.1705 5.07368 25.1705 4.90518C25.1705 4.73668 25.0339 4.60011 24.8654 4.60011L24.6185 4.6001C24.45 4.60009 24.3135 4.73665 24.3135 4.90515C24.3135 5.07365 24.45 5.21022 24.6185 5.21023Z" fill="#FDFDFD"/>
</g>
<path d="M22.4548 7.1397C22.4548 7.34333 22.2877 7.50806 22.0841 7.50806H20.0884C19.8825 7.50806 19.7178 7.34333 19.7178 7.1397C19.7178 6.93377 19.8825 6.76904 20.0884 6.76904H22.0841C22.2877 6.76904 22.4548 6.93377 22.4548 7.1397Z" fill="#FDFDFD"/>
<path d="M22.4548 8.79497C22.4548 8.99861 22.2877 9.16334 22.0841 9.16334H20.0884C19.8825 9.16334 19.7178 8.99861 19.7178 8.79497C19.7178 8.58905 19.8825 8.42432 20.0884 8.42432H22.0841C22.2877 8.42432 22.4548 8.58905 22.4548 8.79497Z" fill="#FDFDFD"/>
<path d="M25.9297 10.4507C25.9297 10.6544 25.7626 10.8191 25.559 10.8191H20.0884C19.8825 10.8191 19.7178 10.6544 19.7178 10.4507C19.7178 10.2448 19.8825 10.0801 20.0884 10.0801H25.559C25.7626 10.0801 25.9297 10.2448 25.9297 10.4507Z" fill="#FDFDFD"/>
<path d="M23.0332 1.81257V8.13689C23.0332 8.99217 23.7254 9.68645 24.5807 9.68645H30.2356C30.2893 9.68645 30.343 9.70289 30.3864 9.7381L32.3699 11.1967C32.5393 11.3248 32.779 11.2029 32.779 10.99V9.9447C32.779 9.80206 32.8947 9.68645 33.0392 9.68645H33.1673C34.002 9.68645 34.6818 9.02113 34.7128 8.1947C34.7148 8.17613 34.7148 8.15747 34.7148 8.13689V1.81257C34.7148 0.959309 34.0206 0.265137 33.1673 0.265137H24.5807C23.7 0.265137 23.0332 0.988366 23.0332 1.81257Z" fill="#FC545D"/>
<path d="M33.4268 5.43612V0.291016C34.1567 0.41527 34.715 1.04763 34.715 1.81242V8.13791C34.715 8.15717 34.715 8.17644 34.7122 8.19572C34.6819 9.02186 34.0018 9.68554 33.1674 9.68554H33.0379C32.8947 9.68554 32.7791 9.80119 32.7791 9.94439V10.9908C32.7791 11.2029 32.5395 11.324 32.3687 11.1974L30.386 9.73786C30.342 9.70207 30.2896 9.68554 30.2346 9.68554H24.581C23.7472 9.68554 23.0752 9.02631 23.04 8.20373H30.6592C32.1877 8.20373 33.4268 6.96463 33.4268 5.43612Z" fill="#F14448"/>
<g opacity="0.3">
<path d="M31.2967 1.29079L28.4105 1.2909C28.242 1.2909 28.1055 1.15434 28.1055 0.985841C28.1055 0.817341 28.242 0.680772 28.4105 0.680766L31.2967 0.680664C31.4652 0.680658 31.6018 0.817217 31.6018 0.985717C31.6018 1.15422 31.4652 1.29079 31.2967 1.29079Z" fill="#FDFDFD"/>
<path d="M27.3781 1.29128L27.1312 1.29129C26.9627 1.2913 26.8262 1.15474 26.8262 0.986236C26.8262 0.817736 26.9627 0.681167 27.1312 0.681161L27.3781 0.681152C27.5466 0.681146 27.6832 0.817706 27.6832 0.986206C27.6832 1.15471 27.5466 1.29128 27.3781 1.29128Z" fill="#FDFDFD"/>
</g>
<path d="M24.6171 6.04185C24.6342 3.51938 24.5784 3.6468 24.6671 3.55551C24.7336 3.48583 24.8447 3.48637 24.9138 3.55551C25.0036 3.64479 24.9495 3.66475 24.9654 4.69823H26.4163C26.4316 3.6774 26.3792 3.64513 26.4662 3.55551C26.5325 3.48603 26.6443 3.48608 26.713 3.55551C26.7475 3.58981 26.7649 3.63146 26.7649 3.67985C26.7471 6.18944 26.8063 6.07428 26.713 6.16441C26.6041 6.27009 26.4163 6.19983 26.4163 6.04185V5.02347H24.9654C24.9494 6.05858 25.0037 6.07763 24.9138 6.16441C24.8044 6.26945 24.6171 6.20018 24.6171 6.04185Z" fill="#FDFDFD"/>
<path d="M26.4226 6.20726C26.3061 6.09029 26.3748 6.02433 26.3548 5.08417H25.026C25.0054 6.02067 25.0762 6.09126 24.9558 6.20805C24.8088 6.34883 24.5556 6.25384 24.5556 6.04166C24.5782 3.56084 24.503 3.63554 24.623 3.51288C24.7645 3.36508 25.026 3.46577 25.026 3.67967V4.63716H26.3548C26.3739 3.72366 26.3056 3.63206 26.4222 3.51288C26.5641 3.36457 26.8256 3.468 26.8256 3.67967C26.8017 6.16909 26.8795 6.08771 26.755 6.20805C26.6639 6.29593 26.5148 6.2995 26.4226 6.20726ZM24.9039 4.9624H26.4769C26.4868 6.09497 26.4521 6.06474 26.5091 6.12119C26.576 6.18938 26.7034 6.14395 26.7034 6.04166C26.6925 3.57232 26.7326 3.66146 26.6697 3.59855C26.5963 3.52385 26.4769 3.57657 26.4769 3.67967V4.75893H24.9039C24.8933 3.63514 24.9307 3.65928 24.8705 3.59855C24.7954 3.52407 24.6778 3.57749 24.6778 3.67967C24.688 6.18509 24.6506 6.0624 24.7099 6.12119C24.7772 6.18977 24.9039 6.14395 24.9039 6.04166V4.9624Z" fill="#FDFDFD"/>
<path d="M28.2454 4.20361C29.5651 4.20361 29.5507 6.23263 28.2454 6.23263C26.9385 6.23263 26.9188 4.20361 28.2454 4.20361ZM28.546 5.84214C29.0745 5.57459 28.9828 4.52152 28.2454 4.52152C27.4798 4.52152 27.4408 5.58988 27.9412 5.84214C28.126 5.93609 28.3476 5.94256 28.546 5.84214Z" fill="#FDFDFD"/>
<path d="M28.2458 6.29385C26.8468 6.29385 26.8513 4.14307 28.2458 4.14307C29.6491 4.14307 29.6283 6.29385 28.2458 6.29385ZM28.2458 4.26484C27.0139 4.26484 27.0094 6.17208 28.2458 6.17208C29.461 6.17208 29.4928 4.26484 28.2458 4.26484ZM27.9138 5.89681C27.4393 5.65689 27.4157 4.78364 27.9146 4.53792C28.3737 4.31237 28.9387 4.56958 28.9387 5.21459C28.9387 5.88711 28.3435 6.11414 27.9138 5.89681ZM28.2458 4.58274C27.5563 4.58274 27.5192 5.56119 27.9689 5.78813C28.1407 5.87559 28.3414 5.87797 28.5191 5.78813C28.925 5.58232 28.9148 4.84299 28.5195 4.6472C28.4314 4.60396 28.3418 4.58274 28.2458 4.58274Z" fill="#FDFDFD"/>
<path d="M29.7121 6.04129C29.7286 3.48905 29.6683 3.52955 29.7621 3.43239C29.8314 3.35978 29.9478 3.367 30.0108 3.4304C30.1047 3.52427 30.0443 3.49043 30.0608 6.04129C30.0608 6.26661 29.7121 6.2732 29.7121 6.04129Z" fill="#FDFDFD"/>
<path d="M29.7186 6.20706C29.6738 6.16204 29.6508 6.10631 29.6508 6.04146C29.6736 3.41315 29.5993 3.5124 29.7182 3.39031C29.8075 3.29651 29.9665 3.29968 30.0538 3.38754C30.178 3.51231 30.099 3.47194 30.1216 6.04146C30.1216 6.251 29.8634 6.35186 29.7186 6.20706ZM29.8844 3.44168C29.7199 3.44168 29.7833 3.49254 29.773 6.04146C29.773 6.07378 29.7829 6.09897 29.8051 6.12098C29.8721 6.18917 29.9995 6.14374 29.9995 6.04146C29.9893 3.42869 30.0267 3.53246 29.9673 3.47361C29.9459 3.45219 29.9189 3.44168 29.8844 3.44168Z" fill="#FDFDFD"/>
<path d="M30.8506 6.16404C30.4726 5.98289 30.4281 5.45796 30.7625 5.20695C31.0775 4.9699 31.5828 5.05575 31.8822 5.03838V5.00784C31.8822 4.68512 31.7351 4.53306 31.369 4.53306C30.9353 4.53306 30.8319 4.7119 30.7105 4.59057C30.6453 4.52579 30.6476 4.3929 30.7681 4.34168C31.4934 4.03471 32.2305 4.23422 32.2305 4.95806C32.2147 6.04118 32.2689 6.07714 32.1789 6.16404C32.1102 6.22999 31.9998 6.23162 31.9318 6.16404C31.8611 6.09331 31.8885 6.01445 31.8822 5.94193C31.5838 6.24782 31.1291 6.29755 30.8506 6.16404ZM31.8822 5.63949V5.31801C31.6538 5.34112 30.8867 5.21447 30.8867 5.62045C30.8867 6.05254 31.5636 6.00211 31.8822 5.63949Z" fill="#FDFDFD"/>
<path d="M30.8246 6.219C30.4 6.0155 30.3599 5.4329 30.7262 5.15819C31.0564 4.91011 31.5729 4.99366 31.8209 4.97752C31.8124 4.71604 31.6964 4.59397 31.3692 4.59397C30.9362 4.59397 30.8207 4.78683 30.6675 4.63363C30.5749 4.54097 30.5803 4.35564 30.7445 4.28558C31.5192 3.95798 32.2918 4.19514 32.2918 4.95808C32.2709 6.01658 32.3434 6.08972 32.2216 6.2079C32.082 6.34146 31.8487 6.26287 31.8237 6.07661C31.5265 6.31098 31.1015 6.3516 30.8246 6.219ZM30.8769 6.10913C30.9642 6.15078 31.0602 6.172 31.1625 6.172C31.6894 6.172 31.8679 5.84905 31.9435 5.79222C31.951 6.02538 31.9242 6.0705 31.9752 6.12103C32.0439 6.18943 32.1696 6.1435 32.1696 6.04151V4.95808C32.1696 4.26241 31.4497 4.11963 30.7921 4.39783C30.716 4.43034 30.7161 4.50986 30.7536 4.54736C30.8125 4.60631 30.8538 4.54659 31.0987 4.49639C31.178 4.48033 31.2692 4.4722 31.3692 4.4722C31.7749 4.4722 31.9435 4.65708 31.9435 5.00786V5.09929C31.712 5.12358 30.5997 4.93484 30.5997 5.65875C30.5997 5.86927 30.7096 6.02855 30.8769 6.10913ZM30.8258 5.62047C30.8258 5.13125 31.6856 5.28533 31.9435 5.25715V5.66252L31.928 5.67977C31.8519 5.76663 31.7571 5.84001 31.6468 5.89832C31.3212 6.06972 30.8258 6.01393 30.8258 5.62047ZM30.9479 5.62047C30.9479 5.91169 31.3553 5.91348 31.5897 5.79043C31.6801 5.74303 31.7579 5.68433 31.8213 5.61611V5.37892C31.6393 5.39587 30.9479 5.29752 30.9479 5.62047Z" fill="#FDFDFD"/>
</svg>
