<svg width="60" height="60" viewBox="0 0 60 60" fill="none" xmlns="http://www.w3.org/2000/svg">
<mask id="mask0_1_1281" style="mask-type:alpha" maskUnits="userSpaceOnUse" x="0" y="0" width="60" height="60">
<rect width="60" height="60" fill="#D9D9D9"/>
</mask>
<g mask="url(#mask0_1_1281)">
<path d="M6 2.11975C11.4087 1.8919 16.8283 2.18485 22.2424 2.09263C28.2153 1.90275 34.1828 2.06008 40.1611 2.08178C44.9025 2.09263 49.6439 2.06008 54.3854 2.09805C52.8935 18.552 51.3908 35.006 50.0074 51.4708C43.6548 53.2773 37.2967 55.0567 30.9441 56.8524C30.1303 57.1887 29.2949 56.8741 28.5137 56.6625C22.4757 54.9265 16.4377 53.2068 10.3888 51.5359C8.81556 35.0765 7.33454 18.6008 6 2.11975ZM30.2931 6.41091C30.0706 14.5267 30.2605 22.6424 30.1954 30.7582C30.2551 38.1796 30.0869 45.6064 30.2822 53.0278C35.6204 51.7692 40.888 50.223 46.1557 48.6986C47.4794 34.61 48.7705 20.5213 49.8772 6.41633C43.351 6.35123 36.8193 6.42718 30.2931 6.41091ZM23.501 38.1036C20.3654 37.2465 17.2677 36.2591 14.0886 35.581C13.9964 37.4689 14.029 39.3568 14.246 41.2339C18.9006 42.3677 23.4576 43.8595 28.1176 44.9717C28.1502 34.2248 28.1014 23.4725 28.1393 12.7256C26.6203 12.6876 25.1014 12.6659 23.5824 12.6334C23.4088 21.118 23.5715 29.6135 23.501 38.1036Z" fill="#D6BA32"/>
<path d="M30.2914 6.41105C36.8176 6.42733 43.3493 6.35138 49.8756 6.41648C48.7689 20.5214 47.4777 34.6101 46.154 48.6988C40.8864 50.2232 35.6187 51.7693 30.2806 53.0279C30.0853 45.6065 30.2534 38.1797 30.1938 30.7584C30.2589 22.6426 30.069 14.5268 30.2914 6.41105ZM32.1196 12.7203C32.1413 19.7077 32.1467 26.7005 32.1196 33.6879C35.3095 33.1725 38.4885 32.5812 41.6676 32.0007C41.6188 33.6282 41.5537 35.2557 41.4831 36.8832C38.3855 37.7078 35.2932 38.5595 32.1793 39.3244C32.1305 41.2014 32.125 43.0785 32.1413 44.961C36.0636 44.0821 39.9262 42.9754 43.8213 41.9935C44.3095 41.7656 45.2481 41.7928 45.2047 41.0278C45.6766 36.0043 45.9696 30.9591 46.4253 25.9247C43.1974 26.1905 40.0021 26.733 36.7743 26.9555C36.7471 24.1019 36.7417 21.2484 36.7851 18.3948C40.1811 18.3948 43.5717 18.3948 46.9678 18.4003C47.1848 16.4961 47.3747 14.5865 47.5211 12.6769C42.3891 12.6986 37.2516 12.6281 32.1196 12.7203Z" fill="#FFDA3E"/>
<path d="M23.4998 38.1041C23.5704 29.614 23.4076 21.1185 23.5812 12.6338C25.1002 12.6663 26.6192 12.688 28.1382 12.726C28.1002 23.4729 28.1491 34.2252 28.1165 44.9721C23.4565 43.86 18.8995 42.3681 14.2449 41.2343C14.0279 39.3572 13.9953 37.4693 14.0875 35.5815C17.2665 36.2596 20.3642 37.2469 23.4998 38.1041Z" fill="#EBEBEB"/>
</g>
</svg>
