<svg width="60" height="60" viewBox="0 0 60 60" fill="none" xmlns="http://www.w3.org/2000/svg">
<mask id="mask0_1_875" style="mask-type:alpha" maskUnits="userSpaceOnUse" x="0" y="0" width="60" height="60">
<rect width="60" height="60" fill="#D9D9D9"/>
</mask>
<g mask="url(#mask0_1_875)">
<path d="M11.988 2H48.42C53.942 2 58.408 6.466 58.408 11.988V47.012C58.408 52.534 53.942 57 48.42 57H11.988C6.466 57 2 52.534 2 47.012V11.988C2 6.466 6.466 2 11.988 2Z" fill="#001E36"/>
<path d="M31.6106 40.874H16.7166C16.4526 40.874 16.3426 40.742 16.3426 40.456V16.432C16.3206 16.278 16.4306 16.124 16.6066 16.102C16.6286 16.102 16.6506 16.102 16.6946 16.102H21.2926C21.4026 16.08 21.5566 16.168 21.5566 16.3C21.5566 16.322 21.5566 16.344 21.5566 16.366V36.1H32.4246C32.6666 36.1 32.7326 36.21 32.6886 36.43L32.0066 40.522C32.0066 40.632 31.9406 40.742 31.8746 40.808C31.7866 40.852 31.6986 40.874 31.6106 40.874Z" fill="#31A8FF"/>
<path d="M35.3717 22.064H39.4857C39.7277 22.064 39.9037 22.218 39.9697 22.438C40.0577 22.592 40.1237 22.79 40.1677 22.988C40.2117 23.23 40.2557 23.472 40.2777 23.714C40.2997 23.978 40.3217 24.264 40.3217 24.55C41.0257 23.736 41.8837 23.054 42.8297 22.526C43.9077 21.932 45.1177 21.646 46.3277 21.69C46.4817 21.668 46.6357 21.778 46.6577 21.954C46.6577 21.976 46.6577 21.998 46.6577 22.042V26.64C46.6577 26.838 46.5477 26.904 46.2837 26.904C44.7657 26.816 43.2257 27.102 41.8397 27.696C41.3777 27.916 40.9157 28.18 40.5637 28.576V40.566C40.5637 40.808 40.4757 40.896 40.2557 40.896H35.6797C35.4817 40.918 35.3277 40.808 35.3057 40.61C35.3057 40.588 35.3057 40.544 35.3057 40.522V27.498C35.3057 26.926 35.3057 26.354 35.2837 25.738C35.2617 25.122 35.2617 24.506 35.2397 23.912C35.2177 23.384 35.1737 22.878 35.1077 22.35C35.0857 22.24 35.1517 22.108 35.2617 22.086C35.3057 22.042 35.3277 22.042 35.3717 22.064Z" fill="#31A8FF"/>
</g>
</svg>
