<svg width="52" height="52" viewBox="0 0 52 52" fill="none" xmlns="http://www.w3.org/2000/svg">
<path d="M26 52C40.3594 52 52 40.3594 52 26C52 11.6406 40.3594 0 26 0C11.6406 0 0 11.6406 0 26C0 40.3594 11.6406 52 26 52Z" fill="url(#paint0_linear_362_984)"/>
<path d="M26.0004 48.4545C38.4017 48.4545 48.455 38.4013 48.455 26C48.455 13.5987 38.4017 3.54541 26.0004 3.54541C13.5991 3.54541 3.5459 13.5987 3.5459 26C3.5459 38.4013 13.5991 48.4545 26.0004 48.4545Z" fill="url(#paint1_linear_362_984)"/>
<path d="M27.3121 24.189H27.2441V22.0381L28.228 23.019C27.8583 23.354 27.5485 23.7497 27.3121 24.189Z" fill="url(#paint2_linear_362_984)"/>
<path d="M47.0073 33.9449C45.3936 38.2106 42.5193 41.8838 38.7667 44.4758C35.0141 47.0678 30.5612 48.4556 26.0004 48.4547H25.2057V48.4399L14.5723 37.8183H19.4709V22.0381H18.0232L15.2193 19.2372C15.725 19.6566 16.3617 19.8855 17.0186 19.8842C17.7746 19.8787 18.4976 19.5742 19.0297 19.0372C19.5617 18.5001 19.8595 17.7743 19.8579 17.0183C19.8584 16.4004 19.656 15.7994 19.2818 15.3076L26.0152 22.0381H22.5436V37.8183H27.4364V30.0035C27.4364 27.9353 27.8264 25.9558 30.3909 25.9558C32.9554 25.9558 32.9377 28.3194 32.9377 30.1365V37.8183H37.8186V29.1497C37.8186 26.786 37.5232 24.7178 36.4211 23.3588L47.0073 33.9449Z" fill="url(#paint3_linear_362_984)"/>
<path d="M37.818 37.8182V29.1496C37.818 24.9069 36.905 21.6421 31.9473 21.6421C29.563 21.6421 27.9646 22.948 27.3116 24.1889H27.2436V22.038H22.543V37.8182H27.4357V30.0035C27.4357 27.9353 27.8257 25.9557 30.3902 25.9557C32.9548 25.9557 32.9371 28.3194 32.9371 30.1364V37.8182H37.818Z" fill="#FDFDFD"/>
<path d="M14.5723 22.0376H19.4709V37.8178H14.5723V22.0376Z" fill="#FDFDFD"/>
<path d="M17.0182 14.1817C16.4532 14.1793 15.9002 14.3449 15.4294 14.6575C14.9587 14.97 14.5914 15.4153 14.3743 15.9369C14.1571 16.4586 14.0998 17.033 14.2097 17.5872C14.3196 18.1415 14.5917 18.6506 14.9914 19.0499C15.3911 19.4492 15.9005 19.7208 16.4549 19.8301C17.0092 19.9394 17.5836 19.8815 18.105 19.6638C18.6264 19.4461 19.0713 19.0783 19.3834 18.6073C19.6954 18.1362 19.8604 17.5831 19.8575 17.018C19.8575 16.6453 19.784 16.2762 19.6413 15.9319C19.4986 15.5876 19.2894 15.2748 19.0257 15.0114C18.762 14.748 18.449 14.5391 18.1045 14.3967C17.7601 14.2544 17.3909 14.1813 17.0182 14.1817Z" fill="#FDFDFD"/>
<defs>
<linearGradient id="paint0_linear_362_984" x1="7.61386" y1="7.61386" x2="44.3861" y2="44.3861" gradientUnits="userSpaceOnUse">
<stop stop-color="#2196F3"/>
<stop offset="1" stop-color="#0D47A1"/>
</linearGradient>
<linearGradient id="paint1_linear_362_984" x1="10.1227" y1="10.1222" x2="41.8782" y2="41.8777" gradientUnits="userSpaceOnUse">
<stop stop-color="#0D47A1"/>
<stop offset="1" stop-color="#2196F3"/>
</linearGradient>
<linearGradient id="paint2_linear_362_984" x1="26.7064" y1="22.5758" x2="27.8173" y2="23.6838" gradientUnits="userSpaceOnUse">
<stop stop-color="#0D47A1"/>
<stop offset="1" stop-color="#0D47A1" stop-opacity="0"/>
</linearGradient>
<linearGradient id="paint3_linear_362_984" x1="14.6845" y1="19.7778" x2="39.3314" y2="44.4247" gradientUnits="userSpaceOnUse">
<stop stop-color="#0D47A1"/>
<stop offset="1" stop-color="#0D47A1" stop-opacity="0"/>
</linearGradient>
</defs>
</svg>
