<svg width="52" height="52" viewBox="0 0 52 52" fill="none" xmlns="http://www.w3.org/2000/svg">
<path d="M26 52C40.3594 52 52 40.3594 52 26C52 11.6406 40.3594 0 26 0C11.6406 0 0 11.6406 0 26C0 40.3594 11.6406 52 26 52Z" fill="#6BBEF6"/>
<path d="M33.2946 50.9621C30.9803 51.638 28.532 52 26 52C11.6409 52 0 40.3591 0 26C0 11.6399 11.6409 0 26 0C28.532 0 30.9803 0.361969 33.2946 1.03787C22.4865 4.19037 14.5892 14.1728 14.5892 26C14.5892 37.8272 22.4865 47.8096 33.2946 50.9621Z" fill="#528ECB"/>
<path d="M18.4051 23.1068C17.1778 30.4695 10.6323 33.6051 13.2228 39.4685C15.8145 45.3308 15.8479 47.0708 12.7635 48.3828H12.7624C10.1311 46.8228 7.79888 44.8128 5.87163 42.4587C7.24648 37.2713 1.00029 33.149 0.171539 29.0047C0.171539 29.0026 0.170523 29.0006 0.170523 28.9984C0.0586016 28.0149 0 27.0136 0 25.9998C0 19.7829 2.18146 14.0765 5.82146 9.60254C12.2686 11.3812 19.6313 15.7442 18.4051 23.1068Z" fill="#86F1A7"/>
<path d="M12.7624 48.3832H12.7635C15.8479 47.0713 15.8144 45.3313 13.2228 39.469C11.7434 36.1205 13.2437 33.6614 15.0315 30.7968C14.7415 29.2422 14.5892 27.639 14.5892 26.0003C14.5892 22.4477 15.3026 19.0621 16.5925 15.9775C14.1546 12.7966 9.81297 10.7043 5.82136 9.60303C2.18146 14.0769 0 19.7832 0 26.0002C0 27.014 0.0586016 28.0153 0.170523 28.9988C0.170523 29.001 0.171539 29.003 0.171539 29.0051C1.00019 33.1494 7.24648 37.2718 5.87163 42.4592C7.79898 44.8133 10.1312 46.8232 12.7624 48.3832Z" fill="#66B49D"/>
<path d="M15.8137 49.9271L15.8135 49.9275C18.9419 51.2612 22.3847 51.9998 26.0002 51.9998C29.6157 51.9998 33.0584 51.2612 36.1868 49.9276V49.9271C33.0585 48.5931 29.6151 47.8555 26.0002 47.8555C22.3853 47.8556 18.942 48.5931 15.8137 49.9271Z" fill="#E4F6FF"/>
<path d="M33.2927 50.9611C30.8675 50.2536 28.5895 49.2011 26.5138 47.862C26.3429 47.8586 26.1719 47.8555 26.0002 47.8555C22.3853 47.8555 18.942 48.5931 15.8137 49.9271L15.8135 49.9275C18.9419 51.2611 22.3847 51.9998 26.0002 51.9998C28.5322 51.9997 30.9789 51.6362 33.2927 50.9611Z" fill="#B9E4EF"/>
<path d="M52 25.9998C52 32.8414 49.356 39.0657 45.037 43.709C42.5112 41.7221 40.3842 37.3999 40.3842 33.4691C40.3842 28.1519 46.9297 28.9701 46.9297 25.1522C46.9297 21.3344 37.9307 24.0609 37.9307 16.9714C37.9307 12.3855 42.3533 9.93511 45.4775 8.77588C49.536 13.3628 52 19.3935 52 25.9998Z" fill="#86F1A7"/>
<path d="M21.0877 3.88244C22.9584 4.35014 23.2692 11.9269 20.2696 11.9269C17.2699 11.9269 14.2021 10.6998 14.2021 8.85911C14.2021 7.01839 17.8153 3.06436 21.0877 3.88244Z" fill="#E4F6FF"/>
<path d="M21.0877 3.88244C17.8153 3.06436 14.2021 7.01839 14.2021 8.85911C14.2021 10.3952 16.3389 11.5033 18.7894 11.8282C19.856 10.1909 21.102 8.68147 22.4995 7.32734C22.4214 5.63927 21.9026 4.08618 21.0877 3.88244Z" fill="#B9E4EF"/>
<path d="M50.6911 9.5354C50.6911 12.5048 49.0307 15.0859 46.5876 16.401C45.489 16.9932 44.2325 17.3291 42.8973 17.3291C41.5623 17.3291 40.3056 16.9932 39.207 16.401C36.764 15.0859 35.1035 12.5047 35.1035 9.5354C35.1035 5.23098 38.5929 1.7417 42.8972 1.7417C47.2015 1.7417 50.6911 5.23098 50.6911 9.5354Z" fill="#F4DD45"/>
<path d="M40.88 16.401C41.7463 16.8677 42.7099 17.1752 43.7342 17.2841C43.4591 17.3145 43.1797 17.3291 42.8972 17.3291C41.5622 17.3291 40.3056 16.9932 39.207 16.401C36.764 15.0859 35.1035 12.5047 35.1035 9.5354C35.1035 5.23098 38.5929 1.7417 42.8972 1.7417C43.1798 1.7417 43.4591 1.75632 43.7342 1.78568C39.8232 2.2031 36.7765 5.51353 36.7765 9.5355C36.7765 12.5047 38.4369 15.0859 40.88 16.401Z" fill="#EAB14D"/>
<path d="M46.5876 16.401C45.489 16.9932 44.2324 17.3291 42.8973 17.3291C41.5623 17.3291 40.3056 16.9932 39.207 16.401C39.5011 14.6287 41.0411 13.2769 42.8973 13.2769C44.7535 13.2769 46.2936 14.6287 46.5876 16.401Z" fill="#DA4A54"/>
<path d="M42.897 13.277C44.9636 13.277 46.6388 11.6017 46.6388 9.53522C46.6388 7.4687 44.9636 5.79346 42.897 5.79346C40.8305 5.79346 39.1553 7.4687 39.1553 9.53522C39.1553 11.6017 40.8305 13.277 42.897 13.277Z" fill="#F1B986"/>
<path d="M42.8976 5.79346C41.9091 5.79346 41.0108 6.17746 40.3418 6.8035C40.3419 6.8035 42.5875 9.53512 46.6394 9.53512C46.6394 7.46873 44.9642 5.79346 42.8976 5.79346Z" fill="#BE694F"/>
<path d="M43.9206 36.4954C43.9206 39.4647 42.2602 42.0459 39.8171 43.361C38.7185 43.9532 37.462 44.2891 36.1268 44.2891C34.7917 44.2891 33.5351 43.9532 32.4365 43.361C29.9935 42.0459 28.333 39.4646 28.333 36.4954C28.333 32.1909 31.8224 28.7017 36.1267 28.7017C40.431 28.7017 43.9206 32.1909 43.9206 36.4954Z" fill="#DA4A54"/>
<path d="M34.1095 43.361C34.9758 43.8277 35.9394 44.1352 36.9637 44.2441C36.6886 44.2744 36.4092 44.2891 36.1267 44.2891C34.7917 44.2891 33.5351 43.9532 32.4365 43.361C29.9935 42.0459 28.333 39.4646 28.333 36.4954C28.333 32.1909 31.8224 28.7017 36.1267 28.7017C36.4093 28.7017 36.6886 28.7163 36.9637 28.7456C33.0527 29.1631 30.0059 32.4735 30.0059 36.4955C30.0059 39.4646 31.6664 42.0459 34.1095 43.361Z" fill="#C32430"/>
<path d="M39.8171 43.361C38.7185 43.9532 37.4619 44.2891 36.1268 44.2891C34.7917 44.2891 33.5351 43.9532 32.4365 43.361C32.7305 41.5886 34.2706 40.2368 36.1268 40.2368C37.983 40.2368 39.523 41.5886 39.8171 43.361Z" fill="#FDFDFD"/>
<path d="M36.1265 40.2369C38.1931 40.2369 39.8683 38.5617 39.8683 36.4952C39.8683 34.4287 38.1931 32.7534 36.1265 32.7534C34.06 32.7534 32.3848 34.4287 32.3848 36.4952C32.3848 38.5617 34.06 40.2369 36.1265 40.2369Z" fill="#F1D0A5"/>
<path d="M36.1271 32.7534C35.1386 32.7534 34.2403 33.1374 33.5713 33.7635C33.5713 33.7635 35.817 36.4951 39.8689 36.4951C39.8689 34.4287 38.1937 32.7534 36.1271 32.7534Z" fill="#404A4A"/>
<path d="M15.5874 11.6228C15.5874 14.5922 13.927 17.1733 11.4839 18.4884C10.3853 19.0806 9.12874 19.4165 7.7936 19.4165C6.45846 19.4165 5.20193 19.0806 4.10333 18.4884C1.66045 17.1733 0 14.5922 0 11.6228C0 7.31838 3.48938 3.8291 7.7937 3.8291C12.098 3.8291 15.5874 7.31848 15.5874 11.6228Z" fill="#BE694F"/>
<path d="M5.77647 18.4885C6.6428 18.9552 7.60642 19.2627 8.63068 19.3716C8.35555 19.402 8.07615 19.4166 7.7937 19.4166C6.45866 19.4166 5.20213 19.0807 4.10353 18.4885C1.66045 17.1733 0 14.5922 0 11.6228C0 7.31838 3.48938 3.8291 7.7937 3.8291C8.07625 3.8291 8.35555 3.84373 8.63068 3.87308C4.71971 4.2905 1.67294 7.60093 1.67294 11.6229C1.67304 14.5922 3.33348 17.1733 5.77647 18.4885Z" fill="#934D36"/>
<path d="M11.4841 18.4884C10.3855 19.0806 9.12893 19.4165 7.79379 19.4165C6.45865 19.4165 5.20212 19.0806 4.10352 18.4884C4.39754 16.7161 5.93763 15.3643 7.79379 15.3643C9.64995 15.3643 11.19 16.716 11.4841 18.4884Z" fill="#6BBEF6"/>
<path d="M7.79352 15.3644C9.86004 15.3644 11.5353 13.6891 11.5353 11.6226C11.5353 9.55611 9.86004 7.88086 7.79352 7.88086C5.727 7.88086 4.05176 9.55611 4.05176 11.6226C4.05176 13.6891 5.727 15.3644 7.79352 15.3644Z" fill="#F1D0A5"/>
<path d="M7.7941 7.88086C6.80559 7.88086 5.90727 8.26487 5.23828 8.8909C5.23828 8.8909 7.48403 11.6225 11.5359 11.6225C11.5359 9.55603 9.86059 7.88086 7.7941 7.88086Z" fill="#EAB14D"/>
</svg>
