<svg width="188" height="31" viewBox="0 0 188 31" fill="none" xmlns="http://www.w3.org/2000/svg">
<g clip-path="url(#clip0_1_157)">
<path d="M14.5343 13.8496V22.1276C14.5343 23.3102 13.5567 24.271 12.3493 24.271C11.1419 24.271 10.1643 23.312 10.1643 22.1276V13.8496C10.1643 12.2845 8.86647 11.0096 7.26916 11.0096C5.67185 11.0096 4.37404 12.2827 4.37404 13.8496V22.1276C4.37404 23.3102 3.39644 24.271 2.18904 24.271C0.981643 24.271 0.0078125 23.3102 0.0078125 22.1276V13.8496C0.0078125 9.92125 3.26647 6.72461 7.27105 6.72461C11.2756 6.72461 14.5343 9.92125 14.5343 13.8496Z" fill="#845EC2"/>
<path d="M18.0488 29.4544C16.977 29.4544 16.0955 28.6173 16.0635 27.5604C16.0315 26.485 16.896 25.587 17.9923 25.5574C22.0685 25.4447 25.022 23.8575 26.77 20.8438C28.0377 18.6578 28.2561 16.4239 28.2844 16.0525C28.1789 12.5491 27.0431 9.8828 24.9108 8.12742C22.6901 6.29998 19.7083 5.69945 17.5986 5.51652C15.2761 5.31512 13.4716 5.56641 13.4528 5.57011C12.3678 5.73271 11.3563 4.9973 11.1925 3.93299C11.0286 2.86867 11.7764 1.87642 12.8613 1.71567C13.223 1.66208 21.7784 0.461032 27.465 5.14143C30.5259 7.65993 32.1383 11.3259 32.2588 16.0359C32.2588 16.0784 32.2588 16.1209 32.2588 16.1634C32.2532 16.2946 32.1044 19.4339 30.3131 22.6139C28.6159 25.6258 25.1218 29.2566 18.1053 29.4525C18.0865 29.4525 18.0677 29.4525 18.0488 29.4525V29.4544Z" fill="#845EC2"/>
<path d="M14.5341 27.535C14.5341 26.4743 13.6564 25.6133 12.5752 25.6133C11.494 25.6133 10.6162 26.4743 10.6162 27.535C10.6162 28.5956 11.494 29.4566 12.5752 29.4566C13.6564 29.4566 14.5341 28.5956 14.5341 27.535Z" fill="#845EC2"/>
<path d="M9.6484 3.46269C9.6484 2.40208 8.77063 1.54102 7.68943 1.54102C6.60824 1.54102 5.73047 2.40208 5.73047 3.46269C5.73047 4.52331 6.60824 5.38437 7.68943 5.38437C8.77063 5.38437 9.6484 4.52331 9.6484 3.46269Z" fill="#845EC2"/>
<path d="M89.2763 13.3329L97.4399 0.845703H93.1584C92.1601 0.845703 91.4462 1.26515 91.0187 2.10588L86.5752 9.46184L89.2763 13.3329Z" fill="black"/>
<path d="M85.1528 10.8561L81.8094 5.86901C81.7077 5.71749 81.5363 5.62695 81.3517 5.62695H77.1531C76.7199 5.62695 76.458 6.09629 76.6897 6.45475L82.0053 14.657L75.7969 24.2469H81.5777L85.0737 18.3673L88.4284 24.2469H94.1377L85.1566 10.8561H85.1528Z" fill="black"/>
<path d="M54.1581 24.2498H51.651C50.9352 24.2498 50.3494 24.0281 49.8955 23.5828C49.4415 23.1375 49.2155 22.5628 49.2155 21.8607V12.3022C49.2155 11.1769 48.8689 10.3583 48.1757 9.84277C47.4825 9.32725 46.7065 9.07041 45.8476 9.07041C44.9886 9.07041 44.2239 9.32909 43.5552 9.84277C42.8865 10.3583 42.5512 11.1787 42.5512 12.3022V24.2517H37.5352V13.287C37.5352 10.1015 38.3828 7.96914 40.078 6.89004C41.7733 5.81279 43.6475 5.22705 45.7025 5.13281C47.8046 5.13281 49.7391 5.67236 51.506 6.74961C53.2728 7.82871 54.1562 10.0072 54.1562 13.287V24.2517L54.1581 24.2498Z" fill="black"/>
<path d="M71.1375 18.4848H74.7202C74.1947 20.4527 73.1907 21.953 71.7102 22.9841C70.2296 24.0632 68.3667 24.6009 66.1215 24.6009C63.3978 24.6009 61.273 23.7343 59.7435 22.0011C58.214 20.3141 57.4512 17.9009 57.4512 14.7615C57.4512 11.6222 58.1914 9.41963 59.672 7.73262C61.1996 5.99942 63.3262 5.13281 66.0499 5.13281C68.9168 5.13281 71.1375 5.97539 72.7141 7.66241C74.2417 9.39746 75.0065 11.8088 75.0065 14.902V15.6743C75.0065 15.909 74.982 16.0734 74.9349 16.1658H62.5388C62.5859 17.6182 62.9438 18.6954 63.6144 19.3994C64.2341 20.1496 65.1665 20.5247 66.4097 20.5247C67.2215 20.5247 67.9147 20.3603 68.4873 20.0332C68.6304 19.987 68.7623 19.9039 68.881 19.7875C68.9996 19.671 69.1315 19.5417 69.2746 19.4013C69.3217 19.2608 69.5007 19.0742 69.8115 18.8396C70.1223 18.6049 70.563 18.4885 71.1375 18.4885V18.4848ZM62.5388 13.0025H69.8473C69.7512 11.7367 69.4178 10.7999 68.8433 10.1902C68.2217 9.5342 67.3383 9.20529 66.193 9.20529C65.142 9.20529 64.2812 9.5342 63.6144 10.1902C62.9457 10.8461 62.5859 11.7829 62.5388 13.0025Z" fill="black"/>
<path d="M109.344 0H111.779C112.448 0 113.021 0.245753 113.499 0.737259C113.976 1.22877 114.215 1.78125 114.215 2.38916V16.0959C114.215 19.4237 113.235 21.6725 111.276 22.844C109.317 24.0154 107.193 24.6012 104.899 24.6012C103.655 24.6012 102.439 24.4016 101.244 24.0044C100.05 23.6071 99.0951 22.9622 98.3774 22.0716C96.9911 20.3384 96.2998 17.9714 96.2998 14.9725C96.2998 11.9735 96.9911 9.65459 98.3774 7.87334C99.8109 6.0459 101.649 5.13125 103.895 5.13125C105.089 5.13125 106.14 5.36592 107.048 5.8334C108.003 6.39512 108.767 7.12315 109.34 8.01192V0H109.344ZM101.175 14.76C101.175 16.6355 101.532 18.0638 102.25 19.0468C102.968 20.0298 103.992 20.5232 105.332 20.5232C106.671 20.5232 107.624 20.0317 108.342 19.0468C109.01 18.0619 109.346 16.6336 109.346 14.76C109.346 13.073 108.988 11.737 108.27 10.754C107.505 9.81719 106.479 9.34786 105.189 9.34786C103.898 9.34786 102.968 9.83936 102.25 10.8242C101.534 11.7629 101.175 13.073 101.175 14.76Z" fill="black"/>
<path d="M130.533 18.4848H134.116C133.59 20.4527 132.586 21.953 131.106 22.9841C129.625 24.0632 127.762 24.6009 125.517 24.6009C122.793 24.6009 120.669 23.7343 119.139 22.0011C117.61 20.3141 116.847 17.9009 116.847 14.7615C116.847 11.6222 117.587 9.41963 119.067 7.73262C120.595 5.99942 122.722 5.13281 125.445 5.13281C128.312 5.13281 130.533 5.97539 132.11 7.66241C133.637 9.39746 134.402 11.8088 134.402 14.902V15.6743C134.402 15.909 134.378 16.0734 134.33 16.1658H121.934C121.981 17.6182 122.339 18.6954 123.01 19.3994C123.63 20.1496 124.562 20.5247 125.805 20.5247C126.617 20.5247 127.31 20.3603 127.883 20.0332C128.026 19.987 128.158 19.9039 128.276 19.7875C128.395 19.671 128.527 19.5417 128.67 19.4013C128.717 19.2608 128.896 19.0742 129.207 18.8396C129.518 18.6049 129.959 18.4885 130.533 18.4885V18.4848ZM121.934 13.0025H129.243C129.147 11.7367 128.813 10.7999 128.239 10.1902C127.617 9.5342 126.734 9.20529 125.589 9.20529C124.538 9.20529 123.677 9.5342 123.01 10.1902C122.341 10.8461 121.981 11.7829 121.934 13.0025Z" fill="black"/>
<path d="M154.016 24.2497H149.072V12.3002C149.072 11.1749 148.725 10.3563 148.032 9.84082C147.339 9.32529 146.563 9.06845 145.704 9.06845C144.845 9.06845 144.08 9.32714 143.412 9.84082C142.743 10.3563 142.408 11.1768 142.408 12.3002V24.2497H137.392V13.2851C137.392 10.0995 138.239 7.96718 139.934 6.88809C141.63 5.81084 143.504 5.2251 145.559 5.13086C146.657 5.13086 147.733 5.24912 148.784 5.48194C149.833 5.7166 150.79 6.18409 151.651 6.88809C152.366 6.28017 153.214 5.84595 154.193 5.58726C155.171 5.33042 156.188 5.17705 157.239 5.13086C159.341 5.13086 161.276 5.67041 163.043 6.74766C164.81 7.82675 165.693 10.0053 165.693 13.2851V24.2497H163.186C162.47 24.2497 161.884 24.028 161.43 23.5827C160.976 23.1374 160.75 22.5627 160.75 21.8605V12.302C160.75 11.1768 160.404 10.3582 159.711 9.84267C159.017 9.32714 158.241 9.0703 157.382 9.0703C156.524 9.0703 155.746 9.32899 155.054 9.84267C154.361 10.3582 154.015 11.1786 154.015 12.302V24.2516L154.016 24.2497Z" fill="black"/>
<path d="M171.243 30.9991V27.0042H172.605C173.56 27.0042 174.312 26.7806 174.862 26.3372C175.41 25.8918 175.517 25.1768 175.184 24.1938L168.52 5.56641H174.037L177.906 18.7816L181.274 7.25342C181.56 6.12813 182.325 5.56641 183.566 5.56641H187.005L179.697 26.8638C179.124 28.4104 178.407 29.5098 177.548 30.1676C176.689 30.7293 175.278 31.0009 173.321 31.0009C173.178 31.0009 173.01 30.9898 172.82 30.9898C172.63 30.9898 172.462 31.0009 172.319 31.0009H171.243V30.9991Z" fill="black"/>
</g>
<defs>
<clipPath id="clip0_1_157">
<rect width="187" height="31" fill="white" transform="translate(0.00585938)"/>
</clipPath>
</defs>
</svg>
