<svg width="20" height="20" viewBox="0 0 20 20" fill="none" xmlns="http://www.w3.org/2000/svg">
<path d="M9.99995 15.8537C10.4314 15.8537 10.7811 15.5039 10.7811 15.0725C10.7811 14.641 10.4314 14.2913 9.99995 14.2913C9.56851 14.2913 9.21875 14.641 9.21875 15.0725C9.21875 15.5039 9.56851 15.8537 9.99995 15.8537Z" fill="#FBEAFF"/>
<path d="M12.1789 4.55078H7.82009C7.57575 4.55078 7.37695 4.74031 7.37695 4.97285V13.2123C7.37695 13.445 7.57562 13.6344 7.82009 13.6344H12.1789C12.4232 13.6344 12.622 13.4448 12.622 13.2123V4.97285C12.6219 4.74011 12.4232 4.55078 12.1789 4.55078Z" fill="#FBEAFF"/>
<path d="M9.99967 0C4.47707 0 0 4.4774 0 9.9998C0 15.5222 4.47707 20 9.99967 20C15.5223 20 19.9999 15.5225 19.9999 9.9998C19.9999 4.47713 15.5223 0 9.99967 0ZM13.8902 14.9347C13.8902 15.6986 13.2709 16.318 12.5069 16.318H7.49267C6.7288 16.318 6.1094 15.6987 6.1094 14.9347V5.02153C6.1094 4.25767 6.72873 3.63827 7.49267 3.63827H12.5069C13.2708 3.63827 13.8902 4.2576 13.8902 5.02153V14.9347Z" fill="#FBEAFF"/>
</svg>
