<svg width="50" height="49" viewBox="0 0 50 49" fill="none" xmlns="http://www.w3.org/2000/svg">
<path d="M8.8542 0H41.1459C46.0417 0 50 3.9583 50 8.8542V39.8959C50 44.7917 46.0417 48.7501 41.1458 48.7501H8.8542C3.9583 48.75 0 44.7917 0 39.8958V8.8542C0 3.9583 3.9583 0 8.8542 0Z" fill="#001834"/>
<path d="M11.25 34.1872V12.7497C11.25 12.6039 11.3125 12.5205 11.4583 12.5205C11.8125 12.5205 12.1458 12.5205 12.625 12.4997C13.125 12.4789 13.6458 12.4789 14.2083 12.458C14.7708 12.4371 15.375 12.4372 16.0208 12.4163C16.6666 12.3955 17.2916 12.3955 17.9166 12.3955C19.6249 12.3955 21.0416 12.6038 22.2083 13.0413C23.25 13.3955 24.2083 13.9788 25 14.7496C25.6667 15.4163 26.1875 16.2288 26.5208 17.1246C26.8333 17.9996 27 18.8954 27 19.8329C27 21.6246 26.5833 23.1037 25.75 24.2704C24.9167 25.4371 23.75 26.3121 22.3958 26.8121C20.9791 27.3329 19.4166 27.5204 17.7083 27.5204C17.2083 27.5204 16.875 27.5204 16.6666 27.4996C16.4583 27.4788 16.1666 27.4788 15.7708 27.4788V34.1663C15.7916 34.3121 15.6875 34.4371 15.5416 34.458C15.5208 34.458 15.4999 34.458 15.4583 34.458H11.5C11.3333 34.458 11.25 34.3747 11.25 34.1872ZM15.7917 16.5414V23.5414C16.0834 23.5622 16.3542 23.5831 16.6042 23.5831H17.7084C19.147 23.5831 20.8084 23.245 21.8125 22.104C22.6767 21.122 22.6791 19.1745 21.9792 18.104C21.1483 16.8332 19.4868 16.465 18.0625 16.4998C17.5208 16.4998 17.0417 16.4998 16.6458 16.5206C16.2292 16.4997 15.9375 16.5205 15.7917 16.5414Z" fill="#00A9FF"/>
<path d="M40 22.2708C39.375 21.9375 38.7083 21.7083 38 21.5625C37.2292 21.3958 36.4583 21.2917 35.6667 21.2917C35.25 21.2709 34.8125 21.3334 34.4167 21.4375C34.1459 21.5 33.9167 21.6458 33.7709 21.8542C33.6667 22.0209 33.6042 22.2292 33.6042 22.4167C33.6042 22.6042 33.6875 22.7917 33.8125 22.9584C34 23.1876 34.25 23.3751 34.5208 23.5209C35 23.7709 35.5 24.0001 36 24.2084C37.125 24.5834 38.2083 25.1042 39.2083 25.7292C39.8958 26.1667 40.4583 26.75 40.8541 27.4584C41.1874 28.1251 41.3541 28.8542 41.3333 29.6042C41.3541 30.5834 41.0625 31.5625 40.5208 32.375C39.9375 33.2083 39.125 33.8542 38.1875 34.2292C37.1667 34.6667 35.9167 34.8959 34.4167 34.8959C33.4584 34.8959 32.5209 34.8126 31.5834 34.6251C30.8542 34.5001 30.1251 34.2709 29.4584 33.9584C29.3126 33.8751 29.2084 33.7292 29.2292 33.5626V29.9376C29.2292 29.8751 29.25 29.7918 29.3125 29.7501C29.375 29.7084 29.4375 29.7293 29.5 29.7709C30.3125 30.2501 31.1667 30.5834 32.0833 30.7917C32.875 31 33.7083 31.1042 34.5416 31.1042C35.3333 31.1042 35.8958 31 36.2708 30.8125C36.6041 30.6667 36.8333 30.3125 36.8333 29.9375C36.8333 29.6458 36.6666 29.375 36.3333 29.1042C36 28.8334 35.3125 28.5209 34.2916 28.125C33.2291 27.75 32.2499 27.25 31.3333 26.625C30.6875 26.1667 30.1458 25.5625 29.75 24.8542C29.4167 24.1875 29.25 23.4584 29.2708 22.7292C29.2708 21.8334 29.5208 20.9792 29.9791 20.2084C30.4999 19.3751 31.2708 18.7084 32.1666 18.2917C33.1458 17.7917 34.3749 17.5625 35.8541 17.5625C36.7083 17.5625 37.5833 17.625 38.4374 17.75C39.0624 17.8333 39.6666 18 40.2291 18.2292C40.3124 18.25 40.3958 18.3334 40.4374 18.4167C40.4582 18.5 40.4791 18.5834 40.4791 18.6667V22.0625C40.4791 22.1458 40.4374 22.2292 40.3749 22.2708C40.1875 22.3125 40.0833 22.3125 40 22.2708Z" fill="#00A9FF"/>
</svg>
