<svg width="60" height="60" viewBox="0 0 60 60" fill="none" xmlns="http://www.w3.org/2000/svg">
<mask id="mask0_1_1308" style="mask-type:alpha" maskUnits="userSpaceOnUse" x="0" y="0" width="60" height="60">
<rect width="60" height="60" fill="#D9D9D9"/>
</mask>
<g mask="url(#mask0_1_1308)">
<path d="M30.0169 34.3482C32.6949 34.3482 34.8658 32.1773 34.8658 29.4993C34.8658 26.8213 32.6949 24.6504 30.0169 24.6504C27.3389 24.6504 25.168 26.8213 25.168 29.4993C25.168 32.1773 27.3389 34.3482 30.0169 34.3482Z" fill="#61DAFB"/>
<path d="M30.0186 39.4352C44.3883 39.4352 56.0373 34.9874 56.0373 29.5008C56.0373 24.0142 44.3883 19.5664 30.0186 19.5664C15.6489 19.5664 4 24.0142 4 29.5008C4 34.9874 15.6489 39.4352 30.0186 39.4352Z" stroke="#61DAFB"/>
<path d="M21.4138 34.4672C28.5986 46.9117 38.275 54.7761 43.0265 52.0328C47.7781 49.2895 45.8055 36.9773 38.6206 24.5328C31.4358 12.0883 21.7594 4.22389 17.0079 6.9672C12.2563 9.7105 14.2289 22.0227 21.4138 34.4672Z" stroke="#61DAFB"/>
<path d="M21.4147 24.533C14.2298 36.9775 12.2572 49.2897 17.0088 52.033C21.7603 54.7763 31.4367 46.9119 38.6215 34.4674C45.8064 22.0228 47.779 9.71068 43.0274 6.96738C38.2759 4.22407 28.5995 12.0885 21.4147 24.533Z" stroke="#61DAFB"/>
</g>
</svg>
