<svg width="24" height="24" viewBox="0 0 24 24" fill="none" xmlns="http://www.w3.org/2000/svg">
<path d="M11.9999 19.0233C12.5177 19.0233 12.9374 18.6036 12.9374 18.0859C12.9374 17.5681 12.5177 17.1484 11.9999 17.1484C11.4822 17.1484 11.0625 17.5681 11.0625 18.0859C11.0625 18.6036 11.4822 19.0233 11.9999 19.0233Z" fill="#F1F1BB"/>
<path d="M14.6139 5.46094H9.38332C9.09012 5.46094 8.85156 5.68838 8.85156 5.96742V15.8548C8.85156 16.1341 9.08996 16.3613 9.38332 16.3613H14.6139C14.9071 16.3613 15.1456 16.1338 15.1456 15.8548V5.96742C15.1455 5.68814 14.9071 5.46094 14.6139 5.46094Z" fill="#F1F1BB"/>
<path d="M11.9996 0C5.37248 0 0 5.37288 0 11.9998C0 18.6266 5.37248 24 11.9996 24C18.6267 24 23.9998 18.627 23.9998 11.9998C23.9998 5.37256 18.6267 0 11.9996 0ZM16.6682 17.9217C16.6682 18.8383 15.925 19.5816 15.0083 19.5816H8.9912C8.07456 19.5816 7.33128 18.8384 7.33128 17.9217V6.02584C7.33128 5.1092 8.07448 4.36592 8.9912 4.36592H15.0083C15.925 4.36592 16.6682 5.10912 16.6682 6.02584V17.9217Z" fill="#F1F1BB"/>
</svg>
