<svg width="40" height="40" viewBox="0 0 40 40" fill="none" xmlns="http://www.w3.org/2000/svg">
<path d="M20 0C8.95599 0 0 8.95599 0 20C0 31.044 8.95599 40 20 40C31.044 40 40 31.044 40 20C40 8.95599 31.044 0 20 0ZM20.4239 31.6446C20.4236 31.6446 20.4242 31.6446 20.4239 31.6446H20.419C18.4155 31.6437 16.4468 31.1414 14.6985 30.188L8.35297 31.8521L10.0513 25.6509C9.0036 23.8364 8.45245 21.7776 8.45337 19.6686C8.45612 13.0707 13.826 7.70294 20.4239 7.70294C23.6258 7.70416 26.6315 8.9505 28.8913 11.2122C31.1514 13.4741 32.3953 16.4807 32.3941 19.678C32.3914 26.2762 27.0209 31.6446 20.4239 31.6446Z" fill="#FBEAFF"/>
<path d="M20.4282 9.72461C14.9402 9.72461 10.4771 14.186 10.4746 19.67C10.474 21.5493 11.0001 23.3794 11.9959 24.963L12.2324 25.3392L11.2272 29.0096L14.9927 28.022L15.3562 28.2375C16.8836 29.1439 18.6347 29.6233 20.42 29.6239H20.424C25.9077 29.6239 30.3708 25.1622 30.3733 19.6779C30.3742 17.0201 29.3403 14.5214 27.4619 12.6415C25.5836 10.7616 23.0854 9.72552 20.4282 9.72461ZM26.2803 23.9461C26.0309 24.6443 24.8362 25.2819 24.2615 25.3679C23.7461 25.4448 23.0942 25.4769 22.3777 25.2495C21.9431 25.1116 21.3862 24.9276 20.6724 24.6196C17.6722 23.3245 15.7126 20.3044 15.5631 20.1049C15.4136 19.9053 14.3418 18.4835 14.3418 17.0116C14.3418 15.54 15.1145 14.8165 15.3885 14.5174C15.6629 14.218 15.987 14.1432 16.1863 14.1432C16.3856 14.1432 16.5851 14.1451 16.7594 14.1536C16.9431 14.1628 17.1897 14.0837 17.4323 14.6669C17.6816 15.2657 18.2798 16.7372 18.3546 16.8868C18.4293 17.0366 18.4791 17.2112 18.3796 17.4108C18.2798 17.6104 17.9484 18.041 17.6319 18.4334C17.4991 18.5979 17.3261 18.7444 17.5007 19.0438C17.6749 19.3428 18.2755 20.3221 19.1645 21.115C20.3071 22.1337 21.2708 22.4492 21.5699 22.5991C21.8687 22.7486 22.0432 22.7236 22.2178 22.5243C22.392 22.3247 22.9655 21.6512 23.1647 21.3518C23.364 21.0524 23.5636 21.1025 23.8376 21.2023C24.112 21.3018 25.5823 22.0253 25.8814 22.1749C26.1805 22.3247 26.3798 22.3995 26.4545 22.5243C26.5296 22.6491 26.5296 23.2476 26.2803 23.9461Z" fill="#FBEAFF"/>
</svg>
