<svg width="50" height="49" viewBox="0 0 50 49" fill="none" xmlns="http://www.w3.org/2000/svg">
<path d="M8.85415 0H41.1458C46.0359 0 50 3.96415 50 8.85415V39.8959C50 44.7859 46.0359 48.75 41.1458 48.75H8.85415C3.96415 48.75 0 44.7859 0 39.8959V8.85415C0 3.96415 3.96415 0 8.85415 0Z" fill="#470137"/>
<path d="M26.2847 12.8205L20.0459 23.1177L26.7207 34.0523C26.7635 34.1288 26.7755 34.2188 26.7543 34.3039C26.7317 34.3825 26.6537 34.333 26.5195 34.355H21.7567C21.4211 34.355 21.1864 34.3432 21.0522 34.1194C20.6046 33.2473 20.1574 32.3809 19.7105 31.52C19.263 30.6593 18.7878 29.7816 18.2851 28.8869C17.782 27.9929 17.2844 27.0873 16.7924 26.17H16.7589C16.3113 27.0646 15.8473 27.9591 15.3668 28.8533C14.8858 29.7479 14.4106 30.6368 13.9414 31.5199C13.4717 32.4034 12.991 33.2811 12.4991 34.1529C12.4095 34.3542 12.2527 34.3749 12.0294 34.3749H7.4342C7.34505 34.3749 7.29476 34.4101 7.28323 34.3206C7.27063 34.2387 7.28851 34.1552 7.33362 34.0858L13.8071 23.4531L7.50129 12.7869C7.4342 12.6978 7.42307 12.6252 7.4677 12.5689C7.51789 12.5109 7.5925 12.4798 7.66906 12.485H12.3983C12.5014 12.4794 12.6046 12.4965 12.7003 12.5354C12.7804 12.5808 12.8493 12.6439 12.9015 12.7199C13.3041 13.6145 13.7513 14.5089 14.2432 15.4032C14.7349 16.2978 15.2323 17.1811 15.7358 18.053C16.2389 18.9251 16.703 19.8084 17.1279 20.7029H17.1615C17.6084 19.7862 18.0613 18.8918 18.5199 18.0195C18.978 17.1475 19.4475 16.2698 19.9286 15.3865C20.4092 14.5034 20.8733 13.6257 21.3206 12.7535C21.3463 12.6707 21.3925 12.5958 21.4548 12.5355C21.5376 12.4935 21.6307 12.476 21.7232 12.4851H26.1171C26.2201 12.4597 26.3243 12.5226 26.3498 12.6256C26.3674 12.6976 26.3421 12.7735 26.2847 12.8205Z" fill="#FF61F6"/>
<path d="M35.9108 34.7903C34.367 34.8137 32.8372 34.493 31.433 33.8511C30.1248 33.2456 29.0312 32.2573 28.2969 31.0168C27.5364 29.7537 27.1563 28.1716 27.1565 26.2706C27.1439 24.7312 27.5373 23.2156 28.2969 21.8766C29.0794 20.5128 30.2303 19.3968 31.6176 18.6566C33.0708 17.8516 34.8262 17.4491 36.8836 17.4491C36.9952 17.4491 37.1405 17.4546 37.3196 17.4659C37.4984 17.4774 37.7108 17.4941 37.9569 17.5162V10.9084C37.9569 10.7523 38.0241 10.6737 38.1583 10.6737H42.3844C42.4817 10.6598 42.5718 10.7274 42.5857 10.8247C42.5881 10.8414 42.5881 10.8582 42.5857 10.8749V30.6981C42.5857 31.0786 42.6025 31.4923 42.636 31.9392C42.6696 32.3868 42.6975 32.7893 42.7199 33.1467C42.7283 33.2893 42.6484 33.4225 42.5185 33.4821C41.4282 33.9368 40.2926 34.2742 39.1309 34.4884C38.0686 34.6845 36.991 34.7854 35.9108 34.7903ZM37.9568 30.6311V21.4743C37.7756 21.4251 37.5904 21.3915 37.4034 21.3736C37.1749 21.3506 36.9454 21.3394 36.7158 21.3401C35.9018 21.332 35.0974 21.5159 34.3679 21.8767C33.6572 22.2299 33.0505 22.7615 32.607 23.4196C32.1484 24.0904 31.9192 24.9737 31.9193 26.0695C31.903 26.8006 32.0224 27.5285 32.2714 28.2161C32.4742 28.7702 32.7946 29.2737 33.2107 29.6919C33.609 30.0768 34.0912 30.3638 34.6193 30.5305C35.1772 30.7111 35.7603 30.8016 36.3467 30.7987C36.6596 30.7987 36.9503 30.7875 37.2188 30.7652C37.469 30.7465 37.7162 30.7015 37.9568 30.6311Z" fill="#FF61F6"/>
</svg>
